<?xml version="1.0" encoding="UTF-8" standalone="no"?>
<!-- Created with Inkscape (http://www.inkscape.org/) -->

<svg
   xmlns:dc="http://purl.org/dc/elements/1.1/"
   xmlns:cc="http://creativecommons.org/ns#"
   xmlns:rdf="http://www.w3.org/1999/02/22-rdf-syntax-ns#"
   xmlns:svg="http://www.w3.org/2000/svg"
   xmlns="http://www.w3.org/2000/svg"
   xmlns:sodipodi="http://sodipodi.sourceforge.net/DTD/sodipodi-0.dtd"
   xmlns:inkscape="http://www.inkscape.org/namespaces/inkscape"
   id="svg4435"
   version="1.1"
   inkscape:version="0.48.3.1 r9886"
   width="990"
   height="765"
   xml:space="preserve"
   sodipodi:docname="NSO_DTP_GAVI_GP375_SameSize_draft.pdf"><metadata
     id="metadata4441"><rdf:RDF><cc:Work
         rdf:about=""><dc:format>image/svg+xml</dc:format><dc:type
           rdf:resource="http://purl.org/dc/dcmitype/StillImage" /><dc:title></dc:title></cc:Work></rdf:RDF></metadata><defs
     id="defs4439"><clipPath
       clipPathUnits="userSpaceOnUse"
       id="clipPath4453"><path
         d="M 0,0 792,0 792,612 0,612 0,0 z"
         id="path4455"
         inkscape:connector-curvature="0" /></clipPath><clipPath
       clipPathUnits="userSpaceOnUse"
       id="clipPath4469"><path
         d="m 41.22,37.28 736.38,0 0,560.32 -736.38,0 0,-560.32 z"
         id="path4471"
         inkscape:connector-curvature="0" /></clipPath></defs><sodipodi:namedview
     pagecolor="#ffffff"
     bordercolor="#666666"
     borderopacity="1"
     objecttolerance="10"
     gridtolerance="10"
     guidetolerance="10"
     inkscape:pageopacity="0"
     inkscape:pageshadow="2"
     inkscape:window-width="1440"
     inkscape:window-height="876"
     id="namedview4437"
     showgrid="false"
     inkscape:zoom="0.91111111"
     inkscape:cx="364.39024"
     inkscape:cy="382.5"
     inkscape:window-x="0"
     inkscape:window-y="24"
     inkscape:window-maximized="1"
     inkscape:current-layer="g4443"
     fit-margin-top="0"
     fit-margin-left="0"
     fit-margin-right="0"
     fit-margin-bottom="0" /><g
     id="g4443"
     inkscape:groupmode="layer"
     inkscape:label="NSO_DTP_GAVI_GP375_SameSize"
     transform="matrix(1.25,0,0,-1.25,0,765)"><g
       id="g4445" /><g
       id="g4447" /><g
       id="g4449"><g
         id="g4451"
         clip-path="url(#clipPath4453)"><path
           d="M 0,0 792,0 792,612 0,612 0,0 z"
           style="fill:#ffffff;fill-opacity:1;fill-rule:nonzero;stroke:#ffffff;stroke-width:1.05999994;stroke-linecap:round;stroke-linejoin:round;stroke-miterlimit:10;stroke-opacity:1;stroke-dasharray:none"
           id="path4457"
           inkscape:connector-curvature="0" /></g></g><g
       id="g4459" /><g
       id="g4461" /><g
       id="g4463" /><g
       id="g4465"><g
         id="g4467"
         clip-path="url(#clipPath4469)"><path
   d="m 158.37,62.294769 0,475.621401"
   style="fill:#4d4d4d;stroke:#4d4d4d;stroke-width:0.39727512;stroke-linecap:butt;stroke-linejoin:round;stroke-miterlimit:10;stroke-opacity:1;stroke-dasharray:0.79455027, 1.58910053;stroke-dashoffset:0.31809552"
   id="path4481"
   inkscape:connector-curvature="0" /><path
   d="m 325.73,62.733624 0,474.743706"
   style="fill:#4d4d4d;stroke:#4d4d4d;stroke-width:0.3969084;stroke-linecap:butt;stroke-linejoin:round;stroke-miterlimit:10;stroke-opacity:1;stroke-dasharray:0.79381681, 1.58763362;stroke-dashoffset:0.31780188"
   id="path4483"
   inkscape:connector-curvature="0" /><path
   d="m 493.09,62.733624 0,475.182616"
   style="fill:#4d4d4d;stroke:#4d4d4d;stroke-width:0.39709184;stroke-linecap:butt;stroke-linejoin:round;stroke-miterlimit:10;stroke-opacity:1;stroke-dasharray:0.79418367, 1.58836735;stroke-dashoffset:0.31794876"
   id="path4485"
   inkscape:connector-curvature="0" /><path
   d="m 660.45,64.050191 0,474.304869"
   style="fill:#4d4d4d;stroke:#4d4d4d;stroke-width:0.39672491;stroke-linecap:butt;stroke-linejoin:round;stroke-miterlimit:10;stroke-opacity:1;stroke-dasharray:0.79344984, 1.58689968;stroke-dashoffset:0.31765496"
   id="path4487"
   inkscape:connector-curvature="0" /><path
   d="M 74.719482,62.75 777.6,62.75"
   style="fill:#000000;stroke:#000000;stroke-width:1.19192684;stroke-linecap:butt;stroke-linejoin:round;stroke-miterlimit:10;stroke-opacity:1;stroke-dasharray:none"
   id="path4489"
   inkscape:connector-curvature="0" /><path
   d="m 74.116706,244.67 668.104054,0"
   style="fill:#4d4d4d;stroke:#4d4d4d;stroke-width:0.41072372;stroke-linecap:butt;stroke-linejoin:round;stroke-miterlimit:10;stroke-opacity:1;stroke-dasharray:0.82144745, 1.64289492;stroke-dashoffset:0.32857898"
   id="path4491"
   inkscape:connector-curvature="0" /><path
   d="m 73.496014,426.59 669.870326,0"
   style="fill:#4d4d4d;stroke:#4d4d4d;stroke-width:0.4112663;stroke-linecap:butt;stroke-linejoin:round;stroke-miterlimit:10;stroke-opacity:1;stroke-dasharray:0.82253258, 1.64506515;stroke-dashoffset:0.32901302"
   id="path4493"
   inkscape:connector-curvature="0" /><path
   d="m 74.69,62.277206 0,475.243294"
   style="fill:#000000;stroke:#000000;stroke-width:1.12356913;stroke-linecap:butt;stroke-linejoin:round;stroke-miterlimit:10;stroke-opacity:1;stroke-dasharray:none"
   id="path4495"
   inkscape:connector-curvature="0" /><path
   d="m 242.05,63.17248 0,474.30486"
   style="fill:#4d4d4d;stroke:#4d4d4d;stroke-width:0.39672491;stroke-linecap:butt;stroke-linejoin:round;stroke-miterlimit:10;stroke-opacity:1;stroke-dasharray:0.79344983, 1.58689966;stroke-dashoffset:0.31765496"
   id="path4497"
   inkscape:connector-curvature="0" /><path
   d="m 409.41,62.733624 0,474.304856"
   style="fill:#4d4d4d;stroke:#4d4d4d;stroke-width:0.39672491;stroke-linecap:butt;stroke-linejoin:round;stroke-miterlimit:10;stroke-opacity:1;stroke-dasharray:0.79344982, 1.58689965;stroke-dashoffset:0.31765496"
   id="path4499"
   inkscape:connector-curvature="0" /><path
   d="m 576.77,61.855913 0,475.621397"
   style="fill:#4d4d4d;stroke:#4d4d4d;stroke-width:0.39727515;stroke-linecap:butt;stroke-linejoin:round;stroke-miterlimit:10;stroke-opacity:1;stroke-dasharray:0.79455027, 1.58910053;stroke-dashoffset:0.31809552"
   id="path4501"
   inkscape:connector-curvature="0" /><path
   d="m 744.13,62.726057 0,474.312423"
   style="fill:#4d4d4d;stroke:#4d4d4d;stroke-width:0.39672804;stroke-linecap:butt;stroke-linejoin:round;stroke-miterlimit:10;stroke-opacity:1;stroke-dasharray:0.79345612, 1.58691223;stroke-dashoffset:0.31738244"
   id="path4503"
   inkscape:connector-curvature="0" /><path
   d="m 387.36,135.52 c 0,2.92 2.39,5.32 5.32,5.32 2.92,0 5.31,-2.4 5.31,-5.32 0,-2.92 -2.39,-5.31 -5.31,-5.31 -2.93,0 -5.32,2.39 -5.32,5.31"
   style="fill:#214478;fill-opacity:1;fill-rule:nonzero;stroke:none"
   id="path4505"
   inkscape:connector-curvature="0" /><path
   d="m 178.16,171.9 c 0,2.93 2.39,5.32 5.32,5.32 2.92,0 5.31,-2.39 5.31,-5.32 0,-2.92 -2.39,-5.31 -5.31,-5.31 -2.93,0 -5.32,2.39 -5.32,5.31"
   style="fill:#214478;fill-opacity:1;fill-rule:nonzero;stroke:none"
   id="path4507"
   inkscape:connector-curvature="0" /><path
   d="m 487.78,181 c 0,2.92 2.39,5.32 5.31,5.32 2.92,0 5.32,-2.4 5.32,-5.32 0,-2.92 -2.4,-5.31 -5.32,-5.31 -2.92,0 -5.31,2.39 -5.31,5.31"
   style="fill:#214478;fill-opacity:1;fill-rule:nonzero;stroke:none"
   id="path4509"
   inkscape:connector-curvature="0" /><path
   d="m 387.36,99.14 c 0,2.92 2.39,5.31 5.32,5.31 2.92,0 5.31,-2.39 5.31,-5.31 0,-2.93 -2.39,-5.32 -5.31,-5.32 -2.93,0 -5.32,2.39 -5.32,5.32"
   style="fill:#214478;fill-opacity:1;fill-rule:nonzero;stroke:none"
   id="path4511"
   inkscape:connector-curvature="0" /><path
   d="m 387.36,135.52 c 0,2.92 2.39,5.32 5.32,5.32 2.92,0 5.31,-2.4 5.31,-5.32 0,-2.92 -2.39,-5.31 -5.31,-5.31 -2.93,0 -5.32,2.39 -5.32,5.31"
   style="fill:#214478;fill-opacity:1;fill-rule:nonzero;stroke:none"
   id="path4513"
   inkscape:connector-curvature="0" /><path
   d="m 387.36,147.53 c 0,2.92 2.39,5.31 5.32,5.31 2.92,0 5.31,-2.39 5.31,-5.31 0,-2.93 -2.39,-5.32 -5.31,-5.32 -2.93,0 -5.32,2.39 -5.32,5.32"
   style="fill:#214478;fill-opacity:1;fill-rule:nonzero;stroke:none"
   id="path4515"
   inkscape:connector-curvature="0" /><path
   d="m 630.03,99.14 c 0,2.92 2.39,5.31 5.32,5.31 2.92,0 5.31,-2.39 5.31,-5.31 0,-2.93 -2.39,-5.32 -5.31,-5.32 -2.93,0 -5.32,2.39 -5.32,5.32"
   style="fill:#214478;fill-opacity:1;fill-rule:nonzero;stroke:none"
   id="path4517"
   inkscape:connector-curvature="0" /><path
   d="m 404.1,499.36 c 0,2.93 2.39,5.32 5.31,5.32 2.92,0 5.32,-2.39 5.32,-5.32 0,-2.92 -2.4,-5.31 -5.32,-5.31 -2.92,0 -5.31,2.39 -5.31,5.31"
   style="fill:#214478;fill-opacity:1;fill-rule:nonzero;stroke:none"
   id="path4519"
   inkscape:connector-curvature="0" /><path
   d="m 387.36,123.51 c 0,2.93 2.39,5.32 5.32,5.32 2.92,0 5.31,-2.39 5.31,-5.32 0,-2.92 -2.39,-5.31 -5.31,-5.31 -2.93,0 -5.32,2.39 -5.32,5.31"
   style="fill:#214478;fill-opacity:1;fill-rule:nonzero;stroke:none"
   id="path4521"
   inkscape:connector-curvature="0" /><path
   d="m 387.36,135.52 c 0,2.92 2.39,5.32 5.32,5.32 2.92,0 5.31,-2.4 5.31,-5.32 0,-2.92 -2.39,-5.31 -5.31,-5.31 -2.93,0 -5.32,2.39 -5.32,5.31"
   style="fill:#214478;fill-opacity:1;fill-rule:nonzero;stroke:none"
   id="path4523"
   inkscape:connector-curvature="0" /><path
   d="m 345.52,171.9 c 0,2.93 2.39,5.32 5.32,5.32 2.92,0 5.31,-2.39 5.31,-5.32 0,-2.92 -2.39,-5.31 -5.31,-5.31 -2.93,0 -5.32,2.39 -5.32,5.31"
   style="fill:#214478;fill-opacity:1;fill-rule:nonzero;stroke:none"
   id="path4525"
   inkscape:connector-curvature="0" /><path
   d="m 278.58,190.1 c 0,2.92 2.39,5.31 5.31,5.31 2.93,0 5.32,-2.39 5.32,-5.31 0,-2.93 -2.39,-5.32 -5.32,-5.32 -2.92,0 -5.31,2.39 -5.31,5.32"
   style="fill:#214478;fill-opacity:1;fill-rule:nonzero;stroke:none"
   id="path4527"
   inkscape:connector-curvature="0" /><path
   d="m 178.16,244.67 c 0,2.93 2.39,5.32 5.32,5.32 2.92,0 5.31,-2.39 5.31,-5.32 0,-2.92 -2.39,-5.31 -5.31,-5.31 -2.93,0 -5.32,2.39 -5.32,5.31"
   style="fill:#214478;fill-opacity:1;fill-rule:nonzero;stroke:none"
   id="path4529"
   inkscape:connector-curvature="0" /><path
   d="m 186.53,171.9 c 0,2.93 2.39,5.32 5.32,5.32 2.92,0 5.31,-2.39 5.31,-5.32 0,-2.92 -2.39,-5.31 -5.31,-5.31 -2.93,0 -5.32,2.39 -5.32,5.31"
   style="fill:#214478;fill-opacity:1;fill-rule:nonzero;stroke:none"
   id="path4531"
   inkscape:connector-curvature="0" /><path
   d="m 387.36,99.14 c 0,2.92 2.39,5.31 5.32,5.31 2.92,0 5.31,-2.39 5.31,-5.31 0,-2.93 -2.39,-5.32 -5.31,-5.32 -2.93,0 -5.32,2.39 -5.32,5.32"
   style="fill:#214478;fill-opacity:1;fill-rule:nonzero;stroke:none"
   id="path4533"
   inkscape:connector-curvature="0" /><path
   d="m 278.58,171.9 c 0,2.93 2.39,5.32 5.31,5.32 2.93,0 5.32,-2.39 5.32,-5.32 0,-2.92 -2.39,-5.31 -5.32,-5.31 -2.92,0 -5.31,2.39 -5.31,5.31"
   style="fill:#214478;fill-opacity:1;fill-rule:nonzero;stroke:none"
   id="path4535"
   inkscape:connector-curvature="0" /><path
   d="m 663.5,171.9 c 0,2.93 2.39,5.32 5.32,5.32 2.92,0 5.31,-2.39 5.31,-5.32 0,-2.92 -2.39,-5.31 -5.31,-5.31 -2.93,0 -5.32,2.39 -5.32,5.31"
   style="fill:#214478;fill-opacity:1;fill-rule:nonzero;stroke:none"
   id="path4537"
   inkscape:connector-curvature="0" /><path
   d="m 278.58,190.1 c 0,2.92 2.39,5.31 5.31,5.31 2.93,0 5.32,-2.39 5.32,-5.31 0,-2.93 -2.39,-5.32 -5.32,-5.32 -2.92,0 -5.31,2.39 -5.31,5.32"
   style="fill:#214478;fill-opacity:1;fill-rule:nonzero;stroke:none"
   id="path4539"
   inkscape:connector-curvature="0" /><text
   transform="scale(1,-1)"
   id="text4541"
   x="409.6402"
   y="-131.57001"><tspan
     style="font-size:11px;font-variant:normal;font-weight:normal;writing-mode:lr-tb;fill:#000000;fill-opacity:1;fill-rule:nonzero;stroke:none;font-family:Helvetica;-inkscape-font-specification:Helvetica"
     x="409.6402 416.9772 420.91519 430.07819 436.19421 442.31021 444.7522 450.86819 453.92621 460.04221 463.10019 469.21619 475.33221 478.3902"
     y="-131.57001"
     sodipodi:role="line"
     id="tspan4543">Armenia,0.38,2</tspan></text>




<text
   transform="scale(1,-1)"
   id="text4545"
   x="113.87991"
   y="-179.16003"><tspan
     style="font-size:11px;font-variant:normal;font-weight:normal;writing-mode:lr-tb;fill:#000000;fill-opacity:1;fill-rule:nonzero;stroke:none;font-family:Helvetica;-inkscape-font-specification:Helvetica"
     x="113.87991 121.82188 127.93787 134.05386 140.16986 145.84586 148.90385 155.01985 158.07787 164.19386 170.30986 173.36786"
     y="-179.16003"
     sodipodi:role="line"
     id="tspan4547">Congo,0.13,3</tspan></text>




<text
   transform="scale(1,-1)"
   id="text4549"
   x="501.74017"
   y="-177.05"><tspan
     style="font-size:11px;font-variant:normal;font-weight:normal;writing-mode:lr-tb;fill:#000000;fill-opacity:1;fill-rule:nonzero;stroke:none;font-family:Helvetica;-inkscape-font-specification:Helvetica"
     x="501.74017 509.68216 515.7981 521.91394 528.02985 531.08783 537.20367 540.2616 546.3775 549.43542 555.55139 558.60938 564.72534"
     y="-177.05"
     sodipodi:role="line"
     id="tspan4551">Cuba,0.5,3.25</tspan></text>




<text
   transform="scale(1,-1)"
   id="text4553"
   x="412.49045"
   y="-82.390015"><tspan
     style="font-size:11px;font-variant:normal;font-weight:normal;writing-mode:lr-tb;fill:#000000;fill-opacity:1;fill-rule:nonzero;stroke:none;font-family:Helvetica;-inkscape-font-specification:Helvetica"
     x="412.49045 420.43246 426.54846 435.71146 441.82745 447.32745 450.88046 456.99646 460.05444 462.49646 467.99646 471.05444 478.99646 485.11246 491.22845 497.34445 503.24045 505.68246 508.12445 513.62439 516.68237 522.79828 525.8562 528.91412 531.97205 538.08795 544.20386 547.26178 555.20361 561.31952 567.43542 573.55127 579.22717 582.28516 588.401 591.45892 597.57483 603.69067 606.74866"
     y="-82.390015"
     sodipodi:role="line"
     id="tspan4555">Democratic Republic of the Congo,0.38,1</tspan></text>




<text
   transform="scale(1,-1)"
   id="text4557"
   x="497.09052"
   y="-131.57001"><tspan
     style="font-size:11px;font-variant:normal;font-weight:normal;writing-mode:lr-tb;fill:#000000;fill-opacity:1;fill-rule:nonzero;stroke:none;font-family:Helvetica;-inkscape-font-specification:Helvetica"
     x="497.09052 505.6485 511.7645 517.88037 521.54333 527.65924 530.10114 536.21704 539.27496 545.39087 548.44879 554.5647 560.68054 563.73853"
     y="-131.57001"
     sodipodi:role="line"
     id="tspan4559">Georgia,0.38,2</tspan></text>




<text
   transform="scale(1,-1)"
   id="text4561"
   x="409.96024"
   y="-143.58"><tspan
     style="font-size:11px;font-variant:normal;font-weight:normal;writing-mode:lr-tb;fill:#000000;fill-opacity:1;fill-rule:nonzero;stroke:none;font-family:Helvetica;-inkscape-font-specification:Helvetica"
     x="409.96024 413.01825 419.13425 425.25024 431.36624 437.48224 443.59824 449.09824 451.54025 457.65625 460.71423 466.83023 469.88824 476.00424 482.12024 485.17825 491.29425 494.35223 500.46826"
     y="-143.58"
     sodipodi:role="line"
     id="tspan4563">Indonesia,0.38,2.33</tspan></text>




<text
   transform="scale(1,-1)"
   id="text4565"
   x="644.9494"
   y="-95.190002"><tspan
     style="font-size:11px;font-variant:normal;font-weight:normal;writing-mode:lr-tb;fill:#000000;fill-opacity:1;fill-rule:nonzero;stroke:none;font-family:Helvetica;-inkscape-font-specification:Helvetica"
     x="644.9494 651.84637 657.9624 663.91339 669.19336 675.30939 678.36737 684.4834 687.54138 693.65741 699.77338 702.83136"
     y="-95.190002"
     sodipodi:role="line"
     id="tspan4567">Kenya,0.67,1</tspan></text>




<text
   transform="scale(1,-1)"
   id="text4569"
   x="414.10016"
   y="-501.81003"><tspan
     style="font-size:11px;font-variant:normal;font-weight:normal;writing-mode:lr-tb;fill:#000000;fill-opacity:1;fill-rule:nonzero;stroke:none;font-family:Helvetica;-inkscape-font-specification:Helvetica"
     x="414.10016 421.43713 423.87915 427.70715 430.14914 436.26514 442.38113 445.43915 447.88113 450.93915 457.05515 460.11316 466.22916 469.28714 475.40314"
     y="-501.81003"
     sodipodi:role="line"
     id="tspan4571">Kiribati,0.4,12</tspan></text>




<text
   transform="scale(1,-1)"
   id="text4573"
   x="410.41028"
   y="-119.56"><tspan
     style="font-size:11px;font-variant:normal;font-weight:normal;writing-mode:lr-tb;fill:#000000;fill-opacity:1;fill-rule:nonzero;stroke:none;font-family:Helvetica;-inkscape-font-specification:Helvetica"
     x="410.41028 419.57327 425.68927 431.18927 437.30527 446.46826 452.58429 455.02628 461.14227 467.25827 473.20929 476.26727 482.38327 485.44128 491.55728 497.67328 500.73126 506.84726 509.90527 516.02118"
     y="-119.56"
     sodipodi:role="line"
     id="tspan4575">Mozambique,0.38,1.67</tspan></text>




<text
   transform="scale(1,-1)"
   id="text4577"
   x="583.88947"
   y="-131.57001"><tspan
     style="font-size:11px;font-variant:normal;font-weight:normal;writing-mode:lr-tb;fill:#000000;fill-opacity:1;fill-rule:nonzero;stroke:none;font-family:Helvetica;-inkscape-font-specification:Helvetica"
     x="583.88947 591.83136 597.9472 604.06311 610.17896 612.62091 615.67889 621.79474 624.85266 630.96857 637.08447 640.1424"
     y="-131.57001"
     sodipodi:role="line"
     id="tspan4579">Nepal,0.38,2</tspan></text>




<text
   transform="scale(1,-1)"
   id="text4581"
   x="327.55002"
   y="-179.16005"><tspan
     style="font-size:11px;font-variant:normal;font-weight:normal;writing-mode:lr-tb;fill:#000000;fill-opacity:1;fill-rule:nonzero;stroke:none;font-family:Helvetica;-inkscape-font-specification:Helvetica"
     x="327.55002 335.492 337.93402 344.05002 350.16602 353.27902 356.33701 362.45303 365.51102 371.62701 377.74301 380.80103"
     y="-179.16005"
     sodipodi:role="line"
     id="tspan4583">Niger,0.33,3</tspan></text>




<text
   transform="scale(1,-1)"
   id="text4585"
   x="291.21017"
   y="-195.75003"><tspan
     style="font-size:11px;font-variant:normal;font-weight:normal;writing-mode:lr-tb;fill:#000000;fill-opacity:1;fill-rule:nonzero;stroke:none;font-family:Helvetica;-inkscape-font-specification:Helvetica"
     x="291.21017 298.10718 304.22318 309.72318 312.16519 317.66519 320.72318 326.83917 332.95517 336.01318 342.12918 345.18719 351.30319 357.41919 360.47717 366.5932 369.65118"
     y="-195.75003"
     sodipodi:role="line"
     id="tspan4587">Pakistan,0.25,3.5</tspan></text>




<text
   transform="scale(1,-1)"
   id="text4589"
   x="119.3"
   y="-258.32007"><tspan
     style="font-size:11px;font-variant:normal;font-weight:normal;writing-mode:lr-tb;fill:#000000;fill-opacity:1;fill-rule:nonzero;stroke:none;font-family:Helvetica;-inkscape-font-specification:Helvetica"
     x="119.3 126.197 132.313 138.429 144.545 150.661 153.71899 161.661 167.55701 175.49901 178.55701 187.11501 193.231 195.673 201.789 207.905 214.021 217.07899 223.19499 226.25301 232.369 238.485 241.543"
     y="-258.32007"
     sodipodi:role="line"
     id="tspan4591">Papua New Guinea,0.13,5</tspan></text>




<text
   transform="scale(1,-1)"
   id="text4593"
   x="191.96014"
   y="-179.16003"><tspan
     style="font-size:11px;font-variant:normal;font-weight:normal;writing-mode:lr-tb;fill:#000000;fill-opacity:1;fill-rule:nonzero;stroke:none;font-family:Helvetica;-inkscape-font-specification:Helvetica"
     x="191.96014 199.29713 205.41315 214.57614 220.69214 223.13414 225.57614 231.69214 234.75014 240.86613 243.92415 250.04013 256.15613 259.21414"
     y="-179.16003"
     sodipodi:role="line"
     id="tspan4595">Somalia,0.14,3</tspan></text>




<text
   transform="scale(1,-1)"
   id="text4597"
   x="411.4902"
   y="-95.190002"><tspan
     style="font-size:11px;font-variant:normal;font-weight:normal;writing-mode:lr-tb;fill:#000000;fill-opacity:1;fill-rule:nonzero;stroke:none;font-family:Helvetica;-inkscape-font-specification:Helvetica"
     x="411.4902 416.8912 423.0072 429.1232 434.6232 440.73923 446.85522 449.29721 455.41321 458.47122 464.58722 467.6452 473.7612 479.87723 482.93521"
     y="-95.190002"
     sodipodi:role="line"
     id="tspan4599">Tanzania,0.38,1</tspan></text>




<text
   transform="scale(1,-1)"
   id="text4601"
   x="257.86002"
   y="-158.35997"><tspan
     style="font-size:11px;font-variant:normal;font-weight:normal;writing-mode:lr-tb;fill:#000000;fill-opacity:1;fill-rule:nonzero;stroke:none;font-family:Helvetica;-inkscape-font-specification:Helvetica"
     x="257.86002 265.80203 271.30203 274.85504 280.97104 283.41302 289.52902 295.48004 298.53802 304.65402 307.71204 313.82803 319.94403 323.00204"
     y="-158.35997"
     sodipodi:role="line"
     id="tspan4603">Ukraine,0.25,3</tspan></text>




<text
   transform="scale(1,-1)"
   id="text4605"
   x="647.1897"
   y="-179.16005"><tspan
     style="font-size:11px;font-variant:normal;font-weight:normal;writing-mode:lr-tb;fill:#000000;fill-opacity:1;fill-rule:nonzero;stroke:none;font-family:Helvetica;-inkscape-font-specification:Helvetica"
     x="647.1897 655.13165 660.63165 666.74768 672.86371 678.36371 680.80566 686.30566 689.36371 695.47968 701.5957 704.65369 710.76971 713.8277 719.94366 726.05969 729.11768"
     y="-179.16005"
     sodipodi:role="line"
     id="tspan4607">Uzbekistan,0.71,3</tspan></text>




<text
   transform="scale(1,-1)"
   id="text4609"
   x="289.47018"
   y="-210.15009"><tspan
     style="font-size:11px;font-variant:normal;font-weight:normal;writing-mode:lr-tb;fill:#000000;fill-opacity:1;fill-rule:nonzero;stroke:none;font-family:Helvetica;-inkscape-font-specification:Helvetica"
     x="289.47018 296.80719 299.24918 305.36517 308.42319 311.48117 319.42319 325.53918 334.70218 337.76019 343.87619 346.93417 353.05017 359.16617 362.22418 368.34018 371.39819"
     y="-210.15009"
     sodipodi:role="line"
     id="tspan4611">Viet Nam,0.25,3.5</tspan></text>




<path
   d="m 74.116706,171.902 669.966124,0"
   style="fill:#000000;stroke:#000000;stroke-width:1.39119995;stroke-linecap:butt;stroke-linejoin:round;stroke-miterlimit:10;stroke-opacity:1;stroke-dasharray:2.7824, 5.5648;stroke-dashoffset:1.11296003"
   id="path5246"
   inkscape:connector-curvature="0" /><path
   inkscape:connector-curvature="0"
   id="path5248"
   style="fill:#4d4d4d;stroke:#4d4d4d;stroke-width:0.4111051;stroke-linecap:butt;stroke-linejoin:round;stroke-miterlimit:10;stroke-opacity:1;stroke-dasharray:0.82221025, 1.64442051;stroke-dashoffset:0.3288841"
   d="m 75.358091,208.286 669.345429,0" /><path
   d="m 74.116706,135.518 671.207494,0"
   style="fill:#4d4d4d;stroke:#4d4d4d;stroke-width:0.41167656;stroke-linecap:butt;stroke-linejoin:round;stroke-miterlimit:10;stroke-opacity:1;stroke-dasharray:0.82335311, 1.64670624;stroke-dashoffset:0.32934124"
   id="path5250"
   inkscape:connector-curvature="0" /><path
   inkscape:connector-curvature="0"
   id="path5252"
   style="fill:#4d4d4d;stroke:#4d4d4d;stroke-width:0.41129568;stroke-linecap:butt;stroke-linejoin:round;stroke-miterlimit:10;stroke-opacity:1;stroke-dasharray:0.82259138, 1.64518277;stroke-dashoffset:0.32903655"
   d="m 74.737399,99.133998 669.966121,0" /><path
   d="m 74.116706,281.054 671.828184,0"
   style="fill:#4d4d4d;stroke:#4d4d4d;stroke-width:0.41186684;stroke-linecap:butt;stroke-linejoin:round;stroke-miterlimit:10;stroke-opacity:1;stroke-dasharray:0.82373372, 1.64746745;stroke-dashoffset:0.32949348"
   id="path5254"
   inkscape:connector-curvature="0" /><path
   inkscape:connector-curvature="0"
   id="path5256"
   style="fill:#4d4d4d;stroke:#4d4d4d;stroke-width:0.41091445;stroke-linecap:butt;stroke-linejoin:round;stroke-miterlimit:10;stroke-opacity:1;stroke-dasharray:0.82182894, 1.64365789;stroke-dashoffset:0.32873157"
   d="m 74.116706,317.438 668.724744,0" /><path
   d="m 73.496014,353.822 669.431436,0"
   style="fill:#4d4d4d;stroke:#4d4d4d;stroke-width:0.41113153;stroke-linecap:butt;stroke-linejoin:round;stroke-miterlimit:10;stroke-opacity:1;stroke-dasharray:0.82226307, 1.64452615;stroke-dashoffset:0.32890522"
   id="path5258"
   inkscape:connector-curvature="0" /><path
   inkscape:connector-curvature="0"
   id="path5260"
   style="fill:#4d4d4d;stroke:#4d4d4d;stroke-width:0.41193938;stroke-linecap:butt;stroke-linejoin:round;stroke-miterlimit:10;stroke-opacity:1;stroke-dasharray:0.82387876, 1.64775753;stroke-dashoffset:0.3295515"
   d="m 73.496014,390.206 672.064796,0" /><path
   inkscape:connector-curvature="0"
   id="path5264"
   style="fill:#4d4d4d;stroke:#4d4d4d;stroke-width:0.41121045;stroke-linecap:butt;stroke-linejoin:round;stroke-miterlimit:10;stroke-opacity:1;stroke-dasharray:0.82242095, 1.64484191;stroke-dashoffset:0.32896837"
   d="m 74.116706,463.39 669.688534,0" /><path
   d="m 74.116706,500.19 668.371854,0"
   style="fill:#4d4d4d;stroke:#4d4d4d;stroke-width:0.41080603;stroke-linecap:butt;stroke-linejoin:round;stroke-miterlimit:10;stroke-opacity:1;stroke-dasharray:0.82161207, 1.64322415;stroke-dashoffset:0.32864482"
   id="path5268"
   inkscape:connector-curvature="0" /><path
   inkscape:connector-curvature="0"
   id="path5272"
   style="fill:#4d4d4d;stroke:#4d4d4d;stroke-width:0.41113153;stroke-linecap:butt;stroke-linejoin:round;stroke-miterlimit:10;stroke-opacity:1;stroke-dasharray:0.82226307, 1.64452615;stroke-dashoffset:0.32890522"
   d="m 73.496014,536.99 669.431436,0" /><path
   inkscape:connector-curvature="0"
   id="path5339"
   style="fill:#000000;stroke:#000000;stroke-width:1.3149842;stroke-linecap:butt;stroke-linejoin:round;stroke-miterlimit:10;stroke-opacity:1;stroke-dasharray:2.62996848, 5.25993697;stroke-dashoffset:1.052899"
   d="m 388.49,62.733624 0,477.867236" /></g></g><g
       id="g4613" /><g
       id="g4615" /><g
       id="g4617"
       style="fill:#000000"
       transform="translate(28.8,0)"><text
   transform="scale(1,-1)"
   id="text4619"
   style="font-size:10.39999962px;font-style:normal;font-variant:normal;font-weight:normal;font-stretch:normal;text-align:start;line-height:125%;writing-mode:lr-tb;text-anchor:start;fill:#000000;font-family:Sans;-inkscape-font-specification:Sans"
   sodipodi:linespacing="125%"
   x="23.02"
   y="-59.16"><tspan
     style="font-size:10.39999962px;font-style:normal;font-variant:normal;font-weight:normal;font-stretch:normal;text-align:start;line-height:125%;writing-mode:lr-tb;text-anchor:start;fill:#000000;fill-opacity:1;fill-rule:nonzero;stroke:none;font-family:Sans;-inkscape-font-specification:Sans"
     x="23.02"
     y="-59.16"
     id="tspan4621">0</tspan></text>




<text
   transform="scale(1,-1)"
   id="text4623"
   style="font-size:10.39999962px;font-style:normal;font-variant:normal;font-weight:normal;font-stretch:normal;text-align:start;line-height:125%;writing-mode:lr-tb;text-anchor:start;fill:#000000;font-family:Sans;-inkscape-font-specification:Sans"
   sodipodi:linespacing="125%"
   x="23.02"
   y="-208.07545"><tspan
     sodipodi:role="line"
     id="tspan5331"
     x="23.02"
     y="-208.07545">4</tspan></text>




<text
   transform="scale(1,-1)"
   id="text4627"
   style="font-size:10.39999962px;font-style:normal;font-variant:normal;font-weight:normal;font-stretch:normal;text-align:start;line-height:125%;writing-mode:lr-tb;text-anchor:start;fill:#000000;font-family:Sans;-inkscape-font-specification:Sans"
   sodipodi:linespacing="125%"
   x="23.02"
   y="-426.52646"><tspan
     style="font-size:10.39999962px;font-style:normal;font-variant:normal;font-weight:normal;font-stretch:normal;text-align:start;line-height:125%;writing-mode:lr-tb;text-anchor:start;fill:#000000;fill-opacity:1;fill-rule:nonzero;stroke:none;font-family:Sans;-inkscape-font-specification:Sans"
     x="23.02 28.58"
     y="-426.52646"
     sodipodi:role="line"
     id="tspan4629">10</tspan></text>




<text
   id="text5309"
   transform="scale(1,-1)"
   x="23.02"
   y="-499.97928"
   style="font-size:10.39999962px;font-style:normal;font-variant:normal;font-weight:normal;font-stretch:normal;text-align:start;line-height:125%;writing-mode:lr-tb;text-anchor:start;fill:#000000;font-family:Sans;-inkscape-font-specification:Sans"
   sodipodi:linespacing="125%"><tspan
     sodipodi:role="line"
     id="tspan5325"
     x="23.02"
     y="-499.97928">12</tspan></text>




<text
   y="-353.75845"
   x="23.02"
   transform="scale(1,-1)"
   id="text5313"
   style="font-size:10.39999962px;font-style:normal;font-variant:normal;font-weight:normal;font-stretch:normal;text-align:start;line-height:125%;writing-mode:lr-tb;text-anchor:start;fill:#000000;font-family:Sans;-inkscape-font-specification:Sans"
   sodipodi:linespacing="125%"><tspan
     sodipodi:role="line"
     id="tspan5327"
     x="23.02"
     y="-353.75845">8</tspan></text>




<text
   id="text5317"
   transform="scale(1,-1)"
   x="23.02"
   y="-277.39944"
   style="font-size:10.39999962px;font-style:normal;font-variant:normal;font-weight:normal;font-stretch:normal;text-align:start;line-height:125%;writing-mode:lr-tb;text-anchor:start;fill:#000000;font-family:Sans;-inkscape-font-specification:Sans"
   sodipodi:linespacing="125%"><tspan
     sodipodi:role="line"
     id="tspan5329"
     x="23.02"
     y="-277.39944">6</tspan></text>




<text
   y="-133.3989"
   x="23.02"
   transform="scale(1,-1)"
   id="text5321"
   style="font-size:10.39999962px;font-style:normal;font-variant:normal;font-weight:normal;font-stretch:normal;text-align:start;line-height:125%;writing-mode:lr-tb;text-anchor:start;fill:#000000;font-family:Sans;-inkscape-font-specification:Sans"
   sodipodi:linespacing="125%"><tspan
     sodipodi:role="line"
     id="tspan5333"
     x="23.02"
     y="-133.3989">2</tspan></text>




</g><g
       id="g4631" /><g
       id="g4633"
       transform="translate(33.6,0)"
       style="fill:#000000;stroke:#000000"><path
         d="m 36.97,62.75 4.25,0"
         style="fill:#000000;stroke:#000000;stroke-width:1.05999994;stroke-linecap:butt;stroke-linejoin:round;stroke-miterlimit:10;stroke-opacity:1;stroke-dasharray:none"
         id="path4635"
         inkscape:connector-curvature="0" /><path
         d="m 36.97,208.286 4.25,0"
         style="fill:#000000;stroke:#000000;stroke-width:1.05999994;stroke-linecap:butt;stroke-linejoin:round;stroke-miterlimit:10;stroke-opacity:1;stroke-dasharray:none"
         id="path4637"
         inkscape:connector-curvature="0" /><path
         d="m 36.97,426.59001 4.25,0"
         style="fill:#000000;stroke:#000000;stroke-width:1.05999994;stroke-linecap:butt;stroke-linejoin:round;stroke-miterlimit:10;stroke-opacity:1;stroke-dasharray:none"
         id="path4639"
         inkscape:connector-curvature="0" /><path
         id="path5297"
         style="fill:#000000;stroke:#000000;stroke-width:1.05999994;stroke-linecap:butt;stroke-linejoin:round;stroke-miterlimit:10;stroke-opacity:1;stroke-dasharray:none"
         d="m 36.97,353.822 4.25,0"
         inkscape:connector-curvature="0" /><path
         inkscape:connector-curvature="0"
         d="m 36.97,281.054 4.25,0"
         style="fill:#000000;stroke:#000000;stroke-width:1.05999994;stroke-linecap:butt;stroke-linejoin:round;stroke-miterlimit:10;stroke-opacity:1;stroke-dasharray:none"
         id="path5299" /><path
         id="path5301"
         style="fill:#000000;stroke:#000000;stroke-width:1.05999994;stroke-linecap:butt;stroke-linejoin:round;stroke-miterlimit:10;stroke-opacity:1;stroke-dasharray:none"
         d="m 36.97,135.518 4.25,0"
         inkscape:connector-curvature="0" /><path
         inkscape:connector-curvature="0"
         id="path5307"
         style="fill:#000000;stroke:#000000;stroke-width:1.05999994;stroke-linecap:butt;stroke-linejoin:round;stroke-miterlimit:10;stroke-opacity:1;stroke-dasharray:none"
         d="m 36.97,500.50927 4.25,0" /></g><g
       id="g4641" /><g
       id="g4643" /><g
       id="g4645" /><g
       id="g4647" /><g
       id="g4649" /><g
       id="g4651"
       transform="translate(0,25.6)"
       style="stroke:#000000"><path
         d="m 74.69,33.03 0,4.25"
         style="fill:none;stroke:#000000;stroke-width:1.05999994;stroke-linecap:butt;stroke-linejoin:round;stroke-miterlimit:10;stroke-opacity:1;stroke-dasharray:none"
         id="path4653"
         inkscape:connector-curvature="0" /><path
         d="m 242.05,33.03 0,4.25"
         style="fill:none;stroke:#000000;stroke-width:1.05999994;stroke-linecap:butt;stroke-linejoin:round;stroke-miterlimit:10;stroke-opacity:1;stroke-dasharray:none"
         id="path4655"
         inkscape:connector-curvature="0" /><path
         d="m 409.41,33.03 0,4.25"
         style="fill:none;stroke:#000000;stroke-width:1.05999994;stroke-linecap:butt;stroke-linejoin:round;stroke-miterlimit:10;stroke-opacity:1;stroke-dasharray:none"
         id="path4657"
         inkscape:connector-curvature="0" /><path
         d="m 576.77,33.03 0,4.25"
         style="fill:none;stroke:#000000;stroke-width:1.05999994;stroke-linecap:butt;stroke-linejoin:round;stroke-miterlimit:10;stroke-opacity:1;stroke-dasharray:none"
         id="path4659"
         inkscape:connector-curvature="0" /><path
         d="m 744.13,33.03 0,4.25"
         style="fill:none;stroke:#000000;stroke-width:1.05999994;stroke-linecap:butt;stroke-linejoin:round;stroke-miterlimit:10;stroke-opacity:1;stroke-dasharray:none"
         id="path4661"
         inkscape:connector-curvature="0" /><path
         inkscape:connector-curvature="0"
         id="path3531"
         style="fill:none;stroke:#000000;stroke-width:1.05999994;stroke-linecap:butt;stroke-linejoin:round;stroke-miterlimit:10;stroke-opacity:1;stroke-dasharray:none"
         d="m 158.03864,33.03 0,4.25" /><path
         d="m 325.39845,33.03 0,4.25"
         style="fill:none;stroke:#000000;stroke-width:1.05999994;stroke-linecap:butt;stroke-linejoin:round;stroke-miterlimit:10;stroke-opacity:1;stroke-dasharray:none"
         id="path3533"
         inkscape:connector-curvature="0" /><path
         inkscape:connector-curvature="0"
         id="path3535"
         style="fill:none;stroke:#000000;stroke-width:1.05999994;stroke-linecap:butt;stroke-linejoin:round;stroke-miterlimit:10;stroke-opacity:1;stroke-dasharray:none"
         d="m 492.75855,33.03 0,4.25" /><path
         d="m 660.11836,33.03 0,4.25"
         style="fill:none;stroke:#000000;stroke-width:1.05999994;stroke-linecap:butt;stroke-linejoin:round;stroke-miterlimit:10;stroke-opacity:1;stroke-dasharray:none"
         id="path3537"
         inkscape:connector-curvature="0" /></g><g
       id="g4663" /><g
       id="g4665"
       style="fill:#000000"
       transform="translate(0,24)"><text
   transform="matrix(1,0,0,-1,67.74,23.02)"
   id="text4667"
   style="font-size:9.60000038px;font-style:normal;font-variant:normal;font-weight:normal;font-stretch:normal;text-align:start;line-height:125%;writing-mode:lr-tb;text-anchor:start;fill:#000000;font-family:Sans;-inkscape-font-specification:Sans"
   sodipodi:linespacing="125%"><tspan
     style="font-size:9.60000038px;font-style:normal;font-variant:normal;font-weight:normal;font-stretch:normal;text-align:start;line-height:125%;writing-mode:lr-tb;text-anchor:start;fill:#000000;fill-opacity:1;fill-rule:nonzero;stroke:none;font-family:Sans;-inkscape-font-specification:Sans"
     x="0 5.5599999 8.3400002"
     y="0"
     sodipodi:role="line"
     id="tspan4669">0.0</tspan></text>




<text
   transform="matrix(1,0,0,-1,235.1,23.02)"
   id="text4671"
   style="font-size:9.60000038px;font-style:normal;font-variant:normal;font-weight:normal;font-stretch:normal;text-align:start;line-height:125%;writing-mode:lr-tb;text-anchor:start;fill:#000000;font-family:Sans;-inkscape-font-specification:Sans"
   sodipodi:linespacing="125%"><tspan
     style="font-size:9.60000038px;font-style:normal;font-variant:normal;font-weight:normal;font-stretch:normal;text-align:start;line-height:125%;writing-mode:lr-tb;text-anchor:start;fill:#000000;fill-opacity:1;fill-rule:nonzero;stroke:none;font-family:Sans;-inkscape-font-specification:Sans"
     x="0 5.5599999 8.3400002"
     y="0"
     sodipodi:role="line"
     id="tspan4673">0.2</tspan></text>




<text
   transform="matrix(1,0,0,-1,402.46,23.02)"
   id="text4675"
   style="font-size:9.60000038px;font-style:normal;font-variant:normal;font-weight:normal;font-stretch:normal;text-align:start;line-height:125%;writing-mode:lr-tb;text-anchor:start;fill:#000000;font-family:Sans;-inkscape-font-specification:Sans"
   sodipodi:linespacing="125%"><tspan
     style="font-size:9.60000038px;font-style:normal;font-variant:normal;font-weight:normal;font-stretch:normal;text-align:start;line-height:125%;writing-mode:lr-tb;text-anchor:start;fill:#000000;fill-opacity:1;fill-rule:nonzero;stroke:none;font-family:Sans;-inkscape-font-specification:Sans"
     x="0 5.5599999 8.3400002"
     y="0"
     sodipodi:role="line"
     id="tspan4677">0.4</tspan></text>




<text
   transform="matrix(1,0,0,-1,569.82,23.02)"
   id="text4679"
   style="fill:#000000"><tspan
     style="font-size:10px;font-variant:normal;font-weight:normal;writing-mode:lr-tb;fill:#000000;fill-opacity:1;fill-rule:nonzero;stroke:none;font-family:Helvetica;-inkscape-font-specification:Helvetica"
     x="0 5.5599999 8.3400002"
     y="0"
     sodipodi:role="line"
     id="tspan4681">0.6</tspan></text>




<text
   transform="matrix(1,0,0,-1,737.18,23.02)"
   id="text4683"
   style="font-size:9.60000038px;font-style:normal;font-variant:normal;font-weight:normal;font-stretch:normal;text-align:start;line-height:125%;writing-mode:lr-tb;text-anchor:start;fill:#000000;font-family:Sans;-inkscape-font-specification:Sans"
   sodipodi:linespacing="125%"><tspan
     style="font-size:9.60000038px;font-style:normal;font-variant:normal;font-weight:normal;font-stretch:normal;text-align:start;line-height:125%;writing-mode:lr-tb;text-anchor:start;fill:#000000;fill-opacity:1;fill-rule:nonzero;stroke:none;font-family:Sans;-inkscape-font-specification:Sans"
     x="0 5.5599999 8.3400002"
     y="0"
     sodipodi:role="line"
     id="tspan4685">0.8</tspan></text>




<text
   style="font-size:9.60000038px;font-style:normal;font-variant:normal;font-weight:normal;font-stretch:normal;text-align:start;line-height:125%;writing-mode:lr-tb;text-anchor:start;fill:#000000;font-family:Sans;-inkscape-font-specification:Sans"
   id="text5385"
   transform="scale(1,-1)"
   x="150.29968"
   y="-23.02"
   sodipodi:linespacing="125%"><tspan
     sodipodi:role="line"
     id="tspan5401"
     x="150.29968"
     y="-23.02">0.1</tspan></text>




<text
   y="-23.02"
   x="317.8356"
   transform="scale(1,-1)"
   id="text5389"
   style="font-size:9.60000038px;font-style:normal;font-variant:normal;font-weight:normal;font-stretch:normal;text-align:start;line-height:125%;writing-mode:lr-tb;text-anchor:start;fill:#000000;font-family:Sans;-inkscape-font-specification:Sans"
   sodipodi:linespacing="125%"><tspan
     sodipodi:role="line"
     id="tspan5403"
     x="317.8356"
     y="-23.02">0.3</tspan></text>




<text
   style="font-size:9.60000038px;font-style:normal;font-variant:normal;font-weight:normal;font-stretch:normal;text-align:start;line-height:125%;writing-mode:lr-tb;text-anchor:start;fill:#000000;font-family:Sans;-inkscape-font-specification:Sans"
   id="text5393"
   transform="scale(1,-1)"
   x="486.30096"
   y="-23.02"
   sodipodi:linespacing="125%"><tspan
     sodipodi:role="line"
     id="tspan5405"
     x="486.30096"
     y="-23.02">0.5</tspan></text>




<text
   y="-23.02"
   x="654.29889"
   transform="scale(1,-1)"
   id="text5397"
   style="font-size:9.60000038px;font-style:normal;font-variant:normal;font-weight:normal;font-stretch:normal;text-align:start;line-height:125%;writing-mode:lr-tb;text-anchor:start;fill:#000000;font-family:Sans;-inkscape-font-specification:Sans"
   sodipodi:linespacing="125%"><tspan
     sodipodi:role="line"
     id="tspan5407"
     x="654.29889"
     y="-23.02">0.7</tspan></text>




</g><g
       id="g4687" /><g
       id="g4689" /><g
       id="g4691" /><g
       id="g4693" /><g
       id="g4695"
       transform="translate(0,11.2)"><text
   transform="matrix(1,0,0,-1,317.25,10.8)"
   id="text4697"><tspan
     style="font-size:12px;font-variant:normal;font-weight:normal;writing-mode:lr-tb;fill:#000000;fill-opacity:1;fill-rule:nonzero;stroke:none;font-family:Helvetica;-inkscape-font-specification:Helvetica"
     x="0 7.4039998 14.076 18.072001 24.072001 30.743999 37.416 40.751999 47.424 54.096001 60.768002 64.103996 70.776001 74.112 77.447998 85.452003 88.788002 95.459999 101.46 107.46 114.468 121.14 127.812 131.14799 134.48399 143.14799 149.82001 156.492 163.164 167.64 170.976 177.64799"
     y="0"
     sodipodi:role="line"
     id="tspan4699">Percentage of Stock−out Reported(%)</tspan></text>




</g><g
       id="g4701" /><g
       id="g4703"
       transform="translate(8,0)"><text
   transform="matrix(0,1,1,0,19.42,212.41)"
   id="text4705"><tspan
     style="font-size:12px;font-variant:normal;font-weight:normal;writing-mode:lr-tb;fill:#000000;fill-opacity:1;fill-rule:nonzero;stroke:none;font-family:Helvetica;-inkscape-font-specification:Helvetica"
     x="0 7.5240002 13.224 19.896 23.771999 30.444 37.116001 43.787998 47.124001 55.787998 62.459999 66.335999 73.008003 76.344002 79.008003 85.68 92.351997 95.688004 102.36 105.696 109.032 117.036 120.372 127.044 133.04401 139.04401 146.052 152.724 159.396 162.73199 166.728 176.724 183.396 190.06799 193.40401 200.076 206.076"
     y="0"
     sodipodi:role="line"
     id="tspan4707">Average Duration of Stock−out(months)</tspan></text>




</g><g
       id="g4709" /><g
       id="g4711" /><g
       id="g4713" /><g
       id="g4715" /><flowRoot
       xml:space="preserve"
       id="flowRoot5353"
       style="font-size:40px;font-style:normal;font-weight:normal;line-height:125%;letter-spacing:0px;word-spacing:0px;fill:#000000;fill-opacity:1;stroke:none;font-family:Sans"
       transform="matrix(0.8,0,0,-0.8,27.2,596)"><flowRegion
         id="flowRegion5355"><rect
           id="rect5357"
           width="324.87805"
           height="46.097561"
           x="645.36584"
           y="705.73169" /></flowRegion><flowPara
         id="flowPara5359"
         style="font-size:10px;font-style:normal;font-variant:normal;font-weight:normal;font-stretch:normal;text-align:start;line-height:125%;writing-mode:lr-tb;text-anchor:start;font-family:Sans;-inkscape-font-specification:Sans">Authors: David S Opoku &amp; Benjamin Schreiber | Jan 2014</flowPara><flowPara
         style="font-size:10px;font-style:normal;font-variant:normal;font-weight:normal;font-stretch:normal;text-align:start;line-height:125%;writing-mode:lr-tb;text-anchor:start;font-family:Sans;-inkscape-font-specification:Sans"
         id="flowPara5363">Data source: 2012 WHO Joint Reporting Form | Patrick Lydon</flowPara><flowPara
         style="font-size:10px;font-style:normal;font-variant:normal;font-weight:normal;font-stretch:normal;text-align:start;line-height:125%;writing-mode:lr-tb;text-anchor:start;font-family:Sans;-inkscape-font-specification:Sans"
         id="flowPara5361" /></flowRoot><flowRoot
       xml:space="preserve"
       id="flowRoot5365"
       style="font-size:21.6355381px;font-style:normal;font-variant:normal;font-weight:normal;font-stretch:normal;text-align:start;line-height:125%;letter-spacing:0px;word-spacing:0px;writing-mode:lr-tb;text-anchor:start;fill:#000000;fill-opacity:1;stroke:none;font-family:Sans;-inkscape-font-specification:Sans"
       transform="matrix(0.84040226,0,0,-0.8,-9.3080557,636)"><flowRegion
         id="flowRegion5367"><rect
           id="rect5369"
           width="830.85364"
           height="93.292679"
           x="98.780487"
           y="40.609756"
           style="font-size:21.6355381px;font-style:normal;font-variant:normal;font-weight:normal;font-stretch:normal;text-align:start;line-height:125%;writing-mode:lr-tb;text-anchor:start;font-family:Sans;-inkscape-font-specification:Sans" /></flowRegion><flowPara
         id="flowPara5371"
         style="font-size:21.6355381px;font-style:normal;font-variant:normal;font-weight:normal;font-stretch:normal;text-align:start;line-height:125%;writing-mode:lr-tb;text-anchor:start;font-family:Sans;-inkscape-font-specification:Sans">GAVI-eligible countries that had <flowSpan
   style="font-weight:bold"
   id="flowSpan5379">0.375% or more DTP stock-outs</flowSpan> or an average of <flowSpan
   style="font-weight:bold"
   id="flowSpan5381">3 or more months</flowSpan> stock-outs from <flowSpan
   style="font-weight:bold"
   id="flowSpan5383">2005 to 2012</flowSpan>. 18 countries out of 72 fit this profile.  </flowPara></flowRoot></g></svg>