<?xml version="1.0" encoding="UTF-8" standalone="no"?>
<!-- Created with Inkscape (http://www.inkscape.org/) -->

<svg
   xmlns:dc="http://purl.org/dc/elements/1.1/"
   xmlns:cc="http://creativecommons.org/ns#"
   xmlns:rdf="http://www.w3.org/1999/02/22-rdf-syntax-ns#"
   xmlns:svg="http://www.w3.org/2000/svg"
   xmlns="http://www.w3.org/2000/svg"
   xmlns:sodipodi="http://sodipodi.sourceforge.net/DTD/sodipodi-0.dtd"
   xmlns:inkscape="http://www.inkscape.org/namespaces/inkscape"
   id="svg5654"
   version="1.1"
   inkscape:version="0.48.3.1 r9886"
   width="990"
   height="765"
   xml:space="preserve"
   sodipodi:docname="NSO_DTP_GAVI_MIN3_SameSize_draft.pdf"><metadata
     id="metadata5660"><rdf:RDF><cc:Work
         rdf:about=""><dc:format>image/svg+xml</dc:format><dc:type
           rdf:resource="http://purl.org/dc/dcmitype/StillImage" /><dc:title></dc:title></cc:Work></rdf:RDF></metadata><defs
     id="defs5658"><clipPath
       clipPathUnits="userSpaceOnUse"
       id="clipPath5672"><path
         d="M 0,0 792,0 792,612 0,612 0,0 z"
         id="path5674" /></clipPath><clipPath
       clipPathUnits="userSpaceOnUse"
       id="clipPath5688"><path
         d="m 41.22,37.28 736.38,0 0,560.32 -736.38,0 0,-560.32 z"
         id="path5690" /></clipPath></defs><sodipodi:namedview
     pagecolor="#ffffff"
     bordercolor="#666666"
     borderopacity="1"
     objecttolerance="10"
     gridtolerance="10"
     guidetolerance="10"
     inkscape:pageopacity="0"
     inkscape:pageshadow="2"
     inkscape:window-width="1440"
     inkscape:window-height="876"
     id="namedview5656"
     showgrid="false"
     inkscape:zoom="0.91111111"
     inkscape:cx="486.62049"
     inkscape:cy="404.11827"
     inkscape:window-x="0"
     inkscape:window-y="24"
     inkscape:window-maximized="1"
     inkscape:current-layer="g5662" /><g
     id="g5662"
     inkscape:groupmode="layer"
     inkscape:label="NSO_DTP_GAVI_MIN3_SameSize_draft"
     transform="matrix(1.25,0,0,-1.25,0,765)"><g
       id="g5664" /><g
       id="g5666" /><g
       id="g5678" /><g
       id="g5680" /><g
       id="g5682" /><g
       id="g5684"><g
         id="g5686"
         clip-path="url(#clipPath5688)"><path
   d="m 186.27,63.171901 0,474.524309"
   style="fill:#4d4d4d;stroke:#4d4d4d;stroke-width:0.39681667;stroke-linecap:butt;stroke-linejoin:round;stroke-miterlimit:10;stroke-opacity:1;stroke-dasharray:0.79363337, 1.58726673;stroke-dashoffset:0.31745267"
   id="path5700"
   inkscape:connector-curvature="0" /><path
   d="m 409.41,63.171901 0,474.524309"
   style="fill:#000000;stroke:#000000;stroke-width:1.3912;stroke-linecap:butt;stroke-linejoin:round;stroke-miterlimit:10;stroke-opacity:1;stroke-dasharray:2.7824,5.5648;stroke-dashoffset:1.11295766"
   id="path5702"
   inkscape:connector-curvature="0" /><path
   d="m 632.56,62.294205 0,474.963155"
   style="fill:#4d4d4d;stroke:#4d4d4d;stroke-width:0.39700013;stroke-linecap:butt;stroke-linejoin:round;stroke-miterlimit:10;stroke-opacity:1;stroke-dasharray:0.79400026, 1.58800052;stroke-dashoffset:0.31759943"
   id="path5704"
   inkscape:connector-curvature="0" /><path
   d="M 74.122915,62.75 777.6,62.75"
   style="fill:#000000;stroke:#000000;stroke-width:1.04699492;stroke-linecap:butt;stroke-linejoin:round;stroke-miterlimit:10;stroke-opacity:1;stroke-dasharray:none;stroke-dashoffset:0.34496"
   id="path5706"
   inkscape:connector-curvature="0" /><path
   d="m 74.137195,244.67 669.324945,0"
   style="fill:#666666;stroke:#666666;stroke-width:0.41109884;stroke-linecap:butt;stroke-linejoin:round;stroke-miterlimit:10;stroke-opacity:1;stroke-dasharray:0.82219771, 1.64439542;stroke-dashoffset:0.32887908"
   id="path5708"
   inkscape:connector-curvature="0" /><path
   d="m 74.137195,426.59 669.945635,0"
   style="fill:#4d4d4d;stroke:#4d4d4d;stroke-width:0.41128942;stroke-linecap:butt;stroke-linejoin:round;stroke-miterlimit:10;stroke-opacity:1;stroke-dasharray:0.82257885, 1.64515769;stroke-dashoffset:0.32903153"
   id="path5710"
   inkscape:connector-curvature="0" /><path
   d="m 74.69,61.840549 0,475.889791"
   style="fill:#000000;stroke:#000000;stroke-width:0.98720133;stroke-linecap:butt;stroke-linejoin:round;stroke-miterlimit:10;stroke-opacity:1;stroke-dasharray:none;stroke-dashoffset:0.85695813"
   id="path5712"
   inkscape:connector-curvature="0" /><path
   d="m 297.84,62.733058 0,475.182582"
   style="fill:#4d4d4d;stroke:#4d4d4d;stroke-width:0.39709181;stroke-linecap:butt;stroke-linejoin:round;stroke-miterlimit:10;stroke-opacity:1;stroke-dasharray:0.79418365, 1.5883673;stroke-dashoffset:0.31767279"
   id="path5714"
   inkscape:connector-curvature="0" /><path
   d="m 520.98,61.855362 0,475.621418"
   style="fill:#4d4d4d;stroke:#4d4d4d;stroke-width:0.39727515;stroke-linecap:butt;stroke-linejoin:round;stroke-miterlimit:10;stroke-opacity:1;stroke-dasharray:0.79455028, 1.58910058;stroke-dashoffset:0.31781944"
   id="path5716"
   inkscape:connector-curvature="0" /><path
   d="m 744.13,62.294207 0,475.104143"
   style="fill:#4d4d4d;stroke:#4d4d4d;stroke-width:0.39705905;stroke-linecap:butt;stroke-linejoin:round;stroke-miterlimit:10;stroke-opacity:1;stroke-dasharray:1.58823621, 0.7941181;stroke-dashoffset:0.31764658"
   id="path5718"
   inkscape:connector-curvature="0" /><path
   d="m 404.1,99.14 c 0,2.92 2.39,5.31 5.31,5.31 2.92,0 5.32,-2.39 5.32,-5.31 0,-2.93 -2.4,-5.32 -5.32,-5.32 -2.92,0 -5.31,2.39 -5.31,5.32"
   style="fill:#214478;fill-opacity:1;fill-rule:nonzero;stroke:none"
   id="path5720" /><path
   d="m 180.95,171.9 c 0,2.93 2.39,5.32 5.32,5.32 2.92,0 5.31,-2.39 5.31,-5.32 0,-2.92 -2.39,-5.31 -5.31,-5.31 -2.93,0 -5.32,2.39 -5.32,5.31"
   style="fill:#214478;fill-opacity:1;fill-rule:nonzero;stroke:none"
   id="path5722" /><path
   d="m 515.67,135.52 c 0,2.92 2.39,5.32 5.31,5.32 2.93,0 5.32,-2.4 5.32,-5.32 0,-2.92 -2.39,-5.31 -5.32,-5.31 -2.92,0 -5.31,2.39 -5.31,5.31"
   style="fill:#214478;fill-opacity:1;fill-rule:nonzero;stroke:none"
   id="path5724" /><path
   d="m 404.1,99.14 c 0,2.92 2.39,5.31 5.31,5.31 2.92,0 5.32,-2.39 5.32,-5.31 0,-2.93 -2.4,-5.32 -5.32,-5.32 -2.92,0 -5.31,2.39 -5.31,5.32"
   style="fill:#214478;fill-opacity:1;fill-rule:nonzero;stroke:none"
   id="path5726" /><path
   d="m 404.1,99.14 c 0,2.92 2.39,5.31 5.31,5.31 2.92,0 5.32,-2.39 5.32,-5.31 0,-2.93 -2.4,-5.32 -5.32,-5.32 -2.92,0 -5.31,2.39 -5.31,5.32"
   style="fill:#214478;fill-opacity:1;fill-rule:nonzero;stroke:none"
   id="path5728" /><path
   d="m 404.1,99.14 c 0,2.92 2.39,5.31 5.31,5.31 2.92,0 5.32,-2.39 5.32,-5.31 0,-2.93 -2.4,-5.32 -5.32,-5.32 -2.92,0 -5.31,2.39 -5.31,5.32"
   style="fill:#214478;fill-opacity:1;fill-rule:nonzero;stroke:none"
   id="path5730" /><path
   d="m 515.67,99.14 c 0,2.92 2.39,5.31 5.31,5.31 2.93,0 5.32,-2.39 5.32,-5.31 0,-2.93 -2.39,-5.32 -5.32,-5.32 -2.92,0 -5.31,2.39 -5.31,5.32"
   style="fill:#214478;fill-opacity:1;fill-rule:nonzero;stroke:none"
   id="path5732" /><path
   d="m 292.52,499.36 c 0,2.93 2.4,5.32 5.32,5.32 2.92,0 5.31,-2.39 5.31,-5.32 0,-2.92 -2.39,-5.31 -5.31,-5.31 -2.92,0 -5.32,2.39 -5.32,5.31"
   style="fill:#214478;fill-opacity:1;fill-rule:nonzero;stroke:none"
   id="path5734" /><path
   d="m 404.1,99.14 c 0,2.92 2.39,5.31 5.31,5.31 2.92,0 5.32,-2.39 5.32,-5.31 0,-2.93 -2.4,-5.32 -5.32,-5.32 -2.92,0 -5.31,2.39 -5.31,5.32"
   style="fill:#214478;fill-opacity:1;fill-rule:nonzero;stroke:none"
   id="path5736" /><path
   d="m 404.1,99.14 c 0,2.92 2.39,5.31 5.31,5.31 2.92,0 5.32,-2.39 5.32,-5.31 0,-2.93 -2.4,-5.32 -5.32,-5.32 -2.92,0 -5.31,2.39 -5.31,5.32"
   style="fill:#214478;fill-opacity:1;fill-rule:nonzero;stroke:none"
   id="path5738" /><path
   d="m 292.52,171.9 c 0,2.93 2.4,5.32 5.32,5.32 2.92,0 5.31,-2.39 5.31,-5.32 0,-2.92 -2.39,-5.31 -5.31,-5.31 -2.92,0 -5.32,2.39 -5.32,5.31"
   style="fill:#214478;fill-opacity:1;fill-rule:nonzero;stroke:none"
   id="path5740" /><path
   d="m 180.95,244.67 c 0,2.93 2.39,5.32 5.32,5.32 2.92,0 5.31,-2.39 5.31,-5.32 0,-2.92 -2.39,-5.31 -5.31,-5.31 -2.93,0 -5.32,2.39 -5.32,5.31"
   style="fill:#214478;fill-opacity:1;fill-rule:nonzero;stroke:none"
   id="path5742" /><path
   d="m 180.95,171.9 c 0,2.93 2.39,5.32 5.32,5.32 2.92,0 5.31,-2.39 5.31,-5.32 0,-2.92 -2.39,-5.31 -5.31,-5.31 -2.93,0 -5.32,2.39 -5.32,5.31"
   style="fill:#214478;fill-opacity:1;fill-rule:nonzero;stroke:none"
   id="path5744" /><path
   d="m 404.1,99.14 c 0,2.92 2.39,5.31 5.31,5.31 2.92,0 5.32,-2.39 5.32,-5.31 0,-2.93 -2.4,-5.32 -5.32,-5.32 -2.92,0 -5.31,2.39 -5.31,5.32"
   style="fill:#214478;fill-opacity:1;fill-rule:nonzero;stroke:none"
   id="path5746" /><path
   d="m 180.95,171.9 c 0,2.93 2.39,5.32 5.32,5.32 2.92,0 5.31,-2.39 5.31,-5.32 0,-2.92 -2.39,-5.31 -5.31,-5.31 -2.93,0 -5.32,2.39 -5.32,5.31"
   style="fill:#214478;fill-opacity:1;fill-rule:nonzero;stroke:none"
   id="path5748" /><path
   d="m 627.24,99.14 c 0,2.92 2.39,5.31 5.32,5.31 2.92,0 5.31,-2.39 5.31,-5.31 0,-2.93 -2.39,-5.32 -5.31,-5.32 -2.93,0 -5.32,2.39 -5.32,5.32"
   style="fill:#214478;fill-opacity:1;fill-rule:nonzero;stroke:none"
   id="path5750" /><path
   d="m 292.52,171.9 c 0,2.93 2.4,5.32 5.32,5.32 2.92,0 5.31,-2.39 5.31,-5.32 0,-2.92 -2.39,-5.31 -5.31,-5.31 -2.92,0 -5.32,2.39 -5.32,5.31"
   style="fill:#214478;fill-opacity:1;fill-rule:nonzero;stroke:none"
   id="path5752" /><text
   transform="scale(1,-1)"
   id="text5754"
   x="422.82016"
   y="-144.79005"><tspan
     style="font-size:11px;font-variant:normal;font-weight:normal;writing-mode:lr-tb;fill:#000000;fill-opacity:1;fill-rule:nonzero;stroke:none;font-family:Helvetica;-inkscape-font-specification:Helvetica"
     x="422.82016 430.15717 434.09515 443.25818 449.37418 455.49017 457.93216 464.04816 467.10617 473.22217 476.28015"
     y="-144.79005"
     sodipodi:role="line"
     id="tspan5756">Armenia,3,1</tspan></text>



<text
   transform="scale(1,-1)"
   id="text5758"
   x="196.31013"
   y="-196.7601"><tspan
     style="font-size:11px;font-variant:normal;font-weight:normal;writing-mode:lr-tb;fill:#000000;fill-opacity:1;fill-rule:nonzero;stroke:none;font-family:Helvetica;-inkscape-font-specification:Helvetica"
     x="196.31013 204.25214 210.36813 216.48413 222.60013 228.27614 231.33414 237.45013 240.50813"
     y="-196.7601"
     sodipodi:role="line"
     id="tspan5760">Congo,1,3</tspan></text>



<text
   transform="scale(1,-1)"
   id="text5762"
   x="530.65979"
   y="-131.57001"><tspan
     style="font-size:11px;font-variant:normal;font-weight:normal;writing-mode:lr-tb;fill:#000000;fill-opacity:1;fill-rule:nonzero;stroke:none;font-family:Helvetica;-inkscape-font-specification:Helvetica"
     x="530.65979 538.60162 544.71753 550.83356 556.94952 560.00751 566.12354 569.18152"
     y="-131.57001"
     sodipodi:role="line"
     id="tspan5764">Cuba,4,2</tspan></text>



<text
   transform="scale(1,-1)"
   id="text5766"
   x="420.87039"
   y="-66.39003"><tspan
     style="font-size:11px;font-variant:normal;font-weight:normal;writing-mode:lr-tb;fill:#000000;fill-opacity:1;fill-rule:nonzero;stroke:none;font-family:Helvetica;-inkscape-font-specification:Helvetica"
     x="420.87039 428.81241 434.92841 444.0914 450.2074 455.7074 459.26041 465.3764 468.43439 470.8764 476.3764 479.43439 487.3764 493.4924 499.6084 505.7244 511.62039 514.06238 516.50433 522.00421 525.06213 531.17804 534.23596 537.29395 540.35187 546.46777 552.58362 555.64154 563.58344 569.69928 575.81519 581.93109 587.60693 590.66492 596.78082 599.83875"
     y="-66.39003"
     sodipodi:role="line"
     id="tspan5768">Democratic Republic of the Congo,3,1</tspan></text>



<text
   transform="scale(1,-1)"
   id="text5770"
   x="422.27014"
   y="-131.99001"><tspan
     style="font-size:11px;font-variant:normal;font-weight:normal;writing-mode:lr-tb;fill:#000000;fill-opacity:1;fill-rule:nonzero;stroke:none;font-family:Helvetica;-inkscape-font-specification:Helvetica"
     x="422.27014 430.82816 436.94415 443.06015 446.72314 452.83914 455.28116 461.39716 464.45514 470.57114 473.62915"
     y="-131.99001"
     sodipodi:role="line"
     id="tspan5772">Georgia,3,1</tspan></text>



<text
   transform="scale(1,-1)"
   id="text5774"
   x="422.79019"
   y="-119.18999"><tspan
     style="font-size:11px;font-variant:normal;font-weight:normal;writing-mode:lr-tb;fill:#000000;fill-opacity:1;fill-rule:nonzero;stroke:none;font-family:Helvetica;-inkscape-font-specification:Helvetica"
     x="422.79019 425.84818 431.96417 438.08017 444.19617 450.31216 456.42819 461.92819 464.37018 470.48618 473.54419 479.66019 482.71817"
     y="-119.18999"
     sodipodi:role="line"
     id="tspan5776">Indonesia,3,1</tspan></text>



<text
   transform="scale(1,-1)"
   id="text5778"
   x="531.82977"
   y="-95.190002"><tspan
     style="font-size:11px;font-variant:normal;font-weight:normal;writing-mode:lr-tb;fill:#000000;fill-opacity:1;fill-rule:nonzero;stroke:none;font-family:Helvetica;-inkscape-font-specification:Helvetica"
     x="531.82977 538.72662 544.84253 550.79352 556.07349 562.18951 565.2475 571.36346 574.42151"
     y="-95.190002"
     sodipodi:role="line"
     id="tspan5780">Kenya,4,1</tspan></text>



<text
   transform="scale(1,-1)"
   id="text5782"
   x="310.32016"
   y="-503.41003"><tspan
     style="font-size:11px;font-variant:normal;font-weight:normal;writing-mode:lr-tb;fill:#000000;fill-opacity:1;fill-rule:nonzero;stroke:none;font-family:Helvetica;-inkscape-font-specification:Helvetica"
     x="310.32016 317.65717 320.09915 323.92715 326.36914 332.48517 338.60117 341.65915 344.10117 347.15915 353.27515 356.33316 362.44916"
     y="-503.41003"
     sodipodi:role="line"
     id="tspan5784">Kiribati,2,12</tspan></text>



<text
   transform="scale(1,-1)"
   id="text5786"
   x="421.6402"
   y="-91.989998"><tspan
     style="font-size:11px;font-variant:normal;font-weight:normal;writing-mode:lr-tb;fill:#000000;fill-opacity:1;fill-rule:nonzero;stroke:none;font-family:Helvetica;-inkscape-font-specification:Helvetica"
     x="421.6402 430.80319 436.91919 442.41919 448.53519 457.69821 463.81421 466.2562 472.37219 478.48819 484.43921 487.49719 493.61319 496.6712"
     y="-91.989998"
     sodipodi:role="line"
     id="tspan5788">Mozambique,3,1</tspan></text>



<text
   transform="scale(1,-1)"
   id="text5790"
   x="422.67014"
   y="-79.19001"><tspan
     style="font-size:11px;font-variant:normal;font-weight:normal;writing-mode:lr-tb;fill:#000000;fill-opacity:1;fill-rule:nonzero;stroke:none;font-family:Helvetica;-inkscape-font-specification:Helvetica"
     x="422.67014 430.61215 436.72815 442.84415 448.96014 451.40213 454.46014 460.57614 463.63416"
     y="-79.19001"
     sodipodi:role="line"
     id="tspan5792">Nepal,3,1</tspan></text>



<text
   transform="scale(1,-1)"
   id="text5794"
   x="309.40012"
   y="-174.36003"><tspan
     style="font-size:11px;font-variant:normal;font-weight:normal;writing-mode:lr-tb;fill:#000000;fill-opacity:1;fill-rule:nonzero;stroke:none;font-family:Helvetica;-inkscape-font-specification:Helvetica"
     x="309.40012 317.34213 319.78412 325.90012 332.01611 335.12912 338.18713 344.30313 347.36111"
     y="-174.36003"
     sodipodi:role="line"
     id="tspan5796">Niger,2,3</tspan></text>



<text
   transform="scale(1,-1)"
   id="text5798"
   x="195.33025"
   y="-245.52002"><tspan
     style="font-size:11px;font-variant:normal;font-weight:normal;writing-mode:lr-tb;fill:#000000;fill-opacity:1;fill-rule:nonzero;stroke:none;font-family:Helvetica;-inkscape-font-specification:Helvetica"
     x="195.33025 202.22725 208.34325 214.45924 220.57524 226.69124 229.74924 237.69124 243.58725 251.52925 254.58725 263.14523 269.26123 271.70325 277.81924 283.93524 290.05124 293.10922 299.22522 302.28323"
     y="-245.52002"
     sodipodi:role="line"
     id="tspan5800">Papua New Guinea,1,5</tspan></text>



<text
   transform="scale(1,-1)"
   id="text5802"
   x="195.63014"
   y="-185.56006"><tspan
     style="font-size:11px;font-variant:normal;font-weight:normal;writing-mode:lr-tb;fill:#000000;fill-opacity:1;fill-rule:nonzero;stroke:none;font-family:Helvetica;-inkscape-font-specification:Helvetica"
     x="195.63014 202.96715 209.08315 218.24614 224.36215 226.80415 229.24615 235.36215 238.42015 244.53615 247.59415"
     y="-185.56006"
     sodipodi:role="line"
     id="tspan5804">Somalia,1,3</tspan></text>



<text
   transform="scale(1,-1)"
   id="text5806"
   x="421.48016"
   y="-106.38999"><tspan
     style="font-size:11px;font-variant:normal;font-weight:normal;writing-mode:lr-tb;fill:#000000;fill-opacity:1;fill-rule:nonzero;stroke:none;font-family:Helvetica;-inkscape-font-specification:Helvetica"
     x="421.48016 426.88116 432.99716 439.11316 444.61316 450.72916 456.84515 459.28717 465.40317 468.46115 474.57718 477.63516"
     y="-106.38999"
     sodipodi:role="line"
     id="tspan5808">Tanzania,3,1</tspan></text>



<text
   transform="scale(1,-1)"
   id="text5810"
   x="195.08014"
   y="-174.36003"><tspan
     style="font-size:11px;font-variant:normal;font-weight:normal;writing-mode:lr-tb;fill:#000000;fill-opacity:1;fill-rule:nonzero;stroke:none;font-family:Helvetica;-inkscape-font-specification:Helvetica"
     x="195.08014 203.02214 208.52214 212.07513 218.19113 220.63313 226.74913 232.70013 235.75813 241.87413 244.93213"
     y="-174.36003"
     sodipodi:role="line"
     id="tspan5812">Ukraine,1,3</tspan></text>



<text
   transform="scale(1,-1)"
   id="text5814"
   x="640.97937"
   y="-95.190002"><tspan
     style="font-size:11px;font-variant:normal;font-weight:normal;writing-mode:lr-tb;fill:#000000;fill-opacity:1;fill-rule:nonzero;stroke:none;font-family:Helvetica;-inkscape-font-specification:Helvetica"
     x="640.97937 648.92133 654.42133 660.53735 666.65332 672.15332 674.59534 680.09534 683.15332 689.26935 695.38531 698.44336 704.55933 707.61737"
     y="-95.190002"
     sodipodi:role="line"
     id="tspan5816">Uzbekistan,5,1</tspan></text>



<text
   transform="scale(1,-1)"
   id="text5818"
   x="363.65036"
   y="-174.36003"><tspan
     style="font-size:11px;font-variant:normal;font-weight:normal;writing-mode:lr-tb;fill:#000000;fill-opacity:1;fill-rule:nonzero;stroke:none;font-family:Helvetica;-inkscape-font-specification:Helvetica"
     x="363.65036 370.98737 373.42935 379.54538 382.60336 385.66138 393.60336 399.71936 408.88235 411.94037 418.05637 421.11438"
     y="-174.36003"
     sodipodi:role="line"
     id="tspan5820">Viet Nam,2,3</tspan></text>



<path
   id="path6428"
   style="fill:#666666;stroke:#666666;stroke-width:0.41119415;stroke-linecap:butt;stroke-linejoin:round;stroke-miterlimit:10;stroke-opacity:1;stroke-dasharray:0.8223883, 1.6447766;stroke-dashoffset:0.32895532"
   d="m 74.137195,208.286 669.635285,0"
   inkscape:connector-curvature="0" /><path
   inkscape:connector-curvature="0"
   d="m 74.356642,171.902 669.415848,0"
   style="fill:#000000;stroke:#000000;stroke-width:1.3912;stroke-linecap:butt;stroke-linejoin:round;stroke-miterlimit:10;stroke-opacity:1;stroke-dasharray:2.7824,5.5648;stroke-dashoffset:1.11296"
   id="path6430" /><path
   id="path6432"
   style="fill:#666666;stroke:#666666;stroke-width:0.41128942;stroke-linecap:butt;stroke-linejoin:round;stroke-miterlimit:10;stroke-opacity:1;stroke-dasharray:0.82257885, 1.64515769;stroke-dashoffset:0.32903153"
   d="m 74.137195,135.518 669.945635,0"
   inkscape:connector-curvature="0" /><path
   inkscape:connector-curvature="0"
   d="m 74.57609,99.133998 669.1964,0"
   style="fill:#666666;stroke:#666666;stroke-width:0.41105938;stroke-linecap:butt;stroke-linejoin:round;stroke-miterlimit:10;stroke-opacity:1;stroke-dasharray:0.82211875, 1.6442375;stroke-dashoffset:0.3288475"
   id="path6434" /><path
   id="path6436"
   style="fill:#666666;stroke:#666666;stroke-width:0.41112676;stroke-linecap:butt;stroke-linejoin:round;stroke-miterlimit:10;stroke-opacity:1;stroke-dasharray:0.82225353, 1.64450707;stroke-dashoffset:0.32890141"
   d="m 74.356642,281.054 669.415848,0"
   inkscape:connector-curvature="0" /><path
   inkscape:connector-curvature="0"
   d="m 74.137195,317.438 669.945635,0"
   style="fill:#666666;stroke:#666666;stroke-width:0.41128942;stroke-linecap:butt;stroke-linejoin:round;stroke-miterlimit:10;stroke-opacity:1;stroke-dasharray:0.82257885, 1.64515769;stroke-dashoffset:0.32903153"
   id="path6438" /><path
   id="path6440"
   style="fill:#666666;stroke:#666666;stroke-width:0.41112676;stroke-linecap:butt;stroke-linejoin:round;stroke-miterlimit:10;stroke-opacity:1;stroke-dasharray:0.82225353, 1.64450707;stroke-dashoffset:0.32890141"
   d="m 74.356642,353.822 669.415848,0"
   inkscape:connector-curvature="0" /><path
   inkscape:connector-curvature="0"
   d="m 74.137195,390.206 669.324945,0"
   style="fill:#666666;stroke:#666666;stroke-width:0.41109884;stroke-linecap:butt;stroke-linejoin:round;stroke-miterlimit:10;stroke-opacity:1;stroke-dasharray:0.82219771, 1.64439542;stroke-dashoffset:0.32887908"
   id="path6442" /><path
   inkscape:connector-curvature="0"
   id="path6456"
   style="fill:#4d4d4d;stroke:#4d4d4d;stroke-width:0.41119415;stroke-linecap:butt;stroke-linejoin:round;stroke-miterlimit:10;stroke-opacity:1;stroke-dasharray:0.8223883, 1.6447766;stroke-dashoffset:0.32895532"
   d="m 74.137195,463.39 669.635285,0" /><path
   d="m 73.917747,500.19 669.854733,0"
   style="fill:#4d4d4d;stroke:#4d4d4d;stroke-width:0.41126153;stroke-linecap:butt;stroke-linejoin:round;stroke-miterlimit:10;stroke-opacity:1;stroke-dasharray:0.82252304, 1.64504607;stroke-dashoffset:0.32900922"
   id="path6460"
   inkscape:connector-curvature="0" /><path
   inkscape:connector-curvature="0"
   id="path6464"
   style="fill:#4d4d4d;stroke:#4d4d4d;stroke-width:0.41119415;stroke-linecap:butt;stroke-linejoin:round;stroke-miterlimit:10;stroke-opacity:1;stroke-dasharray:0.8223883, 1.6447766;stroke-dashoffset:0.32895532"
   d="m 74.137195,536.99 669.635285,0" /></g></g><g
       id="g5822" /><g
       id="g5824" /><g
       id="g5826"
       transform="translate(28.8,1.6)"><text
   transform="scale(1,-1)"
   id="text5828"
   style="fill:#000000"
   x="23.02"
   y="-59.16"><tspan
     style="font-size:10px;font-variant:normal;font-weight:normal;writing-mode:lr-tb;fill:#000000;fill-opacity:1;fill-rule:nonzero;stroke:none;font-family:Helvetica;-inkscape-font-specification:Helvetica"
     x="23.02"
     y="-59.16"
     id="tspan5830">0</tspan></text>



<text
   transform="scale(1,-1)"
   id="text5836"
   style="font-size:10.39999962px;font-style:normal;font-variant:normal;font-weight:normal;font-stretch:normal;text-align:start;line-height:125%;writing-mode:lr-tb;text-anchor:start;fill:#000000;font-family:Sans;-inkscape-font-specification:Sans"
   sodipodi:linespacing="125%"
   x="23.02"
   y="-422.36234"><tspan
     style="font-size:10.39999962px;font-style:normal;font-variant:normal;font-weight:normal;font-stretch:normal;text-align:start;line-height:125%;writing-mode:lr-tb;text-anchor:start;fill:#000000;fill-opacity:1;fill-rule:nonzero;stroke:none;font-family:Sans;-inkscape-font-specification:Sans"
     x="23.02 28.58"
     y="-422.36234"
     sodipodi:role="line"
     id="tspan5838">10</tspan></text>



<text
   id="text6502"
   transform="scale(1,-1)"
   x="23.02"
   y="-349.65073"
   style="font-size:10.39999962px;font-style:normal;font-variant:normal;font-weight:normal;font-stretch:normal;text-align:start;line-height:125%;writing-mode:lr-tb;text-anchor:start;fill:#000000;font-family:Sans;-inkscape-font-specification:Sans"
   sodipodi:linespacing="125%"><tspan
     sodipodi:role="line"
     id="tspan6551"
     x="23.02"
     y="-349.65073">8</tspan></text>



<text
   y="-276.93912"
   x="23.02"
   transform="scale(1,-1)"
   id="text6506"
   style="font-size:10.39999962px;font-style:normal;font-variant:normal;font-weight:normal;font-stretch:normal;text-align:start;line-height:125%;writing-mode:lr-tb;text-anchor:start;fill:#000000;font-family:Sans;-inkscape-font-specification:Sans"
   sodipodi:linespacing="125%"><tspan
     sodipodi:role="line"
     id="tspan6549"
     x="23.02"
     y="-276.93912">6</tspan></text>



<text
   id="text6510"
   transform="scale(1,-1)"
   x="23.02"
   y="-495.00031"
   style="font-size:10.39999962px;font-style:normal;font-variant:normal;font-weight:normal;font-stretch:normal;text-align:start;line-height:125%;writing-mode:lr-tb;text-anchor:start;fill:#000000;font-family:Sans;-inkscape-font-specification:Sans"
   sodipodi:linespacing="125%"><tspan
     sodipodi:role="line"
     id="tspan6547"
     x="23.02"
     y="-495.00031">12</tspan></text>



<text
   id="text6533"
   transform="scale(1,-1)"
   style="font-size:10.39999962px;font-style:normal;font-variant:normal;font-weight:normal;font-stretch:normal;text-align:start;line-height:125%;writing-mode:lr-tb;text-anchor:start;fill:#000000;font-family:Sans;-inkscape-font-specification:Sans"
   sodipodi:linespacing="125%"
   x="23.02"
   y="-204.22241"><tspan
     sodipodi:role="line"
     id="tspan6543"
     x="23.02"
     y="-204.22241">4</tspan></text>



<text
   transform="scale(1,-1)"
   id="text6537"
   x="23.02"
   y="-131.44225"
   style="font-size:10.39999962px;font-style:normal;font-variant:normal;font-weight:normal;font-stretch:normal;text-align:start;line-height:125%;writing-mode:lr-tb;text-anchor:start;fill:#000000;font-family:Sans;-inkscape-font-specification:Sans"
   sodipodi:linespacing="125%"><tspan
     sodipodi:role="line"
     id="tspan6541"
     x="23.02"
     y="-131.44225">2</tspan></text>



</g><g
       id="g5840" /><g
       id="g5842"
       transform="translate(33.6,0)"
       style="fill:#000000;stroke:#000000"><path
         d="m 36.97,62.75 4.25,0"
         style="fill:#000000;stroke:#000000;stroke-width:1.05999994;stroke-linecap:butt;stroke-linejoin:round;stroke-miterlimit:10;stroke-opacity:1;stroke-dasharray:none"
         id="path5844"
         inkscape:connector-curvature="0" /><path
         d="m 36.97,281.30781 4.25,0"
         style="fill:#000000;stroke:#000000;stroke-width:1.05999994;stroke-linecap:butt;stroke-linejoin:round;stroke-miterlimit:10;stroke-opacity:1;stroke-dasharray:none"
         id="path5846"
         inkscape:connector-curvature="0" /><path
         d="m 36.97,427.01301 4.25,0"
         style="fill:#000000;stroke:#000000;stroke-width:1.05999994;stroke-linecap:butt;stroke-linejoin:round;stroke-miterlimit:10;stroke-opacity:1;stroke-dasharray:none"
         id="path5848"
         inkscape:connector-curvature="0" /><path
         inkscape:connector-curvature="0"
         id="path6474"
         style="fill:#000000;stroke:#000000;stroke-width:1.05999994;stroke-linecap:butt;stroke-linejoin:round;stroke-miterlimit:10;stroke-opacity:1;stroke-dasharray:none"
         d="m 36.97,354.16043 4.25,0" /><path
         d="m 36.97,135.60261 4.25,0"
         style="fill:#000000;stroke:#000000;stroke-width:1.05999994;stroke-linecap:butt;stroke-linejoin:round;stroke-miterlimit:10;stroke-opacity:1;stroke-dasharray:none"
         id="path6476"
         inkscape:connector-curvature="0" /><path
         inkscape:connector-curvature="0"
         id="path6478"
         style="fill:#000000;stroke:#000000;stroke-width:1.05999994;stroke-linecap:butt;stroke-linejoin:round;stroke-miterlimit:10;stroke-opacity:1;stroke-dasharray:none"
         d="m 36.97,208.4552 4.25,0" /><path
         inkscape:connector-curvature="0"
         id="path6480"
         style="fill:#000000;stroke:#000000;stroke-width:1.05999994;stroke-linecap:butt;stroke-linejoin:round;stroke-miterlimit:10;stroke-opacity:1;stroke-dasharray:none"
         d="m 36.97,499.86564 4.25,0" /></g><g
       id="g5850" /><g
       id="g5852" /><g
       id="g5854" /><g
       id="g5856" /><g
       id="g5858" /><g
       id="g5860"
       transform="translate(0,25.6)"
       style="fill:#000000;stroke:#000000"><path
         d="m 74.69,33.03 0,4.25"
         style="fill:#000000;stroke:#000000;stroke-width:1.05999994;stroke-linecap:butt;stroke-linejoin:round;stroke-miterlimit:10;stroke-opacity:1;stroke-dasharray:none"
         id="path5862"
         inkscape:connector-curvature="0" /><path
         d="m 297.83667,33.03 0,4.25"
         style="fill:#000000;stroke:#000000;stroke-width:1.05999994;stroke-linecap:butt;stroke-linejoin:round;stroke-miterlimit:10;stroke-opacity:1;stroke-dasharray:none"
         id="path5864"
         inkscape:connector-curvature="0" /><path
         d="m 520.98333,33.03 0,4.25"
         style="fill:#000000;stroke:#000000;stroke-width:1.05999994;stroke-linecap:butt;stroke-linejoin:round;stroke-miterlimit:10;stroke-opacity:1;stroke-dasharray:none"
         id="path5866"
         inkscape:connector-curvature="0" /><path
         d="m 744.12999,33.03 0,4.25"
         style="fill:#000000;stroke:#000000;stroke-width:1.05999994;stroke-linecap:butt;stroke-linejoin:round;stroke-miterlimit:10;stroke-opacity:1;stroke-dasharray:none"
         id="path5868"
         inkscape:connector-curvature="0" /><path
         inkscape:connector-curvature="0"
         id="path6468"
         style="fill:#000000;stroke:#000000;stroke-width:1.05999994;stroke-linecap:butt;stroke-linejoin:round;stroke-miterlimit:10;stroke-opacity:1;stroke-dasharray:none"
         d="m 186.26333,33.03 0,4.25" /><path
         d="m 409.41,33.03 0,4.25"
         style="fill:#000000;stroke:#000000;stroke-width:1.05999994;stroke-linecap:butt;stroke-linejoin:round;stroke-miterlimit:10;stroke-opacity:1;stroke-dasharray:none"
         id="path6470"
         inkscape:connector-curvature="0" /><path
         inkscape:connector-curvature="0"
         id="path6472"
         style="fill:#000000;stroke:#000000;stroke-width:1.05999994;stroke-linecap:butt;stroke-linejoin:round;stroke-miterlimit:10;stroke-opacity:1;stroke-dasharray:none"
         d="m 632.55665,33.03 0,4.25" /></g><g
       id="g5870" /><g
       id="g5872"
       transform="translate(0,22.4)"
       style="fill:#000000"><text
   transform="matrix(1,0,0,-1,71.91,23.02)"
   id="text5874"
   style="font-size:10.39999962px;font-style:normal;font-variant:normal;font-weight:normal;font-stretch:normal;text-align:start;line-height:125%;writing-mode:lr-tb;text-anchor:start;fill:#000000;font-family:Sans;-inkscape-font-specification:Sans"
   sodipodi:linespacing="125%"><tspan
     style="font-size:10.39999962px;font-style:normal;font-variant:normal;font-weight:normal;font-stretch:normal;text-align:start;line-height:125%;writing-mode:lr-tb;text-anchor:start;fill:#000000;fill-opacity:1;fill-rule:nonzero;stroke:none;font-family:Sans;-inkscape-font-specification:Sans"
     x="0"
     y="0"
     id="tspan5876">0</tspan></text>



<text
   transform="matrix(1,0,0,-1,295.06,23.02)"
   id="text5878"
   style="font-size:10.39999962px;font-style:normal;font-variant:normal;font-weight:normal;font-stretch:normal;text-align:start;line-height:125%;writing-mode:lr-tb;text-anchor:start;fill:#000000;font-family:Sans;-inkscape-font-specification:Sans"
   sodipodi:linespacing="125%"><tspan
     style="font-size:10.39999962px;font-style:normal;font-variant:normal;font-weight:normal;font-stretch:normal;text-align:start;line-height:125%;writing-mode:lr-tb;text-anchor:start;fill:#000000;fill-opacity:1;fill-rule:nonzero;stroke:none;font-family:Sans;-inkscape-font-specification:Sans"
     x="0"
     y="0"
     id="tspan5880">2</tspan></text>



<text
   transform="matrix(1,0,0,-1,518.2,23.02)"
   id="text5882"
   style="font-size:10.39999962px;font-style:normal;font-variant:normal;font-weight:normal;font-stretch:normal;text-align:start;line-height:125%;writing-mode:lr-tb;text-anchor:start;fill:#000000;font-family:Sans;-inkscape-font-specification:Sans"
   sodipodi:linespacing="125%"><tspan
     style="font-size:10.39999962px;font-style:normal;font-variant:normal;font-weight:normal;font-stretch:normal;text-align:start;line-height:125%;writing-mode:lr-tb;text-anchor:start;fill:#000000;fill-opacity:1;fill-rule:nonzero;stroke:none;font-family:Sans;-inkscape-font-specification:Sans"
     x="0"
     y="0"
     id="tspan5884">4</tspan></text>



<text
   transform="matrix(1,0,0,-1,741.35,23.02)"
   id="text5886"
   style="font-size:10.39999962px;font-style:normal;font-variant:normal;font-weight:normal;font-stretch:normal;text-align:start;line-height:125%;writing-mode:lr-tb;text-anchor:start;fill:#000000;font-family:Sans;-inkscape-font-specification:Sans"
   sodipodi:linespacing="125%"><tspan
     style="font-size:10.39999962px;font-style:normal;font-variant:normal;font-weight:normal;font-stretch:normal;text-align:start;line-height:125%;writing-mode:lr-tb;text-anchor:start;fill:#000000;fill-opacity:1;fill-rule:nonzero;stroke:none;font-family:Sans;-inkscape-font-specification:Sans"
     x="0"
     y="0"
     id="tspan5888">6</tspan></text>



<text
   id="text6482"
   transform="scale(1,-1)"
   x="183.91019"
   y="-23.02"
   style="font-size:9.60000038px;font-style:normal;font-variant:normal;font-weight:normal;font-stretch:normal;text-align:start;line-height:125%;writing-mode:lr-tb;text-anchor:start;fill:#000000;font-family:Sans;-inkscape-font-specification:Sans"
   sodipodi:linespacing="125%"><tspan
     sodipodi:role="line"
     id="tspan6500"
     x="183.91019"
     y="-23.02">1</tspan></text>



<text
   y="-23.02"
   x="406.31104"
   transform="scale(1,-1)"
   id="text6486"
   style="font-size:10.39999962px;font-style:normal;font-variant:normal;font-weight:normal;font-stretch:normal;text-align:start;line-height:125%;writing-mode:lr-tb;text-anchor:start;fill:#000000;font-family:Sans;-inkscape-font-specification:Sans"
   sodipodi:linespacing="125%"><tspan
     sodipodi:role="line"
     id="tspan6496"
     x="406.31104"
     y="-23.02">3</tspan></text>



<text
   id="text6490"
   transform="scale(1,-1)"
   x="631.90961"
   y="-23.02"
   style="font-size:10.39999962px;font-style:normal;font-variant:normal;font-weight:normal;font-stretch:normal;text-align:start;line-height:125%;writing-mode:lr-tb;text-anchor:start;fill:#000000;font-family:Sans;-inkscape-font-specification:Sans"
   sodipodi:linespacing="125%"><tspan
     sodipodi:role="line"
     id="tspan6494"
     x="631.90961"
     y="-23.02">5</tspan></text>



</g><g
       id="g5890" /><g
       id="g5892" /><g
       id="g5894" /><g
       id="g5896" /><g
       id="g5898"
       transform="translate(0,3.2)"><text
   transform="scale(1,-1)"
   id="text5900"
   x="330.26001"
   y="-15.6"><tspan
     style="font-size:12px;font-variant:normal;font-weight:normal;writing-mode:lr-tb;fill:#000000;fill-opacity:1;fill-rule:nonzero;stroke:none;font-family:Helvetica;-inkscape-font-specification:Helvetica"
     x="330.26001 336.15201 342.82401 346.16 352.832 355.496 358.832 367.496 374.168 380.84 387.51199 390.84799 394.18399 400.85599 404.19199 407.52798 416.19199 423.52399 431.52798 434.86398 442.86801 446.20401 452.87601 458.87601 464.87601 471.884 478.556 485.228"
     y="-15.6"
     sodipodi:role="line"
     id="tspan5902">Total Count of DTP Stock−out</tspan></text>



</g><g
       id="g5904" /><g
       id="g5906"
       transform="translate(3.2,0)"><text
   transform="matrix(0,1,1,0,19.42,210.03)"
   id="text5908"><tspan
     style="font-size:12px;font-variant:normal;font-weight:normal;writing-mode:lr-tb;fill:#000000;fill-opacity:1;fill-rule:nonzero;stroke:none;font-family:Helvetica;-inkscape-font-specification:Helvetica"
     x="0 9.9960003 12.66 19.332001 21.996 31.872 38.543999 48.540001 51.875999 60.540001 67.211998 71.087997 77.760002 81.096001 83.760002 90.431999 97.103996 100.44 107.112 110.448 113.784 121.788 125.124 131.79601 137.79601 143.79601 150.804 157.476 164.14799 167.48399 171.48 181.476 188.14799 194.82001 198.15601 204.828 210.828"
     y="0"
     sodipodi:role="line"
     id="tspan5910">Minimum Duration of Stock−out(months)</tspan></text>



</g><g
       id="g5912" /><g
       id="g5914" /><g
       id="g5916" /><g
       id="g5918" /><flowRoot
       xml:space="preserve"
       id="flowRoot5353"
       style="font-size:40px;font-style:normal;font-weight:normal;line-height:125%;letter-spacing:0px;word-spacing:0px;fill:#000000;fill-opacity:1;stroke:none;font-family:Sans"
       transform="matrix(0.8,0,0,-0.8,16.003735,594.36061)"><flowRegion
         id="flowRegion5355"><rect
           id="rect5357"
           width="324.87805"
           height="46.097561"
           x="645.36584"
           y="705.73169" /></flowRegion><flowPara
         id="flowPara5359"
         style="font-size:10px;font-style:normal;font-variant:normal;font-weight:normal;font-stretch:normal;text-align:start;line-height:125%;writing-mode:lr-tb;text-anchor:start;font-family:Sans;-inkscape-font-specification:Sans">Authors: David S Opoku &amp; Benjamin Schreiber | Jan 2014</flowPara><flowPara
         style="font-size:10px;font-style:normal;font-variant:normal;font-weight:normal;font-stretch:normal;text-align:start;line-height:125%;writing-mode:lr-tb;text-anchor:start;font-family:Sans;-inkscape-font-specification:Sans"
         id="flowPara5363">Data source: 2012 WHO Joint Reporting Form | Patrick Lydon</flowPara><flowPara
         style="font-size:10px;font-style:normal;font-variant:normal;font-weight:normal;font-stretch:normal;text-align:start;line-height:125%;writing-mode:lr-tb;text-anchor:start;font-family:Sans;-inkscape-font-specification:Sans"
         id="flowPara5361" /></flowRoot><flowRoot
       xml:space="preserve"
       id="flowRoot5365"
       style="font-size:21.6355381px;font-style:normal;font-variant:normal;font-weight:normal;font-stretch:normal;text-align:start;line-height:125%;letter-spacing:0px;word-spacing:0px;writing-mode:lr-tb;text-anchor:start;fill:#000000;fill-opacity:1;stroke:none;font-family:Sans;-inkscape-font-specification:Sans"
       transform="matrix(0.82322145,0,0,-0.8,-11.176618,633.83218)"><flowRegion
         id="flowRegion5367"><rect
           id="rect5369"
           width="830.85364"
           height="93.292679"
           x="98.780487"
           y="40.609756"
           style="font-size:21.6355381px;font-style:normal;font-variant:normal;font-weight:normal;font-stretch:normal;text-align:start;line-height:125%;writing-mode:lr-tb;text-anchor:start;font-family:Sans;-inkscape-font-specification:Sans" /></flowRegion><flowPara
         id="flowPara5371"
         style="font-size:21.6355381px;font-style:normal;font-variant:normal;font-weight:normal;font-stretch:normal;text-align:start;line-height:125%;writing-mode:lr-tb;text-anchor:start;font-family:Sans;-inkscape-font-specification:Sans">GAVI-eligible countries that had <flowSpan
   style="font-weight:bold"
   id="flowSpan5379">3 or more DTP stock-outs</flowSpan> or a minimum of <flowSpan
   style="font-weight:bold"
   id="flowSpan5381">3 or more months</flowSpan> stock-outs from <flowSpan
   style="font-weight:bold"
   id="flowSpan5383">2005 to 2012</flowSpan>. 17 countries out of 72 fit this profile.  </flowPara></flowRoot></g></svg>