<?xml version="1.0" encoding="UTF-8" standalone="no"?>
<!-- Created with Inkscape (http://www.inkscape.org/) -->

<svg
   xmlns:dc="http://purl.org/dc/elements/1.1/"
   xmlns:cc="http://creativecommons.org/ns#"
   xmlns:rdf="http://www.w3.org/1999/02/22-rdf-syntax-ns#"
   xmlns:svg="http://www.w3.org/2000/svg"
   xmlns="http://www.w3.org/2000/svg"
   xmlns:sodipodi="http://sodipodi.sourceforge.net/DTD/sodipodi-0.dtd"
   xmlns:inkscape="http://www.inkscape.org/namespaces/inkscape"
   id="svg15887"
   version="1.1"
   inkscape:version="0.48.3.1 r9886"
   width="990"
   height="765"
   xml:space="preserve"
   sodipodi:docname="NSO_DTP_GAVI_CNT_AVG_draft.svg"><metadata
     id="metadata15893"><rdf:RDF><cc:Work
         rdf:about=""><dc:format>image/svg+xml</dc:format><dc:type
           rdf:resource="http://purl.org/dc/dcmitype/StillImage" /><dc:title /></cc:Work></rdf:RDF></metadata><defs
     id="defs15891"><clipPath
       clipPathUnits="userSpaceOnUse"
       id="clipPath15903"><path
         d="M 0,0 792,0 792,612 0,612 0,0 z"
         id="path15905" /></clipPath><clipPath
       clipPathUnits="userSpaceOnUse"
       id="clipPath15921"><path
         d="m 41.219,612 736.383,0 0,-555.52 -736.383,0 0,555.52 z"
         id="path15923" /></clipPath><clipPath
       clipPathUnits="userSpaceOnUse"
       id="clipPath15929"><path
         d="m 0,55 745,0 0,502 L 0,557 0,55 z"
         id="path15931" /></clipPath></defs><sodipodi:namedview
     pagecolor="#ffffff"
     bordercolor="#666666"
     borderopacity="1"
     objecttolerance="10"
     gridtolerance="10"
     guidetolerance="10"
     inkscape:pageopacity="0"
     inkscape:pageshadow="2"
     inkscape:window-width="1440"
     inkscape:window-height="876"
     id="namedview15889"
     showgrid="false"
     inkscape:zoom="0.91111111"
     inkscape:cx="495"
     inkscape:cy="470.30488"
     inkscape:window-x="0"
     inkscape:window-y="24"
     inkscape:window-maximized="1"
     inkscape:current-layer="g15895" /><g
     id="g15895"
     inkscape:groupmode="layer"
     inkscape:label="NSO_DTP_GAVI_CNT_AVG_draft"
     transform="matrix(1.25,0,0,-1.25,0,765)"><g
       id="g15897"><g
         id="g15899"><g
           id="g15901" /><g
           id="g15907"><g
             clip-path="url(#clipPath15903)"
             id="g15909"><g
               id="g15911"><path
                 d="M 0,0 792,0 792,612 0,612 0,0 z"
                 style="fill:#ffffff;fill-opacity:1;fill-rule:nonzero;stroke:none"
                 id="path15913" /><path
                 d="M 0,612 792,612 792,0 0,0 0,612 z"
                 style="fill:none;stroke:#ffffff;stroke-opacity:1;stroke-width:1.06;stroke-linecap:round;stroke-linejoin:round;stroke-miterlimit:10;stroke-dasharray:none"
                 id="path15915" /></g></g></g></g></g><g
       id="g15917"><g
         id="g15919"
         clip-path="url(#clipPath15921)"><g
           id="g15925"><g
             id="g15927" /><g
             id="g15933"><g
               clip-path="url(#clipPath15929)"
               id="g15935"><g
                 id="g15937"><path
   d="m 186.27,56.48 0,499.321"
   style="fill:none;stroke:#666666;stroke-opacity:1;stroke-width:0.407052;stroke-linecap:butt;stroke-linejoin:round;stroke-miterlimit:10;stroke-dasharray:0.814104,1.628208;stroke-dashoffset:0.325642"
   id="path15939" /><path
   d="m 409.41,56.48 0,499.497"
   style="fill:none;stroke:#000000;stroke-opacity:1;stroke-width:1.3912;stroke-linecap:butt;stroke-linejoin:round;stroke-miterlimit:10;stroke-dasharray:2.7824,5.5648;stroke-dashoffset:1.11296"
   id="path15941" /><path
   d="m 632.559,56.48 0,500.196"
   style="fill:none;stroke:#666666;stroke-opacity:1;stroke-width:0.407409;stroke-linecap:butt;stroke-linejoin:round;stroke-miterlimit:10;stroke-dasharray:0.814819,1.629638;stroke-dashoffset:0.325928"
   id="path15943" /><path
   d="m 41.219,81.949 703.246,0"
   style="fill:none;stroke:#666666;stroke-opacity:1;stroke-width:0.421386;stroke-linecap:butt;stroke-linejoin:round;stroke-miterlimit:10;stroke-dasharray:0.842773,1.685546;stroke-dashoffset:0.337109"
   id="path15945" /><path
   d="m 41.219,263.871 702.586,0"
   style="fill:none;stroke:#666666;stroke-opacity:1;stroke-width:0.421189;stroke-linecap:butt;stroke-linejoin:round;stroke-miterlimit:10;stroke-dasharray:0.842378,1.684757;stroke-dashoffset:0.336951"
   id="path15947" /><path
   d="m 41.219,445.789 703.246,0"
   style="fill:none;stroke:#666666;stroke-opacity:1;stroke-width:0.421386;stroke-linecap:butt;stroke-linejoin:round;stroke-miterlimit:10;stroke-dasharray:0.842773,1.685546;stroke-dashoffset:0.337109"
   id="path15949" /><path
   d="m 41.09,56.48 0,499.809"
   style="fill:none;stroke:#000000;stroke-opacity:1;stroke-width:1.313935;stroke-linecap:butt;stroke-linejoin:round;stroke-miterlimit:10;stroke-dasharray:none"
   id="path15951" /><path
   d="m 297.84,56.48 0,500.196"
   style="fill:none;stroke:#666666;stroke-opacity:1;stroke-width:0.407409;stroke-linecap:butt;stroke-linejoin:round;stroke-miterlimit:10;stroke-dasharray:0.814819,1.629638;stroke-dashoffset:0.325928"
   id="path15953" /><path
   d="m 520.98,56.48 0,499.977"
   style="fill:none;stroke:#666666;stroke-opacity:1;stroke-width:0.40732;stroke-linecap:butt;stroke-linejoin:round;stroke-miterlimit:10;stroke-dasharray:0.81464,1.62928;stroke-dashoffset:0.325856"
   id="path15955" /><path
   d="m 744.129,56.48 0,499.758"
   style="fill:none;stroke:#666666;stroke-opacity:1;stroke-width:0.407231;stroke-linecap:butt;stroke-linejoin:round;stroke-miterlimit:10;stroke-dasharray:0.814461,1.628923;stroke-dashoffset:0.325785"
   id="path15957" /><path
   d="m 69.379,81.949 c 0,2.922 2.391,5.321 5.312,5.321 2.93,0 5.321,-2.399 5.321,-5.321 0,-2.918 -2.391,-5.308 -5.321,-5.308 -2.921,0 -5.312,2.39 -5.312,5.308"
   style="fill:#214478;fill-opacity:1;fill-rule:nonzero;stroke:none"
   id="path15959" /><path
   d="m 69.379,81.949 c 0,2.922 2.391,5.321 5.312,5.321 2.93,0 5.321,-2.399 5.321,-5.321 0,-2.918 -2.391,-5.308 -5.321,-5.308 -2.921,0 -5.312,2.39 -5.312,5.308"
   style="fill:#214478;fill-opacity:1;fill-rule:nonzero;stroke:none"
   id="path15961" /><path
   d="m 404.102,154.719 c 0,2.922 2.386,5.32 5.308,5.32 2.918,0 5.32,-2.398 5.32,-5.32 0,-2.918 -2.402,-5.309 -5.32,-5.309 -2.922,0 -5.308,2.391 -5.308,5.309"
   style="fill:#214478;fill-opacity:1;fill-rule:nonzero;stroke:none"
   id="path15963" /><path
   d="m 69.379,81.949 c 0,2.922 2.391,5.321 5.312,5.321 2.93,0 5.321,-2.399 5.321,-5.321 0,-2.918 -2.391,-5.308 -5.321,-5.308 -2.921,0 -5.312,2.39 -5.312,5.308"
   style="fill:#214478;fill-opacity:1;fill-rule:nonzero;stroke:none"
   id="path15965" /><path
   d="m 69.379,81.949 c 0,2.922 2.391,5.321 5.312,5.321 2.93,0 5.321,-2.399 5.321,-5.321 0,-2.918 -2.391,-5.308 -5.321,-5.308 -2.921,0 -5.312,2.39 -5.312,5.308"
   style="fill:#214478;fill-opacity:1;fill-rule:nonzero;stroke:none"
   id="path15967" /><path
   d="m 69.379,81.949 c 0,2.922 2.391,5.321 5.312,5.321 2.93,0 5.321,-2.399 5.321,-5.321 0,-2.918 -2.391,-5.308 -5.321,-5.308 -2.921,0 -5.312,2.39 -5.312,5.308"
   style="fill:#214478;fill-opacity:1;fill-rule:nonzero;stroke:none"
   id="path15969" /><path
   d="m 292.52,100.141 c 0,2.929 2.402,5.32 5.32,5.32 2.922,0 5.308,-2.391 5.308,-5.32 0,-2.922 -2.386,-5.313 -5.308,-5.313 -2.918,0 -5.32,2.391 -5.32,5.313"
   style="fill:#214478;fill-opacity:1;fill-rule:nonzero;stroke:none"
   id="path15971" /><path
   d="m 69.379,81.949 c 0,2.922 2.391,5.321 5.312,5.321 2.93,0 5.321,-2.399 5.321,-5.321 0,-2.918 -2.391,-5.308 -5.321,-5.308 -2.921,0 -5.312,2.39 -5.312,5.308"
   style="fill:#214478;fill-opacity:1;fill-rule:nonzero;stroke:none"
   id="path15973" /><path
   d="m 69.379,81.949 c 0,2.922 2.391,5.321 5.312,5.321 2.93,0 5.321,-2.399 5.321,-5.321 0,-2.918 -2.391,-5.308 -5.321,-5.308 -2.921,0 -5.312,2.39 -5.312,5.308"
   style="fill:#214478;fill-opacity:1;fill-rule:nonzero;stroke:none"
   id="path15975" /><path
   d="m 69.379,81.949 c 0,2.922 2.391,5.321 5.312,5.321 2.93,0 5.321,-2.399 5.321,-5.321 0,-2.918 -2.391,-5.308 -5.321,-5.308 -2.921,0 -5.312,2.39 -5.312,5.308"
   style="fill:#214478;fill-opacity:1;fill-rule:nonzero;stroke:none"
   id="path15977" /><path
   d="m 69.379,81.949 c 0,2.922 2.391,5.321 5.312,5.321 2.93,0 5.321,-2.399 5.321,-5.321 0,-2.918 -2.391,-5.308 -5.321,-5.308 -2.921,0 -5.312,2.39 -5.312,5.308"
   style="fill:#214478;fill-opacity:1;fill-rule:nonzero;stroke:none"
   id="path15979" /><path
   d="m 180.949,154.719 c 0,2.922 2.391,5.32 5.321,5.32 2.921,0 5.308,-2.398 5.308,-5.32 0,-2.918 -2.387,-5.309 -5.308,-5.309 -2.93,0 -5.321,2.391 -5.321,5.309"
   style="fill:#214478;fill-opacity:1;fill-rule:nonzero;stroke:none"
   id="path15981" /><path
   d="m 180.949,118.34 c 0,2.922 2.391,5.308 5.321,5.308 2.921,0 5.308,-2.386 5.308,-5.308 0,-2.93 -2.387,-5.32 -5.308,-5.32 -2.93,0 -5.321,2.39 -5.321,5.32"
   style="fill:#214478;fill-opacity:1;fill-rule:nonzero;stroke:none"
   id="path15983" /><path
   d="m 292.52,118.34 c 0,2.922 2.402,5.308 5.32,5.308 2.922,0 5.308,-2.386 5.308,-5.308 0,-2.93 -2.386,-5.32 -5.308,-5.32 -2.918,0 -5.32,2.39 -5.32,5.32"
   style="fill:#214478;fill-opacity:1;fill-rule:nonzero;stroke:none"
   id="path15985" /><path
   d="m 69.379,81.949 c 0,2.922 2.391,5.321 5.312,5.321 2.93,0 5.321,-2.399 5.321,-5.321 0,-2.918 -2.391,-5.308 -5.321,-5.308 -2.921,0 -5.312,2.39 -5.312,5.308"
   style="fill:#214478;fill-opacity:1;fill-rule:nonzero;stroke:none"
   id="path15987" /><path
   d="m 180.949,191.102 c 0,2.929 2.391,5.32 5.321,5.32 2.921,0 5.308,-2.391 5.308,-5.32 0,-2.922 -2.387,-5.313 -5.308,-5.313 -2.93,0 -5.321,2.391 -5.321,5.313"
   style="fill:#214478;fill-opacity:1;fill-rule:nonzero;stroke:none"
   id="path15989" /><path
   d="m 69.379,81.949 c 0,2.922 2.391,5.321 5.312,5.321 2.93,0 5.321,-2.399 5.321,-5.321 0,-2.918 -2.391,-5.308 -5.321,-5.308 -2.921,0 -5.312,2.39 -5.312,5.308"
   style="fill:#214478;fill-opacity:1;fill-rule:nonzero;stroke:none"
   id="path15991" /><path
   d="m 515.672,200.199 c 0,2.922 2.387,5.321 5.308,5.321 2.93,0 5.321,-2.399 5.321,-5.321 0,-2.918 -2.391,-5.308 -5.321,-5.308 -2.921,0 -5.308,2.39 -5.308,5.308"
   style="fill:#214478;fill-opacity:1;fill-rule:nonzero;stroke:none"
   id="path15993" /><path
   d="m 69.379,81.949 c 0,2.922 2.391,5.321 5.312,5.321 2.93,0 5.321,-2.399 5.321,-5.321 0,-2.918 -2.391,-5.308 -5.321,-5.308 -2.921,0 -5.312,2.39 -5.312,5.308"
   style="fill:#214478;fill-opacity:1;fill-rule:nonzero;stroke:none"
   id="path15995" /><path
   d="m 404.102,118.34 c 0,2.922 2.386,5.308 5.308,5.308 2.918,0 5.32,-2.386 5.32,-5.308 0,-2.93 -2.402,-5.32 -5.32,-5.32 -2.922,0 -5.308,2.39 -5.308,5.32"
   style="fill:#214478;fill-opacity:1;fill-rule:nonzero;stroke:none"
   id="path15997" /><path
   d="m 69.379,81.949 c 0,2.922 2.391,5.321 5.312,5.321 2.93,0 5.321,-2.399 5.321,-5.321 0,-2.918 -2.391,-5.308 -5.321,-5.308 -2.921,0 -5.312,2.39 -5.312,5.308"
   style="fill:#214478;fill-opacity:1;fill-rule:nonzero;stroke:none"
   id="path15999" /><path
   d="m 69.379,81.949 c 0,2.922 2.391,5.321 5.312,5.321 2.93,0 5.321,-2.399 5.321,-5.321 0,-2.918 -2.391,-5.308 -5.321,-5.308 -2.921,0 -5.312,2.39 -5.312,5.308"
   style="fill:#214478;fill-opacity:1;fill-rule:nonzero;stroke:none"
   id="path16001" /><path
   d="m 69.379,81.949 c 0,2.922 2.391,5.321 5.312,5.321 2.93,0 5.321,-2.399 5.321,-5.321 0,-2.918 -2.391,-5.308 -5.321,-5.308 -2.921,0 -5.312,2.39 -5.312,5.308"
   style="fill:#214478;fill-opacity:1;fill-rule:nonzero;stroke:none"
   id="path16003" /><path
   d="m 69.379,81.949 c 0,2.922 2.391,5.321 5.312,5.321 2.93,0 5.321,-2.399 5.321,-5.321 0,-2.918 -2.391,-5.308 -5.321,-5.308 -2.921,0 -5.312,2.39 -5.312,5.308"
   style="fill:#214478;fill-opacity:1;fill-rule:nonzero;stroke:none"
   id="path16005" /><path
   d="m 404.102,154.719 c 0,2.922 2.386,5.32 5.308,5.32 2.918,0 5.32,-2.398 5.32,-5.32 0,-2.918 -2.402,-5.309 -5.32,-5.309 -2.922,0 -5.308,2.391 -5.308,5.309"
   style="fill:#214478;fill-opacity:1;fill-rule:nonzero;stroke:none"
   id="path16007" /><path
   d="m 69.379,81.949 c 0,2.922 2.391,5.321 5.312,5.321 2.93,0 5.321,-2.399 5.321,-5.321 0,-2.918 -2.391,-5.308 -5.321,-5.308 -2.921,0 -5.312,2.39 -5.312,5.308"
   style="fill:#214478;fill-opacity:1;fill-rule:nonzero;stroke:none"
   id="path16009" /><path
   d="m 292.52,118.34 c 0,2.922 2.402,5.308 5.32,5.308 2.922,0 5.308,-2.386 5.308,-5.308 0,-2.93 -2.386,-5.32 -5.308,-5.32 -2.918,0 -5.32,2.39 -5.32,5.32"
   style="fill:#214478;fill-opacity:1;fill-rule:nonzero;stroke:none"
   id="path16011" /><path
   d="m 292.52,109.238 c 0,2.922 2.402,5.313 5.32,5.313 2.922,0 5.308,-2.391 5.308,-5.313 0,-2.918 -2.386,-5.316 -5.308,-5.316 -2.918,0 -5.32,2.398 -5.32,5.316"
   style="fill:#214478;fill-opacity:1;fill-rule:nonzero;stroke:none"
   id="path16013" /><path
   d="m 69.379,81.949 c 0,2.922 2.391,5.321 5.312,5.321 2.93,0 5.321,-2.399 5.321,-5.321 0,-2.918 -2.391,-5.308 -5.321,-5.308 -2.921,0 -5.312,2.39 -5.312,5.308"
   style="fill:#214478;fill-opacity:1;fill-rule:nonzero;stroke:none"
   id="path16015" /><path
   d="m 69.379,81.949 c 0,2.922 2.391,5.321 5.312,5.321 2.93,0 5.321,-2.399 5.321,-5.321 0,-2.918 -2.391,-5.308 -5.321,-5.308 -2.921,0 -5.312,2.39 -5.312,5.308"
   style="fill:#214478;fill-opacity:1;fill-rule:nonzero;stroke:none"
   id="path16017" /><path
   d="m 180.949,118.34 c 0,2.922 2.391,5.308 5.321,5.308 2.921,0 5.308,-2.386 5.308,-5.308 0,-2.93 -2.387,-5.32 -5.308,-5.32 -2.93,0 -5.321,2.39 -5.321,5.32"
   style="fill:#214478;fill-opacity:1;fill-rule:nonzero;stroke:none"
   id="path16019" /><path
   d="m 69.379,81.949 c 0,2.922 2.391,5.321 5.312,5.321 2.93,0 5.321,-2.399 5.321,-5.321 0,-2.918 -2.391,-5.308 -5.321,-5.308 -2.921,0 -5.312,2.39 -5.312,5.308"
   style="fill:#214478;fill-opacity:1;fill-rule:nonzero;stroke:none"
   id="path16021" /><path
   d="m 404.102,166.73 c 0,2.918 2.386,5.309 5.308,5.309 2.918,0 5.32,-2.391 5.32,-5.309 0,-2.929 -2.402,-5.32 -5.32,-5.32 -2.922,0 -5.308,2.391 -5.308,5.32"
   style="fill:#214478;fill-opacity:1;fill-rule:nonzero;stroke:none"
   id="path16023" /><path
   d="m 515.672,118.34 c 0,2.922 2.387,5.308 5.308,5.308 2.93,0 5.321,-2.386 5.321,-5.308 0,-2.93 -2.391,-5.32 -5.321,-5.32 -2.921,0 -5.308,2.39 -5.308,5.32"
   style="fill:#214478;fill-opacity:1;fill-rule:nonzero;stroke:none"
   id="path16025" /><path
   d="m 292.52,518.559 c 0,2.929 2.402,5.32 5.32,5.32 2.922,0 5.308,-2.391 5.308,-5.32 0,-2.918 -2.386,-5.309 -5.308,-5.309 -2.918,0 -5.32,2.391 -5.32,5.309"
   style="fill:#214478;fill-opacity:1;fill-rule:nonzero;stroke:none"
   id="path16027" /><path
   d="m 69.379,81.949 c 0,2.922 2.391,5.321 5.312,5.321 2.93,0 5.321,-2.399 5.321,-5.321 0,-2.918 -2.391,-5.308 -5.321,-5.308 -2.921,0 -5.312,2.39 -5.312,5.308"
   style="fill:#214478;fill-opacity:1;fill-rule:nonzero;stroke:none"
   id="path16029" /><path
   d="m 69.379,81.949 c 0,2.922 2.391,5.321 5.312,5.321 2.93,0 5.321,-2.399 5.321,-5.321 0,-2.918 -2.391,-5.308 -5.321,-5.308 -2.921,0 -5.312,2.39 -5.312,5.308"
   style="fill:#214478;fill-opacity:1;fill-rule:nonzero;stroke:none"
   id="path16031" /><path
   d="m 292.52,136.531 c 0,2.918 2.402,5.309 5.32,5.309 2.922,0 5.308,-2.391 5.308,-5.309 0,-2.929 -2.386,-5.32 -5.308,-5.32 -2.918,0 -5.32,2.391 -5.32,5.32"
   style="fill:#214478;fill-opacity:1;fill-rule:nonzero;stroke:none"
   id="path16033" /><path
   d="m 69.379,81.949 c 0,2.922 2.391,5.321 5.312,5.321 2.93,0 5.321,-2.399 5.321,-5.321 0,-2.918 -2.391,-5.308 -5.321,-5.308 -2.921,0 -5.312,2.39 -5.312,5.308"
   style="fill:#214478;fill-opacity:1;fill-rule:nonzero;stroke:none"
   id="path16035" /><path
   d="m 69.379,81.949 c 0,2.922 2.391,5.321 5.312,5.321 2.93,0 5.321,-2.399 5.321,-5.321 0,-2.918 -2.391,-5.308 -5.321,-5.308 -2.921,0 -5.312,2.39 -5.312,5.308"
   style="fill:#214478;fill-opacity:1;fill-rule:nonzero;stroke:none"
   id="path16037" /><path
   d="m 69.379,81.949 c 0,2.922 2.391,5.321 5.312,5.321 2.93,0 5.321,-2.399 5.321,-5.321 0,-2.918 -2.391,-5.308 -5.321,-5.308 -2.921,0 -5.312,2.39 -5.312,5.308"
   style="fill:#214478;fill-opacity:1;fill-rule:nonzero;stroke:none"
   id="path16039" /><path
   d="m 69.379,81.949 c 0,2.922 2.391,5.321 5.312,5.321 2.93,0 5.321,-2.399 5.321,-5.321 0,-2.918 -2.391,-5.308 -5.321,-5.308 -2.921,0 -5.312,2.39 -5.312,5.308"
   style="fill:#214478;fill-opacity:1;fill-rule:nonzero;stroke:none"
   id="path16041" /><path
   d="m 180.949,154.719 c 0,2.922 2.391,5.32 5.321,5.32 2.921,0 5.308,-2.398 5.308,-5.32 0,-2.918 -2.387,-5.309 -5.308,-5.309 -2.93,0 -5.321,2.391 -5.321,5.309"
   style="fill:#214478;fill-opacity:1;fill-rule:nonzero;stroke:none"
   id="path16043" /><path
   d="m 180.949,118.34 c 0,2.922 2.391,5.308 5.321,5.308 2.921,0 5.308,-2.386 5.308,-5.308 0,-2.93 -2.387,-5.32 -5.308,-5.32 -2.93,0 -5.321,2.39 -5.321,5.32"
   style="fill:#214478;fill-opacity:1;fill-rule:nonzero;stroke:none"
   id="path16045" /><path
   d="m 404.102,142.711 c 0,2.93 2.386,5.32 5.308,5.32 2.918,0 5.32,-2.39 5.32,-5.32 0,-2.922 -2.402,-5.313 -5.32,-5.313 -2.922,0 -5.308,2.391 -5.308,5.313"
   style="fill:#214478;fill-opacity:1;fill-rule:nonzero;stroke:none"
   id="path16047" /><path
   d="m 180.949,118.34 c 0,2.922 2.391,5.308 5.321,5.308 2.921,0 5.308,-2.386 5.308,-5.308 0,-2.93 -2.387,-5.32 -5.308,-5.32 -2.93,0 -5.321,2.39 -5.321,5.32"
   style="fill:#214478;fill-opacity:1;fill-rule:nonzero;stroke:none"
   id="path16049" /><path
   d="m 404.102,154.719 c 0,2.922 2.386,5.32 5.308,5.32 2.918,0 5.32,-2.398 5.32,-5.32 0,-2.918 -2.402,-5.309 -5.32,-5.309 -2.922,0 -5.308,2.391 -5.308,5.309"
   style="fill:#214478;fill-opacity:1;fill-rule:nonzero;stroke:none"
   id="path16051" /><path
   d="m 180.949,81.949 c 0,2.922 2.391,5.321 5.321,5.321 2.921,0 5.308,-2.399 5.308,-5.321 0,-2.918 -2.387,-5.308 -5.308,-5.308 -2.93,0 -5.321,2.39 -5.321,5.308"
   style="fill:#214478;fill-opacity:1;fill-rule:nonzero;stroke:none"
   id="path16053" /><path
   d="m 292.52,191.102 c 0,2.929 2.402,5.32 5.32,5.32 2.922,0 5.308,-2.391 5.308,-5.32 0,-2.922 -2.386,-5.313 -5.308,-5.313 -2.918,0 -5.32,2.391 -5.32,5.313"
   style="fill:#214478;fill-opacity:1;fill-rule:nonzero;stroke:none"
   id="path16055" /><path
   d="m 292.52,172.91 c 0,2.93 2.402,5.32 5.32,5.32 2.922,0 5.308,-2.39 5.308,-5.32 0,-2.922 -2.386,-5.308 -5.308,-5.308 -2.918,0 -5.32,2.386 -5.32,5.308"
   style="fill:#214478;fill-opacity:1;fill-rule:nonzero;stroke:none"
   id="path16057" /><path
   d="m 292.52,209.301 c 0,2.918 2.402,5.308 5.32,5.308 2.922,0 5.308,-2.39 5.308,-5.308 0,-2.93 -2.386,-5.321 -5.308,-5.321 -2.918,0 -5.32,2.391 -5.32,5.321"
   style="fill:#214478;fill-opacity:1;fill-rule:nonzero;stroke:none"
   id="path16059" /><path
   d="m 180.949,263.871 c 0,2.93 2.391,5.32 5.321,5.32 2.921,0 5.308,-2.39 5.308,-5.32 0,-2.922 -2.387,-5.312 -5.308,-5.312 -2.93,0 -5.321,2.39 -5.321,5.312"
   style="fill:#214478;fill-opacity:1;fill-rule:nonzero;stroke:none"
   id="path16061" /><path
   d="m 69.379,81.949 c 0,2.922 2.391,5.321 5.312,5.321 2.93,0 5.321,-2.399 5.321,-5.321 0,-2.918 -2.391,-5.308 -5.321,-5.308 -2.921,0 -5.312,2.39 -5.312,5.308"
   style="fill:#214478;fill-opacity:1;fill-rule:nonzero;stroke:none"
   id="path16063" /><path
   d="m 180.949,118.34 c 0,2.922 2.391,5.308 5.321,5.308 2.921,0 5.308,-2.386 5.308,-5.308 0,-2.93 -2.387,-5.32 -5.308,-5.32 -2.93,0 -5.321,2.39 -5.321,5.32"
   style="fill:#214478;fill-opacity:1;fill-rule:nonzero;stroke:none"
   id="path16065" /><path
   d="m 69.379,81.949 c 0,2.922 2.391,5.321 5.312,5.321 2.93,0 5.321,-2.399 5.321,-5.321 0,-2.918 -2.391,-5.308 -5.321,-5.308 -2.921,0 -5.312,2.39 -5.312,5.308"
   style="fill:#214478;fill-opacity:1;fill-rule:nonzero;stroke:none"
   id="path16067" /><path
   d="m 69.379,81.949 c 0,2.922 2.391,5.321 5.312,5.321 2.93,0 5.321,-2.399 5.321,-5.321 0,-2.918 -2.391,-5.308 -5.321,-5.308 -2.921,0 -5.312,2.39 -5.312,5.308"
   style="fill:#214478;fill-opacity:1;fill-rule:nonzero;stroke:none"
   id="path16069" /><path
   d="m 69.379,81.949 c 0,2.922 2.391,5.321 5.312,5.321 2.93,0 5.321,-2.399 5.321,-5.321 0,-2.918 -2.391,-5.308 -5.321,-5.308 -2.921,0 -5.312,2.39 -5.312,5.308"
   style="fill:#214478;fill-opacity:1;fill-rule:nonzero;stroke:none"
   id="path16071" /><path
   d="m 69.379,81.949 c 0,2.922 2.391,5.321 5.312,5.321 2.93,0 5.321,-2.399 5.321,-5.321 0,-2.918 -2.391,-5.308 -5.321,-5.308 -2.921,0 -5.312,2.39 -5.312,5.308"
   style="fill:#214478;fill-opacity:1;fill-rule:nonzero;stroke:none"
   id="path16073" /><path
   d="m 180.949,191.102 c 0,2.929 2.391,5.32 5.321,5.32 2.921,0 5.308,-2.391 5.308,-5.32 0,-2.922 -2.387,-5.313 -5.308,-5.313 -2.93,0 -5.321,2.391 -5.321,5.313"
   style="fill:#214478;fill-opacity:1;fill-rule:nonzero;stroke:none"
   id="path16075" /><path
   d="m 69.379,81.949 c 0,2.922 2.391,5.321 5.312,5.321 2.93,0 5.321,-2.399 5.321,-5.321 0,-2.918 -2.391,-5.308 -5.321,-5.308 -2.921,0 -5.312,2.39 -5.312,5.308"
   style="fill:#214478;fill-opacity:1;fill-rule:nonzero;stroke:none"
   id="path16077" /><path
   d="m 69.379,81.949 c 0,2.922 2.391,5.321 5.312,5.321 2.93,0 5.321,-2.399 5.321,-5.321 0,-2.918 -2.391,-5.308 -5.321,-5.308 -2.921,0 -5.312,2.39 -5.312,5.308"
   style="fill:#214478;fill-opacity:1;fill-rule:nonzero;stroke:none"
   id="path16079" /><path
   d="m 180.949,154.719 c 0,2.922 2.391,5.32 5.321,5.32 2.921,0 5.308,-2.398 5.308,-5.32 0,-2.918 -2.387,-5.309 -5.308,-5.309 -2.93,0 -5.321,2.391 -5.321,5.309"
   style="fill:#214478;fill-opacity:1;fill-rule:nonzero;stroke:none"
   id="path16081" /><path
   d="m 404.102,118.34 c 0,2.922 2.386,5.308 5.308,5.308 2.918,0 5.32,-2.386 5.32,-5.308 0,-2.93 -2.402,-5.32 -5.32,-5.32 -2.922,0 -5.308,2.39 -5.308,5.32"
   style="fill:#214478;fill-opacity:1;fill-rule:nonzero;stroke:none"
   id="path16083" /><path
   d="m 69.379,81.949 c 0,2.922 2.391,5.321 5.312,5.321 2.93,0 5.321,-2.399 5.321,-5.321 0,-2.918 -2.391,-5.308 -5.321,-5.308 -2.921,0 -5.312,2.39 -5.312,5.308"
   style="fill:#214478;fill-opacity:1;fill-rule:nonzero;stroke:none"
   id="path16085" /><path
   d="m 69.379,81.949 c 0,2.922 2.391,5.321 5.312,5.321 2.93,0 5.321,-2.399 5.321,-5.321 0,-2.918 -2.391,-5.308 -5.321,-5.308 -2.921,0 -5.312,2.39 -5.312,5.308"
   style="fill:#214478;fill-opacity:1;fill-rule:nonzero;stroke:none"
   id="path16087" /><path
   d="m 180.949,118.34 c 0,2.922 2.391,5.308 5.321,5.308 2.921,0 5.308,-2.386 5.308,-5.308 0,-2.93 -2.387,-5.32 -5.308,-5.32 -2.93,0 -5.321,2.39 -5.321,5.32"
   style="fill:#214478;fill-opacity:1;fill-rule:nonzero;stroke:none"
   id="path16089" /><path
   d="m 180.949,191.102 c 0,2.929 2.391,5.32 5.321,5.32 2.921,0 5.308,-2.391 5.308,-5.32 0,-2.922 -2.387,-5.313 -5.308,-5.313 -2.93,0 -5.321,2.391 -5.321,5.313"
   style="fill:#214478;fill-opacity:1;fill-rule:nonzero;stroke:none"
   id="path16091" /><path
   d="m 627.238,191.102 c 0,2.929 2.391,5.32 5.321,5.32 2.921,0 5.312,-2.391 5.312,-5.32 0,-2.922 -2.391,-5.313 -5.312,-5.313 -2.93,0 -5.321,2.391 -5.321,5.313"
   style="fill:#214478;fill-opacity:1;fill-rule:nonzero;stroke:none"
   id="path16093" /><path
   d="m 292.52,209.301 c 0,2.918 2.402,5.308 5.32,5.308 2.922,0 5.308,-2.39 5.308,-5.308 0,-2.93 -2.386,-5.321 -5.308,-5.321 -2.918,0 -5.32,2.391 -5.32,5.321"
   style="fill:#214478;fill-opacity:1;fill-rule:nonzero;stroke:none"
   id="path16095" /><path
   d="m 69.379,81.949 c 0,2.922 2.391,5.321 5.312,5.321 2.93,0 5.321,-2.399 5.321,-5.321 0,-2.918 -2.391,-5.308 -5.321,-5.308 -2.921,0 -5.312,2.39 -5.312,5.308"
   style="fill:#214478;fill-opacity:1;fill-rule:nonzero;stroke:none"
   id="path16097" /><path
   d="m 69.379,81.949 c 0,2.922 2.805,5.321 5.312,5.321 2.508,0 5.321,-2.399 5.321,-5.321 0,-2.918 -2.391,-5.308 -5.321,-5.308 -2.921,0 -5.312,2.39 -5.312,5.308"
   style="fill:#214478;fill-opacity:1;fill-rule:nonzero;stroke:none"
   id="path16099" /><path
   d="m 180.949,118.34 c 0,2.922 2.391,5.308 5.321,5.308 2.921,0 5.308,-2.386 5.308,-5.308 0,-2.93 -2.387,-5.32 -5.308,-5.32 -2.93,0 -5.321,2.39 -5.321,5.32"
   style="fill:#214478;fill-opacity:1;fill-rule:nonzero;stroke:none"
   id="path16101" /><text
   transform="matrix(1,0,0,-1,421.22015,150.77001)"
   id="text16103"><tspan
     style="fill:#000000;fill-opacity:1;fill-rule:nonzero;stroke:none;font-family:Nimbus Sans L;font-variant:normal;font-size:11;writing-mode:lr;-inkscape-font-specification:NimbusSanL-Regu"
     x="0 7.337 11.275 20.427 26.543 32.659 35.101 41.217 44.275 50.391 53.449"
     y="0"
     sodipodi:role="line"
     id="tspan16105">Armenia,3,2</tspan><tspan
     style="fill:#000000;fill-opacity:1;fill-rule:nonzero;stroke:none;font-family:Nimbus Sans L;font-variant:normal;font-size:11;writing-mode:lr;-inkscape-font-specification:NimbusSanL-Regu"
     x="-263.310168 -255.379168 -249.263168 -243.147168 -237.031168 -231.355168 -228.297168 -222.181168 -219.123168"
     y="-57.190067"
     sodipodi:role="line"
     id="tspan16107">Congo,1,3</tspan><tspan
     style="fill:#000000;fill-opacity:1;fill-rule:nonzero;stroke:none;font-family:Nimbus Sans L;font-variant:normal;font-size:11;writing-mode:lr;-inkscape-font-specification:NimbusSanL-Regu"
     x="109.799624 117.730624 123.846624 129.962624 136.078624 139.136624 145.252624 148.310624 154.426624 157.484624 163.600624"
     y="-47.08"
     sodipodi:role="line"
     id="tspan16109">Cuba,4,3.25</tspan><tspan
     style="fill:#000000;fill-opacity:1;fill-rule:nonzero;stroke:none;font-family:Nimbus Sans L;font-variant:normal;font-size:11;writing-mode:lr;-inkscape-font-specification:NimbusSanL-Regu"
     x="-1.949761 5.981239 12.097239 21.249239 27.365239 32.865239 36.418239 42.534239 45.592239 48.034239 53.534239 56.592239 64.523239 70.639239 76.755239 82.871239 88.778239 91.220239 93.662239 99.162239 102.220239 108.336239 111.394239 114.452239 117.510239 123.626239 129.742239 132.800239 140.731239 146.847239 152.963239 159.079239 164.755239 167.813239 173.929239 176.987239"
     y="50.780004"
     sodipodi:role="line"
     id="tspan16111">Democratic Republic of the Congo,3,1</tspan><tspan
     style="fill:#000000;fill-opacity:1;fill-rule:nonzero;stroke:none;font-family:Nimbus Sans L;font-variant:normal;font-size:11;writing-mode:lr;-inkscape-font-specification:NimbusSanL-Regu"
     x="71.450258 80.008258 86.124258 92.240258 95.903258 102.019258 104.461258 110.577258 113.635258 119.751258 122.809258"
     y="0"
     sodipodi:role="line"
     id="tspan16113">Georgia,3,2</tspan><tspan
     style="fill:#000000;fill-opacity:1;fill-rule:nonzero;stroke:none;font-family:Nimbus Sans L;font-variant:normal;font-size:11;writing-mode:lr;-inkscape-font-specification:NimbusSanL-Regu"
     x="1.92005 4.97805 11.09405 17.21005 23.32605 29.44205 35.55805 41.05805 43.50005 49.61605 52.67405 58.79005 61.84805 67.96405 71.02205 77.13805"
     y="-12.009998"
     sodipodi:role="line"
     id="tspan16115">Indonesia,3,2.33</tspan><tspan
     style="fill:#000000;fill-opacity:1;fill-rule:nonzero;stroke:none;font-family:Nimbus Sans L;font-variant:normal;font-size:11;writing-mode:lr;-inkscape-font-specification:NimbusSanL-Regu"
     x="110.60962 117.50662 123.62262 129.57362 134.85362 140.96962 144.02762 150.14362 153.20162"
     y="36.380003"
     sodipodi:role="line"
     id="tspan16117">Kenya,4,1</tspan><tspan
     style="fill:#000000;fill-opacity:1;fill-rule:nonzero;stroke:none;font-family:Nimbus Sans L;font-variant:normal;font-size:11;writing-mode:lr;-inkscape-font-specification:NimbusSanL-Regu"
     x="-112.500003 -105.163003 -102.721003 -98.893003 -96.451003 -90.335003 -84.219003 -81.161003 -78.719003 -75.661003 -69.545003 -66.487003 -60.371003"
     y="-371.84003"
     sodipodi:role="line"
     id="tspan16119">Kiribati,2,12</tspan><tspan
     style="fill:#000000;fill-opacity:1;fill-rule:nonzero;stroke:none;font-family:Nimbus Sans L;font-variant:normal;font-size:11;writing-mode:lr;-inkscape-font-specification:NimbusSanL-Regu"
     x="0.770077 9.922077 16.038077 21.538077 27.654077 36.806077 42.922077 45.364077 51.480077 57.596077 63.547077 66.605077 72.721077 75.779077 81.895077 84.953077 91.069077"
     y="12.010009"
     sodipodi:role="line"
     id="tspan16121">Mozambique,3,1.67</tspan><tspan
     style="fill:#000000;fill-opacity:1;fill-rule:nonzero;stroke:none;font-family:Nimbus Sans L;font-variant:normal;font-size:11;writing-mode:lr;-inkscape-font-specification:NimbusSanL-Regu"
     x="140.649597 148.580597 154.696597 160.812597 166.928597 169.370597 172.428597 178.544597 181.602597"
     y="1.2212453e-14"
     sodipodi:role="line"
     id="tspan16123">Nepal,3,2</tspan><tspan
     style="fill:#000000;fill-opacity:1;fill-rule:nonzero;stroke:none;font-family:Nimbus Sans L;font-variant:normal;font-size:11;writing-mode:lr;-inkscape-font-specification:NimbusSanL-Regu"
     x="-111.820038 -103.889038 -101.447038 -95.331038 -89.215038 -86.102038 -83.044038 -76.928038 -73.870038"
     y="-44.390027"
     sodipodi:role="line"
     id="tspan16125">Niger,2,3</tspan><tspan
     style="fill:#000000;fill-opacity:1;fill-rule:nonzero;stroke:none;font-family:Nimbus Sans L;font-variant:normal;font-size:11;writing-mode:lr;-inkscape-font-specification:NimbusSanL-Regu"
     x="-111.6099853 -104.7129853 -98.5969853 -93.0969853 -90.6549853 -85.1549853 -82.0969853 -75.9809853 -69.8649853 -66.8069853 -60.6909853 -57.6329853 -51.5169853 -48.4589853"
     y="-62.580012"
     sodipodi:role="line"
     id="tspan16127">Pakistan,2,3.5</tspan><tspan
     style="fill:#000000;fill-opacity:1;fill-rule:nonzero;stroke:none;font-family:Nimbus Sans L;font-variant:normal;font-size:11;writing-mode:lr;-inkscape-font-specification:NimbusSanL-Regu"
     x="-283.4901223 -276.5931223 -270.4771223 -264.3611223 -258.2451223 -252.1291223 -249.0711223 -241.1401223 -235.2441223 -227.3131223 -224.2551223 -215.6971223 -209.5811223 -207.1391223 -201.0231223 -194.9071223 -188.7911223 -185.7331223 -179.6171223 -176.5591223"
     y="-123.55004"
     sodipodi:role="line"
     id="tspan16129">Papua New Guinea,1,5</tspan><tspan
     style="fill:#000000;fill-opacity:1;fill-rule:nonzero;stroke:none;font-family:Nimbus Sans L;font-variant:normal;font-size:11;writing-mode:lr;-inkscape-font-specification:NimbusSanL-Regu"
     x="-424.2591023"
     y="26.370058"
     id="tspan16131">0</tspan><tspan
     style="fill:#000000;fill-opacity:1;fill-rule:nonzero;stroke:none;font-family:Nimbus Sans L;font-variant:normal;font-size:11;writing-mode:lr;-inkscape-font-specification:NimbusSanL-Regu"
     x="-263.9901473 -256.6531473 -250.5371473 -241.3851473 -235.2691473 -232.8271473 -230.3851473 -224.2691473 -221.2111473 -215.0951473 -212.0371473"
     y="-82.790147"
     sodipodi:role="line"
     id="tspan16133">Somalia,1,3</tspan><tspan
     style="fill:#000000;fill-opacity:1;fill-rule:nonzero;stroke:none;font-family:Nimbus Sans L;font-variant:normal;font-size:11;writing-mode:lr;-inkscape-font-specification:NimbusSanL-Regu"
     x="-1.3399903 4.0500097 10.1660097 16.2820097 21.7820097 27.8980097 34.0140097 36.4560097 42.5720097 45.6300097 51.7460097 54.8040097"
     y="36.380014"
     sodipodi:role="line"
     id="tspan16135">Tanzania,3,1</tspan><tspan
     style="fill:#000000;fill-opacity:1;fill-rule:nonzero;stroke:none;font-family:Nimbus Sans L;font-variant:normal;font-size:11;writing-mode:lr;-inkscape-font-specification:NimbusSanL-Regu"
     x="-262.9401533 -255.0091533 -249.5091533 -245.9561533 -239.8401533 -237.3981533 -231.2821533 -225.3311533 -222.2731533 -216.1571533 -213.0991533"
     y="-69.990107"
     sodipodi:role="line"
     id="tspan16137">Ukraine,1,3</tspan><tspan
     style="fill:#000000;fill-opacity:1;fill-rule:nonzero;stroke:none;font-family:Nimbus Sans L;font-variant:normal;font-size:11;writing-mode:lr;-inkscape-font-specification:NimbusSanL-Regu"
     x="216.5592627 224.4902627 229.9902627 236.1062627 242.2222627 247.7222627 250.1642627 255.6642627 258.7222627 264.8382627 270.9542627 274.0122627 280.1282627 283.1862627"
     y="-47.590037"
     sodipodi:role="line"
     id="tspan16139">Uzbekistan,5,3</tspan><tspan
     style="fill:#000000;fill-opacity:1;fill-rule:nonzero;stroke:none;font-family:Nimbus Sans L;font-variant:normal;font-size:11;writing-mode:lr;-inkscape-font-specification:NimbusSanL-Regu"
     x="-111.7599813 -104.4229813 -101.9809813 -95.8649813 -92.8069813 -89.7489813 -81.8179813 -75.7019813 -66.5499813 -63.4919813 -57.3759813 -54.3179813 -48.2019813 -45.1439813"
     y="-78.580073"
     sodipodi:role="line"
     id="tspan16141">Viet Nam,2,3.5</tspan></text>

<path
   d="m 41.219,56.352 702.39,0"
   style="fill:none;stroke:#000000;stroke-opacity:1;stroke-width:1.358711;stroke-linecap:butt;stroke-linejoin:round;stroke-miterlimit:10;stroke-dasharray:none"
   id="path16143" /><path
   d="m 41.219,227.484 702.804,0"
   style="fill:none;stroke:#666666;stroke-opacity:1;stroke-width:0.421255;stroke-linecap:butt;stroke-linejoin:round;stroke-miterlimit:10;stroke-dasharray:0.84251,1.68502;stroke-dashoffset:0.337004"
   id="path16145" /><path
   d="m 41.219,191.102 702.586,0"
   style="fill:none;stroke:#000000;stroke-opacity:1;stroke-width:1.3912;stroke-linecap:butt;stroke-linejoin:round;stroke-miterlimit:10;stroke-dasharray:2.7824,5.5648;stroke-dashoffset:1.11296"
   id="path16147" /><path
   d="m 41.219,154.719 703.023,0"
   style="fill:none;stroke:#666666;stroke-opacity:1;stroke-width:0.421321;stroke-linecap:butt;stroke-linejoin:round;stroke-miterlimit:10;stroke-dasharray:0.842641,1.685283;stroke-dashoffset:0.337057"
   id="path16149" /><path
   d="m 41.219,118.336 702.804,0"
   style="fill:none;stroke:#666666;stroke-opacity:1;stroke-width:0.421255;stroke-linecap:butt;stroke-linejoin:round;stroke-miterlimit:10;stroke-dasharray:0.84251,1.68502;stroke-dashoffset:0.337004"
   id="path16151" /><path
   d="m 41.219,300.254 702.804,0"
   style="fill:none;stroke:#666666;stroke-opacity:1;stroke-width:0.421255;stroke-linecap:butt;stroke-linejoin:round;stroke-miterlimit:10;stroke-dasharray:0.84251,1.68502;stroke-dashoffset:0.337004"
   id="path16153" /><path
   d="m 41.219,336.637 703.023,0"
   style="fill:none;stroke:#666666;stroke-opacity:1;stroke-width:0.421321;stroke-linecap:butt;stroke-linejoin:round;stroke-miterlimit:10;stroke-dasharray:0.842641,1.685283;stroke-dashoffset:0.337057"
   id="path16155" /><path
   d="m 41.219,373.023 702.804,0"
   style="fill:none;stroke:#666666;stroke-opacity:1;stroke-width:0.421255;stroke-linecap:butt;stroke-linejoin:round;stroke-miterlimit:10;stroke-dasharray:0.84251,1.68502;stroke-dashoffset:0.337004"
   id="path16157" /><path
   d="m 41.219,409.406 702.804,0"
   style="fill:none;stroke:#666666;stroke-opacity:1;stroke-width:0.421255;stroke-linecap:butt;stroke-linejoin:round;stroke-miterlimit:10;stroke-dasharray:0.84251,1.68502;stroke-dashoffset:0.337004"
   id="path16159" /><path
   d="m 41.219,482.59 703.023,0"
   style="fill:none;stroke:#666666;stroke-opacity:1;stroke-width:0.421321;stroke-linecap:butt;stroke-linejoin:round;stroke-miterlimit:10;stroke-dasharray:0.842641,1.685283;stroke-dashoffset:0.337057"
   id="path16161" /><path
   d="m 41.219,519.391 703.246,0"
   style="fill:none;stroke:#666666;stroke-opacity:1;stroke-width:0.421386;stroke-linecap:butt;stroke-linejoin:round;stroke-miterlimit:10;stroke-dasharray:0.842773,1.685546;stroke-dashoffset:0.337109"
   id="path16163" /><path
   d="m 41.219,556.191 703.246,0"
   style="fill:none;stroke:#666666;stroke-opacity:1;stroke-width:0.421386;stroke-linecap:butt;stroke-linejoin:round;stroke-miterlimit:10;stroke-dasharray:0.842773,1.685546;stroke-dashoffset:0.337109"
   id="path16165" /></g></g></g></g></g></g><g
       id="g16167"><text
   transform="matrix(1,0,0,-1,26.98,78.36)"
   id="text16169"><tspan
     style="fill:#000000;fill-opacity:1;fill-rule:nonzero;stroke:none;font-family:Nimbus Sans L;font-variant:normal;font-size:10;writing-mode:lr;-inkscape-font-specification:NimbusSanL-Regu"
     x="0"
     y="0"
     id="tspan16171">0</tspan></text>

<text
   transform="matrix(1,0,0,-1,26.98,224.07535)"
   id="text16173"><tspan
     style="fill:#000000;fill-opacity:1;fill-rule:nonzero;stroke:none;font-family:DejaVu Sans;font-variant:normal;font-weight:normal;font-size:8.8;writing-mode:lr;-inkscape-font-specification:DejaVuSans"
     x="0"
     y="0"
     id="tspan16175">4</tspan><tspan
     style="fill:#000000;fill-opacity:1;fill-rule:nonzero;stroke:none;font-family:DejaVu Sans;font-variant:normal;font-weight:normal;font-size:8.8;writing-mode:lr;-inkscape-font-specification:DejaVuSans"
     x="-3.96 1.6016"
     y="-218.12464"
     sodipodi:role="line"
     id="tspan16177">10</tspan><tspan
     style="fill:#000000;fill-opacity:1;fill-rule:nonzero;stroke:none;font-family:DejaVu Sans;font-variant:normal;font-weight:normal;font-size:8.8;writing-mode:lr;-inkscape-font-specification:DejaVuSans"
     x="-0.7600032"
     y="-145.66062"
     id="tspan16179">8</tspan><tspan
     style="fill:#000000;fill-opacity:1;fill-rule:nonzero;stroke:none;font-family:DejaVu Sans;font-variant:normal;font-weight:normal;font-size:8.8;writing-mode:lr;-inkscape-font-specification:DejaVuSans"
     x="-0.7600032"
     y="-72.892618"
     id="tspan16181">6</tspan><tspan
     style="fill:#000000;fill-opacity:1;fill-rule:nonzero;stroke:none;font-family:DejaVu Sans;font-variant:normal;font-weight:normal;font-size:8.8;writing-mode:lr;-inkscape-font-specification:DejaVuSans"
     x="-0.00000528"
     y="72.768036"
     id="tspan16183">2</tspan><tspan
     style="fill:#000000;fill-opacity:1;fill-rule:nonzero;stroke:none;font-family:DejaVu Sans;font-variant:normal;font-weight:normal;font-size:8.8;writing-mode:lr;-inkscape-font-specification:DejaVuSans"
     x="-3.96000528 1.63679472"
     y="-292.1941"
     sodipodi:role="line"
     id="tspan16185">12</tspan></text>

<path
   d="m 36.969,81.949 4.25,0"
   style="fill:none;stroke:#000000;stroke-opacity:1;stroke-width:1.06;stroke-linecap:butt;stroke-linejoin:round;stroke-miterlimit:10;stroke-dasharray:none"
   id="path16187" /><path
   d="m 36.969,227.805 4.25,0"
   style="fill:none;stroke:#000000;stroke-opacity:1;stroke-width:1.06;stroke-linecap:butt;stroke-linejoin:round;stroke-miterlimit:10;stroke-dasharray:none"
   id="path16189" /><path
   d="m 36.969,445.789 4.25,0"
   style="fill:none;stroke:#000000;stroke-opacity:1;stroke-width:1.06;stroke-linecap:butt;stroke-linejoin:round;stroke-miterlimit:10;stroke-dasharray:none"
   id="path16191" /><path
   d="m 36.969,373.34 4.25,0"
   style="fill:none;stroke:#000000;stroke-opacity:1;stroke-width:1.06;stroke-linecap:butt;stroke-linejoin:round;stroke-miterlimit:10;stroke-dasharray:none"
   id="path16193" /><path
   d="m 36.969,300.574 4.25,0"
   style="fill:none;stroke:#000000;stroke-opacity:1;stroke-width:1.06;stroke-linecap:butt;stroke-linejoin:round;stroke-miterlimit:10;stroke-dasharray:none"
   id="path16195" /><path
   d="m 36.969,155.039 4.25,0"
   style="fill:none;stroke:#000000;stroke-opacity:1;stroke-width:1.06;stroke-linecap:butt;stroke-linejoin:round;stroke-miterlimit:10;stroke-dasharray:none"
   id="path16197" /><path
   d="m 36.969,519.07 4.25,0"
   style="fill:none;stroke:#000000;stroke-opacity:1;stroke-width:1.06;stroke-linecap:butt;stroke-linejoin:round;stroke-miterlimit:10;stroke-dasharray:none"
   id="path16199" /><path
   d="m 74.691,52.23 0,4.25"
   style="fill:none;stroke:#000000;stroke-opacity:1;stroke-width:1.06;stroke-linecap:butt;stroke-linejoin:round;stroke-miterlimit:10;stroke-dasharray:none"
   id="path16201" /><path
   d="m 297.84,52.23 0,4.25"
   style="fill:none;stroke:#000000;stroke-opacity:1;stroke-width:1.06;stroke-linecap:butt;stroke-linejoin:round;stroke-miterlimit:10;stroke-dasharray:none"
   id="path16203" /><path
   d="m 520.98,52.23 0,4.25"
   style="fill:none;stroke:#000000;stroke-opacity:1;stroke-width:1.06;stroke-linecap:butt;stroke-linejoin:round;stroke-miterlimit:10;stroke-dasharray:none"
   id="path16205" /><path
   d="m 744.129,52.23 0,4.25"
   style="fill:none;stroke:#000000;stroke-opacity:1;stroke-width:1.06;stroke-linecap:butt;stroke-linejoin:round;stroke-miterlimit:10;stroke-dasharray:none"
   id="path16207" /><path
   d="m 186.598,52.23 0,4.25"
   style="fill:none;stroke:#000000;stroke-opacity:1;stroke-width:1.06;stroke-linecap:butt;stroke-linejoin:round;stroke-miterlimit:10;stroke-dasharray:none"
   id="path16209" /><path
   d="m 409.246,52.23 0,4.25"
   style="fill:none;stroke:#000000;stroke-opacity:1;stroke-width:1.06;stroke-linecap:butt;stroke-linejoin:round;stroke-miterlimit:10;stroke-dasharray:none"
   id="path16211" /><path
   d="m 632.234,52.23 0,4.25"
   style="fill:none;stroke:#000000;stroke-opacity:1;stroke-width:1.06;stroke-linecap:butt;stroke-linejoin:round;stroke-miterlimit:10;stroke-dasharray:none"
   id="path16213" /><text
   transform="matrix(1,0,0,-1,71.91,43.82)"
   id="text16215"><tspan
     style="fill:#000000;fill-opacity:1;fill-rule:nonzero;stroke:none;font-family:DejaVu Sans;font-variant:normal;font-weight:normal;font-size:8.8;writing-mode:lr;-inkscape-font-specification:DejaVuSans"
     x="0 223.1499952 446.2899936 669.4399888 111.5896672 334.5340856 557.6239856"
     y="0"
     sodipodi:role="line"
     id="tspan16217">0246135</tspan></text>







<text
   transform="scale(1,-1)"
   id="text16243"
   x="202.31973"
   y="-380.13885"><tspan
     style="font-size:16px;font-variant:normal;font-weight:bold;writing-mode:lr-tb;fill:#ff0000;fill-opacity:1;fill-rule:nonzero;stroke:none;font-family:DejaVu Sans;-inkscape-font-specification:DejaVuSans-Bold"
     x="202.31973"
     y="-380.13885"
     sodipodi:role="line"
     id="tspan16247">MEDIUM</tspan></text>

<text
   transform="scale(1,-1)"
   id="text16249"
   x="217.41911"
   y="-129.84222"><tspan
     style="font-size:16px;font-variant:normal;font-weight:bold;writing-mode:lr-tb;fill:#ff8080;fill-opacity:1;fill-rule:nonzero;stroke:none;font-family:DejaVu Sans;-inkscape-font-specification:DejaVuSans-Bold"
     x="217.41911"
     y="-129.84222"
     sodipodi:role="line"
     id="tspan16253">LOW</tspan></text>

<text
   transform="scale(1,-1)"
   id="text16255"
   x="587.02246"
   y="-125.55744"><tspan
     style="font-size:16px;font-variant:normal;font-weight:bold;writing-mode:lr-tb;fill:#ff0000;fill-opacity:1;fill-rule:nonzero;stroke:none;font-family:DejaVu Sans;-inkscape-font-specification:DejaVuSans-Bold"
     x="587.02246"
     y="-125.55744"
     sodipodi:role="line"
     id="tspan16259">MEDIUM</tspan></text>

<text
   transform="scale(1,-1)"
   id="text16261"
   x="557.58081"
   y="-377.39926"><tspan
     style="font-size:16px;font-variant:normal;font-weight:bold;writing-mode:lr-tb;fill:#800000;fill-opacity:1;fill-rule:nonzero;stroke:none;font-family:DejaVu Sans;-inkscape-font-specification:DejaVuSans-Bold"
     x="557.58081"
     y="-377.39926"
     sodipodi:role="line"
     id="tspan16265">HIGH</tspan></text>

<text
   transform="scale(1,-1)"
   id="text16267"
   x="520.30701"
   y="-23.959887"><tspan
     style="font-size:8px;font-variant:normal;font-weight:normal;writing-mode:lr-tb;fill:#000000;fill-opacity:1;fill-rule:nonzero;stroke:none;font-family:DejaVu Sans;-inkscape-font-specification:DejaVuSans"
     x="520.30701 525.77905 530.84302 533.979 539.04303 543.93103 547.21906 551.40302 554.091 556.62701 562.78705 567.68304 572.41101 574.62701 579.69904 582.23505 587.30701 589.84302 596.13904 601.21106 606.09906 610.49902 615.56305 618.09906 624.33105 626.867 632.35504 637.27502 642.33905 644.55505 649.45105 657.26703 659.48303 664.54706 667.08301 672.15503 676.54706 681.61102 684.755 689.67505 691.89105 696.96301 701.88306 705.17102 707.70703 710.39502 712.93103 715.28302 720.203 725.26703 727.80304 732.89105 737.979 743.091"
     y="-23.959887"
     sodipodi:role="line"
     id="tspan16269">Authors: David S Opoku &amp; Benjamin Schreiber | Jan 2014</tspan><tspan
     style="font-size:8px;font-variant:normal;font-weight:normal;writing-mode:lr-tb;fill:#000000;fill-opacity:1;fill-rule:nonzero;stroke:none;font-family:DejaVu Sans;-inkscape-font-specification:DejaVuSans"
     x="520.30701 526.46704 531.36304 534.49902 539.39502 541.93103 546.091 550.979 556.04303 559.18701 563.57904 568.49902 571.18701 573.72302 576.07501 580.96301 583.17902 588.24304 591.40302 593.93903 599.13904 604.05902 609.13104 614.01904 617.30701 620.44305 622.65906 627.72302 632.79504 635.33105 639.67505 644.56305 647.71503 655.50702 658.04303 660.73102 663.26703 667.755 672.651 675.78705 679.07501 681.29102 685.68304 690.33905 692.875 696.59503 701.32306 706.39502 711.28302"
     y="-13.959887"
     sodipodi:role="line"
     id="tspan16271">Data source: Joint Reporting Form | Patrick Lydon</tspan></text>








</g><flowRoot
       xml:space="preserve"
       id="flowRoot4013"
       style="font-size:40px;font-style:normal;font-weight:normal;line-height:125%;letter-spacing:0px;word-spacing:0px;fill:#000000;fill-opacity:1;stroke:none;font-family:Sans"
       transform="matrix(0.8,0,0,-0.8,481.17073,328.39024)"><flowRegion
         id="flowRegion4015"><rect
           id="rect4017"
           width="119.63417"
           height="69.146339"
           x="64.756096"
           y="-215.12195" /></flowRegion><flowPara
         id="flowPara4019"
         style="font-size:18px;fill:#800000;font-weight:bold">High: 2</flowPara><flowPara
         id="flowPara4021"
         style="font-size:18px;fill:#ff0000;font-weight:bold">Medium: 16</flowPara><flowPara
         id="flowPara4023"
         style="font-size:18px;fill:#ff8080;font-weight:bold">Low: 54</flowPara></flowRoot></g></svg>