<?xml version="1.0" encoding="UTF-8" standalone="no"?>
<!-- Created with Inkscape (http://www.inkscape.org/) -->

<svg
   xmlns:dc="http://purl.org/dc/elements/1.1/"
   xmlns:cc="http://creativecommons.org/ns#"
   xmlns:rdf="http://www.w3.org/1999/02/22-rdf-syntax-ns#"
   xmlns:svg="http://www.w3.org/2000/svg"
   xmlns="http://www.w3.org/2000/svg"
   xmlns:sodipodi="http://sodipodi.sourceforge.net/DTD/sodipodi-0.dtd"
   xmlns:inkscape="http://www.inkscape.org/namespaces/inkscape"
   id="svg3004"
   version="1.1"
   inkscape:version="0.48.3.1 r9886"
   width="1005.4498"
   height="872.12195"
   xml:space="preserve"
   sodipodi:docname="NSO_DTP_GAVI_G3_SameSize_draft.svg"><metadata
     id="metadata3010"><rdf:RDF><cc:Work
         rdf:about=""><dc:format>image/svg+xml</dc:format><dc:type
           rdf:resource="http://purl.org/dc/dcmitype/StillImage" /><dc:title /></cc:Work></rdf:RDF></metadata><defs
     id="defs3008"><clipPath
       clipPathUnits="userSpaceOnUse"
       id="clipPath3022"><path
         d="M 0,0 792,0 792,612 0,612 0,0 z"
         id="path3024"
         inkscape:connector-curvature="0" /></clipPath><clipPath
       clipPathUnits="userSpaceOnUse"
       id="clipPath3038"><path
         d="m 41.22,37.28 637.88,0 0,560.32 -637.88,0 0,-560.32 z"
         id="path3040"
         inkscape:connector-curvature="0" /></clipPath></defs><sodipodi:namedview
     pagecolor="#ffffff"
     bordercolor="#666666"
     borderopacity="1"
     objecttolerance="10"
     gridtolerance="10"
     guidetolerance="10"
     inkscape:pageopacity="0"
     inkscape:pageshadow="2"
     inkscape:window-width="1440"
     inkscape:window-height="876"
     id="namedview3006"
     showgrid="false"
     fit-margin-top="0"
     fit-margin-left="0"
     fit-margin-right="0"
     fit-margin-bottom="0"
     inkscape:zoom="0.90355694"
     inkscape:cx="496.23686"
     inkscape:cy="432.42856"
     inkscape:window-x="0"
     inkscape:window-y="24"
     inkscape:window-maximized="1"
     inkscape:current-layer="g3012" /><g
     id="g3012"
     inkscape:groupmode="layer"
     inkscape:label="NSO_DTP_GAVI_G3_SameSize_2"
     transform="matrix(1.25,0,0,-1.25,-25.16,747)"><g
       id="g3014" /><g
       id="g3016" /><g
       id="g3028" /><g
       id="g3030" /><g
       id="g3032" /><g
       id="g3034"
       transform="matrix(1.0410035,0,0,1.0554814,53.168091,-76.352089)"><g
         id="g3036"
         clip-path="url(#clipPath3038)"><path
   d="m 71.217349,171.5876 579.754491,0"
   style="fill:#000000;stroke:#000000;stroke-width:1.32629061;stroke-linecap:butt;stroke-linejoin:round;stroke-miterlimit:10;stroke-opacity:1;stroke-dasharray:2.65258144, 5.30516289;stroke-dashoffset:1.06103267"
   id="path3044"
   inkscape:connector-curvature="0" /><path
   d="m 166.87,37.28 0,560.32"
   style="fill:none;stroke:#f2f2f2;stroke-width:0.11114904;stroke-linecap:butt;stroke-linejoin:round;stroke-miterlimit:10;stroke-opacity:1;stroke-dasharray:0.22229807, 0.44459614;stroke-dashoffset:0.04445962"
   id="path3050"
   inkscape:connector-curvature="0" /><path
   d="m 360.16499,63.273751 0,471.706309"
   style="fill:#000000;stroke:#000000;stroke-width:1.27646041;stroke-linecap:butt;stroke-linejoin:round;stroke-miterlimit:10;stroke-opacity:1;stroke-dasharray:2.55292086, 5.10584174;stroke-dashoffset:1.02116844"
   id="path3052"
   inkscape:connector-curvature="0" /><path
   d="m 553.46,37.28 0,560.32"
   style="fill:none;stroke:#f2f2f2;stroke-width:0.11114904;stroke-linecap:butt;stroke-linejoin:round;stroke-miterlimit:10;stroke-opacity:1;stroke-dasharray:0.22229807, 0.44459614;stroke-dashoffset:0.04445962"
   id="path3054"
   inkscape:connector-curvature="0" /><path
   d="m 41.22,62.75 637.89,0"
   style="fill:none;stroke:#ffffff;stroke-width:0.2222981;stroke-linecap:butt;stroke-linejoin:round;stroke-miterlimit:10;stroke-opacity:1;stroke-dasharray:0.44459619, 0.88919239;stroke-dashoffset:0.08891924"
   id="path3056"
   inkscape:connector-curvature="0" /><path
   d="m 41.22,244.67 637.89,0"
   style="fill:none;stroke:#ffffff;stroke-width:0.2222981;stroke-linecap:butt;stroke-linejoin:round;stroke-miterlimit:10;stroke-opacity:1;stroke-dasharray:0.44459619, 0.88919239;stroke-dashoffset:0.08891924"
   id="path3058"
   inkscape:connector-curvature="0" /><path
   d="m 69.238556,426.59 579.851794,0"
   style="fill:#4d4d4d;stroke:#4d4d4d;stroke-width:0.41111594;stroke-linecap:butt;stroke-linejoin:round;stroke-miterlimit:10;stroke-opacity:1;stroke-dasharray:0.82223192, 1.64446384;stroke-dashoffset:0.32889276"
   id="path3060"
   inkscape:connector-curvature="0" /><path
   d="m 70.22,37.28 0,560.32"
   style="fill:none;stroke:#ffffff;stroke-width:0.2222981;stroke-linecap:butt;stroke-linejoin:round;stroke-miterlimit:10;stroke-opacity:1;stroke-dasharray:0.44459619, 0.88919239;stroke-dashoffset:0.08891924"
   id="path3062"
   inkscape:connector-curvature="0" /><path
   d="m 263.52,37.28 0,560.32"
   style="fill:none;stroke:#ffffff;stroke-width:0.2222981;stroke-linecap:butt;stroke-linejoin:round;stroke-miterlimit:10;stroke-opacity:1;stroke-dasharray:0.44459619, 0.88919239;stroke-dashoffset:0.08891924"
   id="path3064"
   inkscape:connector-curvature="0" /><path
   d="m 456.81,37.28 0,560.32"
   style="fill:none;stroke:#ffffff;stroke-width:0.2222981;stroke-linecap:butt;stroke-linejoin:round;stroke-miterlimit:10;stroke-opacity:1;stroke-dasharray:0.44459619, 0.88919239;stroke-dashoffset:0.08891924"
   id="path3066"
   inkscape:connector-curvature="0" /><path
   d="m 650.11,37.28 0,560.32"
   style="fill:none;stroke:#ffffff;stroke-width:0.2222981;stroke-linecap:butt;stroke-linejoin:round;stroke-miterlimit:10;stroke-opacity:1;stroke-dasharray:0.44459619, 0.88919239;stroke-dashoffset:0.08891924"
   id="path3068"
   inkscape:connector-curvature="0" /><path
   d="m 354.85,135.52 c 0,2.92 2.39,5.32 5.31,5.32 2.93,0 5.32,-2.4 5.32,-5.32 0,-2.92 -2.39,-5.31 -5.32,-5.31 -2.92,0 -5.31,2.39 -5.31,5.31"
   style="fill:#00a9ff;fill-opacity:1;fill-rule:nonzero;stroke:none"
   id="path3070"
   inkscape:connector-curvature="0" /><path
   d="m 161.55,171.9 c 0,2.93 2.39,5.32 5.32,5.32 2.92,0 5.31,-2.39 5.31,-5.32 0,-2.92 -2.39,-5.31 -5.31,-5.31 -2.93,0 -5.32,2.39 -5.32,5.31"
   style="fill:#f8766d;fill-opacity:1;fill-rule:nonzero;stroke:none"
   id="path3072"
   inkscape:connector-curvature="0" /><path
   d="m 451.5,181 c 0,2.92 2.39,5.32 5.31,5.32 2.93,0 5.32,-2.4 5.32,-5.32 0,-2.92 -2.39,-5.31 -5.32,-5.31 -2.92,0 -5.31,2.39 -5.31,5.31"
   style="fill:#214478;fill-opacity:1;fill-rule:nonzero;stroke:none"
   id="path3074"
   inkscape:connector-curvature="0" /><path
   d="m 354.85,99.14 c 0,2.92 2.39,5.31 5.31,5.31 2.93,0 5.32,-2.39 5.32,-5.31 0,-2.93 -2.39,-5.32 -5.32,-5.32 -2.92,0 -5.31,2.39 -5.31,5.32"
   style="fill:#f8766d;fill-opacity:1;fill-rule:nonzero;stroke:none"
   id="path3076"
   inkscape:connector-curvature="0" /><path
   d="m 354.85,135.52 c 0,2.92 2.39,5.32 5.31,5.32 2.93,0 5.32,-2.4 5.32,-5.32 0,-2.92 -2.39,-5.31 -5.32,-5.31 -2.92,0 -5.31,2.39 -5.31,5.31"
   style="fill:#00a9ff;fill-opacity:1;fill-rule:nonzero;stroke:none"
   id="path3078"
   inkscape:connector-curvature="0" /><path
   d="m 354.85,147.53 c 0,2.92 2.39,5.31 5.31,5.31 2.93,0 5.32,-2.39 5.32,-5.31 0,-2.93 -2.39,-5.32 -5.32,-5.32 -2.92,0 -5.31,2.39 -5.31,5.32"
   style="fill:#214478;fill-opacity:1;fill-rule:nonzero;stroke:none"
   id="path3080"
   inkscape:connector-curvature="0" /><path
   d="m 451.5,99.14 c 0,2.92 2.39,5.31 5.31,5.31 2.93,0 5.32,-2.39 5.32,-5.31 0,-2.93 -2.39,-5.32 -5.32,-5.32 -2.92,0 -5.31,2.39 -5.31,5.32"
   style="fill:#214478;fill-opacity:1;fill-rule:nonzero;stroke:none"
   id="path3082"
   inkscape:connector-curvature="0" /><path
   d="m 258.2,499.36 c 0,2.93 2.39,5.32 5.32,5.32 2.92,0 5.31,-2.39 5.31,-5.32 0,-2.92 -2.39,-5.31 -5.31,-5.31 -2.93,0 -5.32,2.39 -5.32,5.31"
   style="fill:#214478;fill-opacity:1;fill-rule:nonzero;stroke:none"
   id="path3084"
   inkscape:connector-curvature="0" /><path
   d="m 354.85,123.51 c 0,2.93 2.39,5.32 5.31,5.32 2.93,0 5.32,-2.39 5.32,-5.32 0,-2.92 -2.39,-5.31 -5.32,-5.31 -2.92,0 -5.31,2.39 -5.31,5.31"
   style="fill:#214478;fill-opacity:1;fill-rule:nonzero;stroke:none"
   id="path3086"
   inkscape:connector-curvature="0" /><path
   d="m 354.85,135.52 c 0,2.92 2.39,5.32 5.31,5.32 2.93,0 5.32,-2.4 5.32,-5.32 0,-2.92 -2.39,-5.31 -5.32,-5.31 -2.92,0 -5.31,2.39 -5.31,5.31"
   style="fill:#214478;fill-opacity:1;fill-rule:nonzero;stroke:none"
   id="path3088"
   inkscape:connector-curvature="0" /><path
   d="m 258.2,171.9 c 0,2.93 2.39,5.32 5.32,5.32 2.92,0 5.31,-2.39 5.31,-5.32 0,-2.92 -2.39,-5.31 -5.31,-5.31 -2.93,0 -5.32,2.39 -5.32,5.31"
   style="fill:#214478;fill-opacity:1;fill-rule:nonzero;stroke:none"
   id="path3090"
   inkscape:connector-curvature="0" /><path
   d="m 258.2,190.1 c 0,2.92 2.39,5.31 5.32,5.31 2.92,0 5.31,-2.39 5.31,-5.31 0,-2.93 -2.39,-5.32 -5.31,-5.32 -2.93,0 -5.32,2.39 -5.32,5.32"
   style="fill:#00bfc4;fill-opacity:1;fill-rule:nonzero;stroke:none"
   id="path3092"
   inkscape:connector-curvature="0" /><path
   d="m 161.55,244.67 c 0,2.93 2.39,5.32 5.32,5.32 2.92,0 5.31,-2.39 5.31,-5.32 0,-2.92 -2.39,-5.31 -5.31,-5.31 -2.93,0 -5.32,2.39 -5.32,5.31"
   style="fill:#214478;fill-opacity:1;fill-rule:nonzero;stroke:none"
   id="path3094"
   inkscape:connector-curvature="0" /><path
   d="m 161.55,171.9 c 0,2.93 2.39,5.32 5.32,5.32 2.92,0 5.31,-2.39 5.31,-5.32 0,-2.92 -2.39,-5.31 -5.31,-5.31 -2.93,0 -5.32,2.39 -5.32,5.31"
   style="fill:#00bfc4;fill-opacity:1;fill-rule:nonzero;stroke:none"
   id="path3096"
   inkscape:connector-curvature="0" /><path
   d="m 354.85,99.14 c 0,2.92 2.39,5.31 5.31,5.31 2.93,0 5.32,-2.39 5.32,-5.31 0,-2.93 -2.39,-5.32 -5.32,-5.32 -2.92,0 -5.31,2.39 -5.31,5.32"
   style="fill:#214478;fill-opacity:1;fill-rule:nonzero;stroke:none"
   id="path3098"
   inkscape:connector-curvature="0" /><path
   d="m 161.55,171.9 c 0,2.93 2.39,5.32 5.32,5.32 2.92,0 5.31,-2.39 5.31,-5.32 0,-2.92 -2.39,-5.31 -5.31,-5.31 -2.93,0 -5.32,2.39 -5.32,5.31"
   style="fill:#214478;fill-opacity:1;fill-rule:nonzero;stroke:none"
   id="path3100"
   inkscape:connector-curvature="0" /><path
   d="m 548.15,171.9 c 0,2.93 2.39,5.32 5.31,5.32 2.93,0 5.32,-2.39 5.32,-5.32 0,-2.92 -2.39,-5.31 -5.32,-5.31 -2.92,0 -5.31,2.39 -5.31,5.31"
   style="fill:#214478;fill-opacity:1;fill-rule:nonzero;stroke:none"
   id="path3102"
   inkscape:connector-curvature="0" /><path
   d="m 258.2,190.1 c 0,2.92 2.39,5.31 5.32,5.31 2.92,0 5.31,-2.39 5.31,-5.31 0,-2.93 -2.39,-5.32 -5.31,-5.32 -2.93,0 -5.32,2.39 -5.32,5.32"
   style="fill:#214478;fill-opacity:1;fill-rule:nonzero;stroke:none"
   id="path3104"
   inkscape:connector-curvature="0" /><text
   transform="scale(1,-1)"
   id="text3106"
   x="376.78018"
   y="-131.57001"><tspan
     style="font-size:11px;font-variant:normal;font-weight:normal;writing-mode:lr-tb;fill:#000000;fill-opacity:1;fill-rule:nonzero;stroke:none;font-family:Helvetica;-inkscape-font-specification:Helvetica"
     x="376.78018 384.11716 388.05518 397.21817 403.33417 409.45016 411.89218 418.00818 421.06616 427.18216 430.24017"
     y="-131.57001"
     sodipodi:role="line"
     id="tspan3108">Armenia,3,2</tspan></text>





<text
   transform="scale(1,-1)"
   id="text3110"
   x="139.088"
   y="-204.76015"><tspan
     style="font-size:11px;font-variant:normal;font-weight:normal;writing-mode:lr-tb;fill:#000000;fill-opacity:1;fill-rule:nonzero;stroke:none;font-family:Helvetica;-inkscape-font-specification:Helvetica"
     x="139.088 147.02998 153.14598 159.26198 165.37798 171.05397 174.11198 180.22798 183.286"
     y="-204.76015"
     sodipodi:role="line"
     id="tspan3112">Congo,1,3</tspan></text>





<text
   transform="scale(1,-1)"
   id="text3114"
   x="465.25015"
   y="-178.64999"><tspan
     style="font-size:11px;font-variant:normal;font-weight:normal;writing-mode:lr-tb;fill:#000000;fill-opacity:1;fill-rule:nonzero;stroke:none;font-family:Helvetica;-inkscape-font-specification:Helvetica"
     x="465.25015 473.19214 479.30814 485.42413 491.54016 494.59814 500.71414 503.77216 509.88812 512.94611 519.06201"
     y="-178.64999"
     sodipodi:role="line"
     id="tspan3116">Cuba,4,3.25</tspan></text>





<text
   transform="scale(1,-1)"
   id="text3118"
   x="366.82037"
   y="-88.790001"
   style="font-size:10.39999962px;font-style:normal;font-variant:normal;font-weight:normal;font-stretch:normal;text-align:start;line-height:100%;writing-mode:lr-tb;text-anchor:start;font-family:Sans;-inkscape-font-specification:Sans"
   sodipodi:linespacing="100%"><tspan
     sodipodi:role="line"
     id="tspan4375"
     x="366.82037"
     y="-88.790001">Democratic </tspan><tspan
     sodipodi:role="line"
     id="tspan4377"
     x="366.82037"
     y="-78.389999">Republic of </tspan><tspan
     sodipodi:role="line"
     id="tspan4379"
     x="366.82037"
     y="-67.990005">the Congo,3,1</tspan></text>





<text
   transform="scale(1,-1)"
   id="text3122"
   x="448.23044"
   y="-131.57001"><tspan
     style="font-size:11px;font-variant:normal;font-weight:normal;writing-mode:lr-tb;fill:#000000;fill-opacity:1;fill-rule:nonzero;stroke:none;font-family:Helvetica;-inkscape-font-specification:Helvetica"
     x="448.23044 456.78845 462.90445 469.02045 472.68344 478.79944 481.24146 487.35742 490.41547 496.53143 499.58942"
     y="-131.57001"
     sodipodi:role="line"
     id="tspan3124">Georgia,3,2</tspan></text>





<text
   transform="scale(1,-1)"
   id="text3126"
   x="377.10022"
   y="-145.17999"><tspan
     style="font-size:11px;font-variant:normal;font-weight:normal;writing-mode:lr-tb;fill:#000000;fill-opacity:1;fill-rule:nonzero;stroke:none;font-family:Helvetica;-inkscape-font-specification:Helvetica"
     x="377.10022 380.15823 386.27423 392.39023 398.50623 404.62222 410.73822 416.23822 418.68024 424.7962 427.85422 433.97021 437.02823 443.14423 446.20221 452.31824"
     y="-145.17999"
     sodipodi:role="line"
     id="tspan3128">Indonesia,3,2.33</tspan></text>





<text
   transform="scale(1,-1)"
   id="text3130"
   x="464.46011"
   y="-95.190002"><tspan
     style="font-size:11px;font-variant:normal;font-weight:normal;writing-mode:lr-tb;fill:#000000;fill-opacity:1;fill-rule:nonzero;stroke:none;font-family:Helvetica;-inkscape-font-specification:Helvetica"
     x="464.46011 471.35712 477.47311 483.4241 488.7041 494.82013 497.87811 503.99411 507.05212"
     y="-95.190002"
     sodipodi:role="line"
     id="tspan3132">Kenya,4,1</tspan></text>





<text
   transform="scale(1,-1)"
   id="text3134"
   x="269.59012"
   y="-490.60999"
   style="fill:#000000"><tspan
     style="font-size:11px;font-variant:normal;font-weight:normal;writing-mode:lr-tb;fill:#000000;fill-opacity:1;fill-rule:nonzero;stroke:none;font-family:Helvetica;-inkscape-font-specification:Helvetica"
     x="269.59012 276.92712 279.36914 283.19711 285.63913 291.75513 297.87112 300.92914 303.37112 306.42914 312.54514 315.60315 321.71915"
     y="-490.60999"
     sodipodi:role="line"
     id="tspan3136">Kiribati,2,12</tspan></text>





<text
   transform="scale(1,-1)"
   id="text3138"
   x="375.95026"
   y="-119.56001"><tspan
     style="font-size:11px;font-variant:normal;font-weight:normal;writing-mode:lr-tb;fill:#000000;fill-opacity:1;fill-rule:nonzero;stroke:none;font-family:Helvetica;-inkscape-font-specification:Helvetica"
     x="375.95026 385.11325 391.22925 396.72925 402.84525 412.00824 418.12424 420.56625 426.68225 432.79825 438.74924 441.80725 447.92325 450.98123 457.09726 460.15524 466.27124"
     y="-119.56001"
     sodipodi:role="line"
     id="tspan3140">Mozambique,3,1.67</tspan></text>





<text
   transform="scale(1,-1)"
   id="text3142"
   x="520.62054"
   y="-131.57001"><tspan
     style="font-size:11px;font-variant:normal;font-weight:normal;writing-mode:lr-tb;fill:#000000;fill-opacity:1;fill-rule:nonzero;stroke:none;font-family:Helvetica;-inkscape-font-specification:Helvetica"
     x="520.62054 528.56238 534.67822 540.79419 546.91003 549.35199 552.40991 558.52582 561.58374"
     y="-131.57001"
     sodipodi:role="line"
     id="tspan3144">Nepal,3,2</tspan></text>





<text
   transform="scale(1,-1)"
   id="text3146"
   x="273.4801"
   y="-174.36003"><tspan
     style="font-size:11px;font-variant:normal;font-weight:normal;writing-mode:lr-tb;fill:#000000;fill-opacity:1;fill-rule:nonzero;stroke:none;font-family:Helvetica;-inkscape-font-specification:Helvetica"
     x="273.4801 281.42212 283.86411 289.9801 296.09613 299.20911 302.26712 308.38312 311.4411"
     y="-174.36003"
     sodipodi:role="line"
     id="tspan3148">Niger,2,3</tspan></text>





<text
   transform="scale(1,-1)"
   id="text3150"
   x="272.08014"
   y="-190.95001"><tspan
     style="font-size:11px;font-variant:normal;font-weight:normal;writing-mode:lr-tb;fill:#000000;fill-opacity:1;fill-rule:nonzero;stroke:none;font-family:Helvetica;-inkscape-font-specification:Helvetica"
     x="272.08014 278.97714 285.09314 290.59314 293.03516 298.53516 301.59317 307.70917 313.82516 316.88315 322.99915 326.05716 332.17316 335.23117"
     y="-190.95001"
     sodipodi:role="line"
     id="tspan3152">Pakistan,2,3.5</tspan></text>





<text
   transform="scale(1,-1)"
   id="text3154"
   x="110.33"
   y="-263.12009"><tspan
     style="font-size:11px;font-variant:normal;font-weight:normal;writing-mode:lr-tb;fill:#000000;fill-opacity:1;fill-rule:nonzero;stroke:none;font-family:Helvetica;-inkscape-font-specification:Helvetica"
     x="110.33 117.227 123.343 129.459 135.575 141.69099 144.74899 152.69099 158.58701 166.52901 169.58701 178.145 184.261 186.703 192.819 198.935 205.05099 208.10899 214.22499 217.283"
     y="-263.12009"
     sodipodi:role="line"
     id="tspan3156">Papua New Guinea,1,5</tspan></text>





<text
   transform="scale(1,-1)"
   id="text3158"
   x="139.088"
   y="-191.9601"><tspan
     style="font-size:11px;font-variant:normal;font-weight:normal;writing-mode:lr-tb;fill:#000000;fill-opacity:1;fill-rule:nonzero;stroke:none;font-family:Helvetica;-inkscape-font-specification:Helvetica"
     x="139.088 146.425 152.541 161.70401 167.82001 170.26201 172.70401 178.82001 181.87801 187.994 191.052"
     y="-191.9601"
     sodipodi:role="line"
     id="tspan3160">Somalia,1,3</tspan></text>





<text
   transform="scale(1,-1)"
   id="text3162"
   x="367.43015"
   y="-103.18999"><tspan
     style="font-size:11px;font-variant:normal;font-weight:normal;writing-mode:lr-tb;fill:#000000;fill-opacity:1;fill-rule:nonzero;stroke:none;font-family:Helvetica;-inkscape-font-specification:Helvetica"
     x="367.43015 372.83115 378.94714 385.06314 390.56314 396.67914 402.79514 405.23715 411.35315 414.41113 420.52716 423.58514"
     y="-103.18999"
     sodipodi:role="line"
     id="tspan3164">Tanzania,3,1</tspan></text>





<text
   transform="scale(1,-1)"
   id="text3166"
   x="138.681"
   y="-179.16005"><tspan
     style="font-size:11px;font-variant:normal;font-weight:normal;writing-mode:lr-tb;fill:#000000;fill-opacity:1;fill-rule:nonzero;stroke:none;font-family:Helvetica;-inkscape-font-specification:Helvetica"
     x="138.681 146.623 152.123 155.67599 161.79199 164.23399 170.34999 176.30099 179.35899 185.47499 188.53299"
     y="-179.16005"
     sodipodi:role="line"
     id="tspan3168">Ukraine,1,3</tspan></text>





<text
   transform="scale(1,-1)"
   id="text3170"
   x="560.28937"
   y="-174.36003"><tspan
     style="font-size:11px;font-variant:normal;font-weight:normal;writing-mode:lr-tb;fill:#000000;fill-opacity:1;fill-rule:nonzero;stroke:none;font-family:Helvetica;-inkscape-font-specification:Helvetica"
     x="560.28937 568.23138 573.73138 579.84735 585.96338 591.46338 593.9054 599.4054 602.46338 608.57935 614.69537 617.75336 623.86938 626.92737"
     y="-174.36003"
     sodipodi:role="line"
     id="tspan3172">Uzbekistan,5,3</tspan></text>





<text
   transform="scale(1,-1)"
   id="text3174"
   x="271.94016"
   y="-205.35007"><tspan
     style="font-size:11px;font-variant:normal;font-weight:normal;writing-mode:lr-tb;fill:#000000;fill-opacity:1;fill-rule:nonzero;stroke:none;font-family:Helvetica;-inkscape-font-specification:Helvetica"
     x="271.94016 279.27716 281.71915 287.83514 290.89316 293.95117 301.89316 308.00916 317.17215 320.23016 326.34616 329.40417 335.52017 338.57816"
     y="-205.35007"
     sodipodi:role="line"
     id="tspan3176">Viet Nam,2,3.5</tspan></text>





<path
   inkscape:connector-curvature="0"
   id="path4242"
   style="fill:#333333;stroke:#333333;stroke-width:0.39520654;stroke-linecap:butt;stroke-linejoin:round;stroke-miterlimit:10;stroke-opacity:1;stroke-dasharray:0.79041309, 1.58082618;stroke-dashoffset:0.31616527"
   d="m 263.52,61.774796 0,389.301624 0,81.37959"
   sodipodi:nodetypes="ccc" /><path
   d="m 166.87,62.775412 0,470.034388"
   style="fill:#333333;stroke:#333333;stroke-width:0.39493489;stroke-linecap:butt;stroke-linejoin:round;stroke-miterlimit:10;stroke-opacity:1;stroke-dasharray:0.7898698, 1.57973959;stroke-dashoffset:0.31594796"
   id="path4244"
   inkscape:connector-curvature="0" /><path
   inkscape:connector-curvature="0"
   id="path4246"
   style="fill:#000000;stroke:#000000;stroke-width:0.39471191;stroke-linecap:butt;stroke-linejoin:round;stroke-miterlimit:10;stroke-opacity:1;stroke-dasharray:none;stroke-dashoffset:0.33717178"
   d="m 70.22,62.780266 0,469.503774" /><path
   inkscape:connector-curvature="0"
   id="path4248"
   style="fill:#4d4d4d;stroke:#4d4d4d;stroke-width:0.3952193;stroke-linecap:butt;stroke-linejoin:round;stroke-miterlimit:10;stroke-opacity:1;stroke-dasharray:0.79043857, 1.58087715;stroke-dashoffset:0.31617546"
   d="m 456.81,62.275104 0,470.711566" /><path
   d="m 650.0922,62.775408 0,470.034392"
   style="fill:#4d4d4d;stroke:#4d4d4d;stroke-width:0.39493489;stroke-linecap:butt;stroke-linejoin:round;stroke-miterlimit:10;stroke-opacity:1;stroke-dasharray:0.7898698, 1.57973959;stroke-dashoffset:0.31594796"
   id="path4254"
   inkscape:connector-curvature="0" /><path
   inkscape:connector-curvature="0"
   id="path4256"
   style="fill:#4d4d4d;stroke:#4d4d4d;stroke-width:0.39536777;stroke-linecap:butt;stroke-linejoin:round;stroke-miterlimit:10;stroke-opacity:1;stroke-dasharray:0.79073555, 1.5814711;stroke-dashoffset:0.31629425"
   d="m 553.45109,62.2751 0,471.06534" /><path
   inkscape:connector-curvature="0"
   id="path4258"
   style="fill:#4d4d4d;stroke:#4d4d4d;stroke-width:0.41133478;stroke-linecap:butt;stroke-linejoin:round;stroke-miterlimit:10;stroke-opacity:1;stroke-dasharray:0.82266959, 1.64533919;stroke-dashoffset:0.32906783"
   d="m 69.238556,244.3556 580.469264,0" /><path
   d="m 73.241207,62.4356 576.466653,0"
   style="fill:#000000;stroke:#000000;stroke-width:0.40991417;stroke-linecap:butt;stroke-linejoin:round;stroke-miterlimit:10;stroke-opacity:1;stroke-dasharray:none;stroke-dashoffset:0.33619025"
   id="path4260"
   inkscape:connector-curvature="0" /><path
   inkscape:connector-curvature="0"
   id="path4262"
   style="fill:#4d4d4d;stroke:#4d4d4d;stroke-width:0.41133478;stroke-linecap:butt;stroke-linejoin:round;stroke-miterlimit:10;stroke-opacity:1;stroke-dasharray:0.82266959, 1.64533919;stroke-dashoffset:0.32906783"
   d="m 69.238556,135.2036 580.469264,0" /><path
   d="m 69.238556,98.819605 580.469264,0"
   style="fill:#4d4d4d;stroke:#4d4d4d;stroke-width:0.41133478;stroke-linecap:butt;stroke-linejoin:round;stroke-miterlimit:10;stroke-opacity:1;stroke-dasharray:0.82266959, 1.64533919;stroke-dashoffset:0.32906783"
   id="path4264"
   inkscape:connector-curvature="0" /><path
   inkscape:connector-curvature="0"
   id="path4266"
   style="fill:#4d4d4d;stroke:#4d4d4d;stroke-width:0.41098008;stroke-linecap:butt;stroke-linejoin:round;stroke-miterlimit:10;stroke-opacity:1;stroke-dasharray:0.8219602, 1.6439204;stroke-dashoffset:0.32878407"
   d="m 70.239218,207.9716 579.468612,0" /><path
   d="m 70.239218,282.59 579.468612,0"
   style="fill:#4d4d4d;stroke:#4d4d4d;stroke-width:0.41098008;stroke-linecap:butt;stroke-linejoin:round;stroke-miterlimit:10;stroke-opacity:1;stroke-dasharray:0.8219602, 1.6439204;stroke-dashoffset:0.32878407"
   id="path4268"
   inkscape:connector-curvature="0" /><path
   inkscape:connector-curvature="0"
   id="path4270"
   style="fill:#4d4d4d;stroke:#4d4d4d;stroke-width:0.41148147;stroke-linecap:butt;stroke-linejoin:round;stroke-miterlimit:10;stroke-opacity:1;stroke-dasharray:0.82296299, 1.64592599;stroke-dashoffset:0.32918519"
   d="m 69.238556,319.39 580.883384,0" /><path
   d="m 69.238556,360.99 580.469264,0"
   style="fill:#4d4d4d;stroke:#4d4d4d;stroke-width:0.41133478;stroke-linecap:butt;stroke-linejoin:round;stroke-miterlimit:10;stroke-opacity:1;stroke-dasharray:0.82266959, 1.64533919;stroke-dashoffset:0.32906783"
   id="path4272"
   inkscape:connector-curvature="0" /><path
   inkscape:connector-curvature="0"
   id="path4274"
   style="fill:#4d4d4d;stroke:#4d4d4d;stroke-width:0.41148147;stroke-linecap:butt;stroke-linejoin:round;stroke-miterlimit:10;stroke-opacity:1;stroke-dasharray:0.82296299, 1.64592599;stroke-dashoffset:0.32918519"
   d="m 69.238556,397.79 580.883384,0" /><path
   d="m 70.239218,462.58999 579.351462,0"
   style="fill:#4d4d4d;stroke:#4d4d4d;stroke-width:0.41093853;stroke-linecap:butt;stroke-linejoin:round;stroke-miterlimit:10;stroke-opacity:1;stroke-dasharray:0.82187712, 1.64375422;stroke-dashoffset:0.32875084"
   id="path4276"
   inkscape:connector-curvature="0" /><path
   inkscape:connector-curvature="0"
   id="path4278"
   style="fill:#4d4d4d;stroke:#4d4d4d;stroke-width:0.41129327;stroke-linecap:butt;stroke-linejoin:round;stroke-miterlimit:10;stroke-opacity:1;stroke-dasharray:0.82258658, 1.64517315;stroke-dashoffset:0.32903462"
   d="m 69.238556,498.59 580.352124,0" /><path
   d="m 69.238556,532.19 579.351464,0"
   style="fill:#4d4d4d;stroke:#4d4d4d;stroke-width:0.41093853;stroke-linecap:butt;stroke-linejoin:round;stroke-miterlimit:10;stroke-opacity:1;stroke-dasharray:0.82187711, 1.64375422;stroke-dashoffset:0.32875084"
   id="path4373"
   inkscape:connector-curvature="0" /><path
   inkscape:connector-curvature="0"
   id="path4569"
   style="fill:#214478;fill-opacity:1;fill-rule:nonzero;stroke:none"
   d="m 258.2,135.52 c 0,2.93 2.39,5.32 5.32,5.32 2.92,0 5.31,-2.39 5.31,-5.32 0,-2.92 -2.39,-5.31 -5.31,-5.31 -2.93,0 -5.32,2.39 -5.32,5.31" /></g></g><g
       id="g3178" /><g
       id="g3180" /><g
       id="g3182"
       style="fill:#000000"
       transform="matrix(1.0410035,0,0,1.0554814,78.152176,-76.352089)"><text
   transform="matrix(1,0,0,-1,28.58,59.16)"
   id="text3184"
   style="fill:#000000"><tspan
     style="font-size:10px;font-variant:normal;font-weight:normal;writing-mode:lr-tb;fill:#000000;fill-opacity:1;fill-rule:nonzero;stroke:none;font-family:Helvetica;-inkscape-font-specification:Helvetica"
     x="0"
     y="0"
     id="tspan3186">0</tspan></text>





<text
   transform="scale(1,-1)"
   id="text3188"
   style="font-size:10.39999962px;font-style:normal;font-variant:normal;font-weight:normal;font-stretch:normal;text-align:start;line-height:125%;writing-mode:lr-tb;text-anchor:start;fill:#000000;font-family:Sans;-inkscape-font-specification:Sans"
   sodipodi:linespacing="125%"
   x="28.58"
   y="-204.27986"><tspan
     sodipodi:role="line"
     id="tspan4361"
     x="28.58"
     y="-204.27986">4</tspan></text>





<text
   transform="matrix(1,0,0,-1,23.02,423)"
   id="text3192"
   style="font-size:10.39999962px;font-style:normal;font-variant:normal;font-weight:normal;font-stretch:normal;text-align:start;line-height:125%;writing-mode:lr-tb;text-anchor:start;fill:#000000;font-family:Sans;-inkscape-font-specification:Sans"
   sodipodi:linespacing="125%"><tspan
     style="font-size:10.39999962px;font-style:normal;font-variant:normal;font-weight:normal;font-stretch:normal;text-align:start;line-height:125%;writing-mode:lr-tb;text-anchor:start;fill:#000000;fill-opacity:1;fill-rule:nonzero;stroke:none;font-family:Sans;-inkscape-font-specification:Sans"
     x="0 5.5599999"
     y="0"
     sodipodi:role="line"
     id="tspan3194">10</tspan></text>





<text
   y="-132.75996"
   x="28.58"
   transform="scale(1,-1)"
   id="text4331"
   style="font-size:10.39999962px;font-style:normal;font-variant:normal;font-weight:normal;font-stretch:normal;text-align:start;line-height:125%;writing-mode:lr-tb;text-anchor:start;fill:#000000;font-family:Sans;-inkscape-font-specification:Sans"
   sodipodi:linespacing="125%"><tspan
     sodipodi:role="line"
     id="tspan4363"
     x="28.58"
     y="-132.75996">2</tspan></text>





<text
   y="-492.76132"
   x="20.579998"
   transform="scale(1,-1)"
   id="text4339"
   style="font-size:10.39999962px;font-style:normal;font-variant:normal;font-weight:normal;font-stretch:normal;text-align:start;line-height:125%;writing-mode:lr-tb;text-anchor:start;fill:#000000;font-family:Sans;-inkscape-font-specification:Sans"
   sodipodi:linespacing="125%"><tspan
     sodipodi:role="line"
     id="tspan4357"
     x="20.579998"
     y="-492.76132">12</tspan></text>





<text
   style="font-size:10.39999962px;font-style:normal;font-variant:normal;font-weight:normal;font-stretch:normal;text-align:start;line-height:125%;writing-mode:lr-tb;text-anchor:start;fill:#000000;font-family:Sans;-inkscape-font-specification:Sans"
   id="text4343"
   transform="scale(1,-1)"
   x="28.58"
   y="-355.1608"
   sodipodi:linespacing="125%"><tspan
     sodipodi:role="line"
     id="tspan4359"
     x="28.58"
     y="-355.1608">8</tspan></text>





<text
   y="-278.3605"
   x="28.58"
   transform="scale(1,-1)"
   id="text4347"
   style="font-size:10.39999962px;font-style:normal;font-variant:normal;font-weight:normal;font-stretch:normal;text-align:start;line-height:125%;writing-mode:lr-tb;text-anchor:start;fill:#000000;font-family:Sans;-inkscape-font-specification:Sans"
   sodipodi:linespacing="125%"><tspan
     sodipodi:role="line"
     id="tspan4355"
     x="28.58"
     y="-278.3605">6</tspan></text>





</g><g
       id="g3196" /><g
       id="g3198"
       transform="matrix(1.0410035,0,0,1.0554814,81.483387,-76.352089)"
       style="fill:#000000;stroke:#000000"><path
         d="m 36.97,62.755481 4.25,0"
         style="fill:#000000;stroke:#000000;stroke-width:1.05999994;stroke-linecap:butt;stroke-linejoin:round;stroke-miterlimit:10;stroke-opacity:1;stroke-dasharray:none"
         id="path3200"
         inkscape:connector-curvature="0" /><path
         d="m 36.97,282.90936 4.25,0"
         style="fill:#000000;stroke:#000000;stroke-width:1.05999994;stroke-linecap:butt;stroke-linejoin:round;stroke-miterlimit:10;stroke-opacity:1;stroke-dasharray:none"
         id="path3202"
         inkscape:connector-curvature="0" /><path
         d="m 36.97,426.90919 4.25,0"
         style="fill:#000000;stroke:#000000;stroke-width:1.05999994;stroke-linecap:butt;stroke-linejoin:round;stroke-miterlimit:10;stroke-opacity:1;stroke-dasharray:none"
         id="path3204"
         inkscape:connector-curvature="0" /><path
         inkscape:connector-curvature="0"
         id="path4365"
         style="fill:#000000;stroke:#000000;stroke-width:1.05999994;stroke-linecap:butt;stroke-linejoin:round;stroke-miterlimit:10;stroke-opacity:1;stroke-dasharray:none"
         d="m 36.97,498.27081 4.25,0" /><path
         inkscape:connector-curvature="0"
         id="path4367"
         style="fill:#000000;stroke:#000000;stroke-width:1.05999994;stroke-linecap:butt;stroke-linejoin:round;stroke-miterlimit:10;stroke-opacity:1;stroke-dasharray:none"
         d="m 36.97,360.67081 4.25,0" /><path
         d="m 36.97,208.29096 4.25,0"
         style="fill:#000000;stroke:#000000;stroke-width:1.05999994;stroke-linecap:butt;stroke-linejoin:round;stroke-miterlimit:10;stroke-opacity:1;stroke-dasharray:none"
         id="path4369"
         inkscape:connector-curvature="0" /><path
         inkscape:connector-curvature="0"
         id="path4371"
         style="fill:#000000;stroke:#000000;stroke-width:1.05999994;stroke-linecap:butt;stroke-linejoin:round;stroke-miterlimit:10;stroke-opacity:1;stroke-dasharray:none"
         d="m 36.97,135.52279 4.25,0" /></g><g
       id="g3206" /><g
       id="g3208" /><g
       id="g3210" /><g
       id="g3212" /><g
       id="g3214" /><g
       id="g3216"
       style="fill:#000000;stroke:#000000"
       transform="matrix(1.0410035,0,0,1.0554814,53.168091,-51.020537)"><path
         d="m 70.22,33.03 0,4.25"
         style="fill:#000000;stroke:#000000;stroke-width:1.05999994;stroke-linecap:butt;stroke-linejoin:round;stroke-miterlimit:10;stroke-opacity:1;stroke-dasharray:none"
         id="path3218"
         inkscape:connector-curvature="0" /><path
         d="m 263.51072,33.03 0,4.25"
         style="fill:#000000;stroke:#000000;stroke-width:1.05999994;stroke-linecap:butt;stroke-linejoin:round;stroke-miterlimit:10;stroke-opacity:1;stroke-dasharray:none"
         id="path3220"
         inkscape:connector-curvature="0" /><path
         d="m 456.80144,33.03 0,4.25"
         style="fill:#000000;stroke:#000000;stroke-width:1.05999994;stroke-linecap:butt;stroke-linejoin:round;stroke-miterlimit:10;stroke-opacity:1;stroke-dasharray:none"
         id="path3222"
         inkscape:connector-curvature="0" /><path
         d="m 650.09219,33.03 0,4.25"
         style="fill:#000000;stroke:#000000;stroke-width:1.05999994;stroke-linecap:butt;stroke-linejoin:round;stroke-miterlimit:10;stroke-opacity:1;stroke-dasharray:none"
         id="path3224"
         inkscape:connector-curvature="0" /><path
         inkscape:connector-curvature="0"
         id="path4284"
         style="fill:#000000;stroke:#000000;stroke-width:1.05999994;stroke-linecap:butt;stroke-linejoin:round;stroke-miterlimit:10;stroke-opacity:1;stroke-dasharray:none"
         d="m 166.86536,33.03 0,4.25" /><path
         d="m 360.1561,33.03 0,4.25"
         style="fill:#000000;stroke:#000000;stroke-width:1.05999994;stroke-linecap:butt;stroke-linejoin:round;stroke-miterlimit:10;stroke-opacity:1;stroke-dasharray:none"
         id="path4286"
         inkscape:connector-curvature="0" /><path
         inkscape:connector-curvature="0"
         id="path4288"
         style="fill:#000000;stroke:#000000;stroke-width:1.05999994;stroke-linecap:butt;stroke-linejoin:round;stroke-miterlimit:10;stroke-opacity:1;stroke-dasharray:none"
         d="m 553.44679,33.03 0,4.25" /></g><g
       id="g3226" /><g
       id="g3228"
       style="fill:#000000"
       transform="matrix(1.0410035,0,0,1.0554814,53.168091,-51.020537)"><text
   transform="matrix(1,0,0,-1,67.44,23.02)"
   id="text3230"
   style="font-size:10.39999962px;font-style:normal;font-variant:normal;font-weight:normal;font-stretch:normal;text-align:start;line-height:125%;writing-mode:lr-tb;text-anchor:start;fill:#000000;font-family:Sans;-inkscape-font-specification:Sans"
   sodipodi:linespacing="125%"><tspan
     style="font-size:10.39999962px;font-style:normal;font-variant:normal;font-weight:normal;font-stretch:normal;text-align:start;line-height:125%;writing-mode:lr-tb;text-anchor:start;fill:#000000;fill-opacity:1;fill-rule:nonzero;stroke:none;font-family:Sans;-inkscape-font-specification:Sans"
     x="0"
     y="0"
     id="tspan3232">0</tspan></text>





<text
   transform="scale(1,-1)"
   id="text3234"
   style="font-size:10.39999962px;font-style:normal;font-variant:normal;font-weight:normal;font-stretch:normal;text-align:start;line-height:125%;writing-mode:lr-tb;text-anchor:start;fill:#000000;font-family:Sans;-inkscape-font-specification:Sans"
   sodipodi:linespacing="125%"
   x="260.88647"
   y="-23.02"><tspan
     style="font-size:10.39999962px;font-style:normal;font-variant:normal;font-weight:normal;font-stretch:normal;text-align:start;line-height:125%;writing-mode:lr-tb;text-anchor:start;fill:#000000;fill-opacity:1;fill-rule:nonzero;stroke:none;font-family:Sans;-inkscape-font-specification:Sans"
     x="260.88647"
     y="-23.02"
     id="tspan3236">2</tspan></text>





<text
   transform="scale(1,-1)"
   id="text3238"
   style="font-size:10.39999962px;font-style:normal;font-variant:normal;font-weight:normal;font-stretch:normal;text-align:start;line-height:125%;writing-mode:lr-tb;text-anchor:start;fill:#000000;font-family:Sans;-inkscape-font-specification:Sans"
   sodipodi:linespacing="125%"
   x="454.0943"
   y="-23.02"><tspan
     style="font-size:10.39999962px;font-style:normal;font-variant:normal;font-weight:normal;font-stretch:normal;text-align:start;line-height:125%;writing-mode:lr-tb;text-anchor:start;fill:#000000;fill-opacity:1;fill-rule:nonzero;stroke:none;font-family:Sans;-inkscape-font-specification:Sans"
     x="454.0943"
     y="-23.02"
     id="tspan3240">4</tspan></text>





<text
   transform="scale(1,-1)"
   id="text3242"
   style="font-size:10.39999962px;font-style:normal;font-variant:normal;font-weight:normal;font-stretch:normal;text-align:start;line-height:125%;writing-mode:lr-tb;text-anchor:start;fill:#000000;font-family:Sans;-inkscape-font-specification:Sans"
   sodipodi:linespacing="125%"
   x="647.33002"
   y="-23.02"><tspan
     style="font-size:10.39999962px;font-style:normal;font-variant:normal;font-weight:normal;font-stretch:normal;text-align:start;line-height:125%;writing-mode:lr-tb;text-anchor:start;fill:#000000;fill-opacity:1;fill-rule:nonzero;stroke:none;font-family:Sans;-inkscape-font-specification:Sans"
     x="647.33002"
     y="-23.02"
     id="tspan3244">6</tspan></text>





<text
   style="font-size:10.39999962px;font-style:normal;font-variant:normal;font-weight:normal;font-stretch:normal;text-align:start;line-height:125%;writing-mode:lr-tb;text-anchor:start;fill:#000000;font-family:Sans;-inkscape-font-specification:Sans"
   id="text4290"
   transform="scale(1,-1)"
   x="164.00075"
   y="-23.02"
   sodipodi:linespacing="125%"><tspan
     sodipodi:role="line"
     id="tspan4306"
     x="164.00075"
     y="-23.02">1</tspan></text>





<text
   y="-23.02"
   x="357.42184"
   transform="scale(1,-1)"
   id="text4294"
   style="font-size:10.39999962px;font-style:normal;font-variant:normal;font-weight:normal;font-stretch:normal;text-align:start;line-height:125%;writing-mode:lr-tb;text-anchor:start;fill:#000000;font-family:Sans;-inkscape-font-specification:Sans"
   sodipodi:linespacing="125%"><tspan
     sodipodi:role="line"
     id="tspan4304"
     x="357.42184"
     y="-23.02">3</tspan></text>





<text
   style="font-size:10.39999962px;font-style:normal;font-variant:normal;font-weight:normal;font-stretch:normal;text-align:start;line-height:125%;writing-mode:lr-tb;text-anchor:start;fill:#000000;font-family:Sans;-inkscape-font-specification:Sans"
   id="text4298"
   transform="scale(1,-1)"
   x="550.76422"
   y="-23.02"
   sodipodi:linespacing="125%"><tspan
     sodipodi:role="line"
     id="tspan4302"
     x="550.76422"
     y="-23.02">5</tspan></text>





</g><g
       id="g3246" /><g
       id="g3248" /><g
       id="g3250" /><g
       id="g3252" /><g
       id="g3254"
       style="fill:#000000"
       transform="matrix(1.0410035,0,0,1.0554814,48.368091,-61.419468)"><text
   transform="matrix(1,0,0,-1,281.01,10.8)"
   id="text3256"
   style="fill:#000000"><tspan
     style="font-size:12px;font-variant:normal;font-weight:normal;writing-mode:lr-tb;fill:#000000;fill-opacity:1;fill-rule:nonzero;stroke:none;font-family:Helvetica;-inkscape-font-specification:Helvetica"
     x="0 5.8920002 12.564 15.9 22.572001 25.236 28.572001 37.236 43.908001 50.580002 57.251999 60.588001 63.924 70.596001 73.931999 77.267998 85.931999 93.264 101.268 104.604 112.608 115.944 122.616 128.616 134.616 141.62399 148.29601 154.968"
     y="0"
     sodipodi:role="line"
     id="tspan3258">Total Count of DTP Stock−out</tspan></text>





</g><g
       id="g3260" /><g
       id="g3262"
       transform="matrix(1.0410035,0,0,1.0554814,63.161725,-76.352089)"
       style="fill:#000000"><text
   transform="matrix(0,1,1,0,19.42,212.41)"
   id="text3264"
   style="fill:#000000"><tspan
     style="font-size:12px;font-variant:normal;font-weight:normal;writing-mode:lr-tb;fill:#000000;fill-opacity:1;fill-rule:nonzero;stroke:none;font-family:Helvetica;-inkscape-font-specification:Helvetica"
     x="0 7.5240002 13.224 19.896 23.771999 30.444 37.116001 43.787998 47.124001 55.787998 62.459999 66.335999 73.008003 76.344002 79.008003 85.68 92.351997 95.688004 102.36 105.696 109.032 117.036 120.372 127.044 133.04401 139.04401 146.052 152.724 159.396 162.73199 166.728 176.724 183.396 190.06799 193.40401 200.076 206.076"
     y="0"
     sodipodi:role="line"
     id="tspan3266">Average Duration of Stock−out(months)</tspan></text>





</g><g
       id="g3268" /><g
       id="g3270" /><g
       id="g3272" /><g
       id="g3274" /><g
       id="g3276" /><g
       id="g3282" /><g
       id="g3290" /><g
       id="g3296" /><g
       id="g3302" /><g
       id="g3308" /><g
       id="g3314" /><g
       id="g3320" /><g
       id="g3326" /><g
       id="g3332" /><g
       id="g3338" /><g
       id="g3344" /><g
       id="g3350" /><g
       id="g3356" /><g
       id="g3362" /><g
       id="g3368" /><g
       id="g3374" /><g
       id="g3380" /><g
       id="g3386" /><g
       id="g3394" /><g
       id="g3402" /><g
       id="g3410" /><g
       id="g3418" /><g
       id="g3426" /><g
       id="g3434" /><g
       id="g3442" /><g
       id="g3450" /><g
       id="g3452" /><g
       id="g3454" /><g
       id="g3456" /><g
       id="g3458" /><g
       id="g3460" /><g
       id="g3462" /><g
       id="g3464" /><g
       id="g3466" /><g
       id="g3468" /><g
       id="g3470" /><g
       id="g3472" /><flowRoot
       xml:space="preserve"
       id="flowRoot4381"
       style="font-size:20px;font-style:normal;font-variant:normal;font-weight:normal;font-stretch:normal;text-align:start;line-height:125%;letter-spacing:0px;word-spacing:0px;writing-mode:lr-tb;text-anchor:start;fill:#000000;fill-opacity:1;stroke:none;font-family:Sans;-inkscape-font-specification:Sans"
       transform="matrix(0.84737789,0,0,-0.84438507,166.6515,193.08178)"><flowRegion
         id="flowRegion4383"><rect
           id="rect4385"
           width="721.9718"
           height="96.346329"
           x="-50.050041"
           y="-423.50034"
           style="font-size:20px;font-style:normal;font-variant:normal;font-weight:normal;font-stretch:normal;text-align:start;line-height:125%;writing-mode:lr-tb;text-anchor:start;fill:#000000;font-family:Sans;-inkscape-font-specification:Sans" /></flowRegion><flowPara
         id="flowPara4387">Risk levels of GAVI countries  due to number and duration of DTP stock-outs(SOs). Medium risk countries had 3 or more total counts or avg duration of SOs. High risk countries had 3 or more total counts and athat had vg<flowSpan
   style="font-weight:bold"
   id="flowSpan4395">3 or more DTP stock-outs</flowSpan> or an <flowSpan
   style="font-weight:bold"
   id="flowSpan4393">average of 3 or more months</flowSpan> stock-outs from <flowSpan
   style="font-weight:bold"
   id="flowSpan4389">2005 to 2012</flowSpan>.  18 countries out of 72 fit this profile. <flowSpan
   style="font-style:normal;font-weight:bold"
   id="flowSpan3765">Low risk countries not shown.</flowSpan></flowPara></flowRoot><flowRoot
       xml:space="preserve"
       id="flowRoot5353"
       style="font-size:40px;font-style:normal;font-weight:normal;line-height:125%;letter-spacing:0px;word-spacing:0px;fill:#000000;fill-opacity:1;stroke:none;font-family:Sans"
       transform="matrix(0.8,0,0,-0.8,12.558176,521.72269)"><flowRegion
         id="flowRegion5355"><rect
           id="rect5357"
           width="324.87805"
           height="46.097561"
           x="645.36584"
           y="705.73169" /></flowRegion><flowPara
         id="flowPara5359"
         style="font-size:10px;font-style:normal;font-variant:normal;font-weight:normal;font-stretch:normal;text-align:start;line-height:125%;writing-mode:lr-tb;text-anchor:start;font-family:Sans;-inkscape-font-specification:Sans">Authors: David S Opoku &amp; Benjamin Schreiber | Jan 2014</flowPara><flowPara
         style="font-size:10px;font-style:normal;font-variant:normal;font-weight:normal;font-stretch:normal;text-align:start;line-height:125%;writing-mode:lr-tb;text-anchor:start;font-family:Sans;-inkscape-font-specification:Sans"
         id="flowPara5363">Data source: Joint Reporting Form | Patrick Lydon</flowPara><flowPara
         style="font-size:10px;font-style:normal;font-variant:normal;font-weight:normal;font-stretch:normal;text-align:start;line-height:125%;writing-mode:lr-tb;text-anchor:start;font-family:Sans;-inkscape-font-specification:Sans"
         id="flowPara5361" /></flowRoot><flowRoot
       xml:space="preserve"
       id="flowRoot3733"
       style="font-size:40px;font-style:normal;font-weight:normal;text-align:center;line-height:125%;letter-spacing:0px;word-spacing:0px;text-anchor:middle;fill:#000000;fill-opacity:1;stroke:none;font-family:Sans"
       transform="matrix(0.8,0,0,-0.8,72.50559,594.4)"><flowRegion
         id="flowRegion3735"><rect
           id="rect3737"
           width="74.89325"
           height="49.048302"
           x="601.20758"
           y="313.54544"
           style="text-align:center;text-anchor:middle" /></flowRegion><flowPara
         id="flowPara3739"
         style="font-size:20px;font-weight:bold;text-align:center;text-anchor:middle;fill:#800000">HIGH RISK</flowPara></flowRoot><flowRoot
       transform="matrix(0.8,0,0,-0.8,-248.69441,592.81932)"
       style="font-size:40px;font-style:normal;font-weight:normal;text-align:center;line-height:125%;letter-spacing:0px;word-spacing:0px;text-anchor:middle;fill:#000000;fill-opacity:1;stroke:none;font-family:Sans"
       id="flowRoot3741"
       xml:space="preserve"><flowRegion
         id="flowRegion3743"><rect
           y="313.54544"
           x="601.20758"
           height="51.048302"
           width="99.89325"
           id="rect3745"
           style="text-align:center;text-anchor:middle" /></flowRegion><flowPara
         style="font-size:20px;font-weight:bold;text-align:center;text-anchor:middle;fill:#ff0000"
         id="flowPara3747">MEDIUM RISK</flowPara></flowRoot><flowRoot
       xml:space="preserve"
       id="flowRoot3749"
       style="font-size:40px;font-style:normal;font-weight:normal;text-align:center;line-height:125%;letter-spacing:0px;word-spacing:0px;text-anchor:middle;fill:#000000;fill-opacity:1;stroke:none;font-family:Sans"
       transform="matrix(0.8,0,0,-0.8,107.30559,300.01932)"><flowRegion
         id="flowRegion3751"><rect
           style="text-align:center;text-anchor:middle"
           id="rect3753"
           width="99.89325"
           height="51.048302"
           x="601.20758"
           y="313.54544" /></flowRegion><flowPara
         id="flowPara3755"
         style="font-size:20px;font-weight:bold;text-align:center;text-anchor:middle;fill:#ff0000">MEDIUM RISK</flowPara></flowRoot><flowRoot
       xml:space="preserve"
       id="flowRoot3757"
       style="font-size:40px;font-style:normal;font-weight:normal;text-align:center;line-height:125%;letter-spacing:0px;word-spacing:0px;text-anchor:middle;fill:#000000;fill-opacity:1;stroke:none;font-family:Sans"
       transform="matrix(0.8,0,0,-0.8,-248.93269,316.81932)"><flowRegion
         id="flowRegion3759"><rect
           style="text-align:center;text-anchor:middle"
           id="rect3761"
           width="99.89325"
           height="51.048302"
           x="601.20758"
           y="313.54544" /></flowRegion><flowPara
         id="flowPara3763"
         style="font-size:20px;font-weight:bold;text-align:center;text-anchor:middle;fill:#ff8080">LOW RISK</flowPara></flowRoot></g></svg>