<?xml version="1.0" encoding="UTF-8" standalone="no"?>
<!-- Created with Inkscape (http://www.inkscape.org/) -->

<svg
   xmlns:dc="http://purl.org/dc/elements/1.1/"
   xmlns:cc="http://creativecommons.org/ns#"
   xmlns:rdf="http://www.w3.org/1999/02/22-rdf-syntax-ns#"
   xmlns:svg="http://www.w3.org/2000/svg"
   xmlns="http://www.w3.org/2000/svg"
   xmlns:sodipodi="http://sodipodi.sourceforge.net/DTD/sodipodi-0.dtd"
   xmlns:inkscape="http://www.inkscape.org/namespaces/inkscape"
   id="svg4014"
   version="1.1"
   inkscape:version="0.48.3.1 r9886"
   width="990"
   height="765"
   xml:space="preserve"
   sodipodi:docname="NSO_DTP_GAVI_G3_SameSize.pdf"><metadata
     id="metadata4020"><rdf:RDF><cc:Work
         rdf:about=""><dc:format>image/svg+xml</dc:format><dc:type
           rdf:resource="http://purl.org/dc/dcmitype/StillImage" /><dc:title></dc:title></cc:Work></rdf:RDF></metadata><defs
     id="defs4018"><clipPath
       clipPathUnits="userSpaceOnUse"
       id="clipPath4032"><path
         d="M 0,0 792,0 792,612 0,612 0,0 z"
         id="path4034" /></clipPath><clipPath
       clipPathUnits="userSpaceOnUse"
       id="clipPath4048"><path
         d="m 41.22,37.28 637.88,0 0,560.32 -637.88,0 0,-560.32 z"
         id="path4050" /></clipPath></defs><sodipodi:namedview
     pagecolor="#ffffff"
     bordercolor="#666666"
     borderopacity="1"
     objecttolerance="10"
     gridtolerance="10"
     guidetolerance="10"
     inkscape:pageopacity="0"
     inkscape:pageshadow="2"
     inkscape:window-width="1440"
     inkscape:window-height="876"
     id="namedview4016"
     showgrid="false"
     inkscape:zoom="0.91111111"
     inkscape:cx="495"
     inkscape:cy="382.5"
     inkscape:window-x="0"
     inkscape:window-y="24"
     inkscape:window-maximized="1"
     inkscape:current-layer="g4022" /><g
     id="g4022"
     inkscape:groupmode="layer"
     inkscape:label="NSO_DTP_GAVI_G3_SameSize"
     transform="matrix(1.25,0,0,-1.25,0,765)"><g
       id="g4024" /><g
       id="g4026" /><g
       id="g4028"><g
         id="g4030"
         clip-path="url(#clipPath4032)"><path
           d="M 0,0 792,0 792,612 0,612 0,0 z"
           style="fill:#ffffff;fill-opacity:1;fill-rule:nonzero;stroke:#ffffff;stroke-opacity:1;stroke-width:1.06;stroke-linecap:round;stroke-linejoin:round;stroke-miterlimit:10;stroke-dasharray:none"
           id="path4036" /></g></g><g
       id="g4038" /><g
       id="g4040" /><g
       id="g4042" /><g
       id="g4044"><g
         id="g4046"
         clip-path="url(#clipPath4048)"><path
           d="m 41.22,37.28 637.88,0 0,560.32 -637.88,0 0,-560.32 z"
           style="fill:#e5e5e5;fill-opacity:1;fill-rule:nonzero;stroke:none"
           id="path4052" /><path
           d="m 41.22,153.71 637.89,0"
           style="fill:none;stroke:#f2f2f2;stroke-opacity:1;stroke-width:0.53;stroke-linecap:butt;stroke-linejoin:round;stroke-miterlimit:10;stroke-dasharray:none"
           id="path4054" /><path
           d="m 41.22,335.63 637.89,0"
           style="fill:none;stroke:#f2f2f2;stroke-opacity:1;stroke-width:0.53;stroke-linecap:butt;stroke-linejoin:round;stroke-miterlimit:10;stroke-dasharray:none"
           id="path4056" /><path
           d="m 41.22,517.55 637.89,0"
           style="fill:none;stroke:#f2f2f2;stroke-opacity:1;stroke-width:0.53;stroke-linecap:butt;stroke-linejoin:round;stroke-miterlimit:10;stroke-dasharray:none"
           id="path4058" /><path
           d="m 166.87,37.28 0,560.32"
           style="fill:none;stroke:#000000;stroke-opacity:1;stroke-width:0.53000000000000003;stroke-linecap:butt;stroke-linejoin:round;stroke-miterlimit:10;stroke-dasharray:none"
           id="path4060" /><path
           d="m 360.16,37.28 0,560.32"
           style="fill:none;stroke:#000000;stroke-opacity:1;stroke-width:0.53000000000000003;stroke-linecap:butt;stroke-linejoin:round;stroke-miterlimit:10;stroke-dasharray:none"
           id="path4062" /><path
           d="m 553.46,37.28 0,560.32"
           style="fill:none;stroke:#000000;stroke-opacity:1;stroke-width:0.53000000000000003;stroke-linecap:butt;stroke-linejoin:round;stroke-miterlimit:10;stroke-dasharray:none"
           id="path4064" /><path
           d="m 41.22,62.75 637.89,0"
           style="fill:none;stroke:#ffffff;stroke-opacity:1;stroke-width:1.06;stroke-linecap:butt;stroke-linejoin:round;stroke-miterlimit:10;stroke-dasharray:none"
           id="path4066" /><path
           d="m 41.22,244.67 637.89,0"
           style="fill:none;stroke:#ffffff;stroke-opacity:1;stroke-width:1.06;stroke-linecap:butt;stroke-linejoin:round;stroke-miterlimit:10;stroke-dasharray:none"
           id="path4068" /><path
           d="m 41.22,426.59 637.89,0"
           style="fill:none;stroke:#ffffff;stroke-opacity:1;stroke-width:1.06;stroke-linecap:butt;stroke-linejoin:round;stroke-miterlimit:10;stroke-dasharray:none"
           id="path4070" /><path
           d="m 70.22,37.28 0,560.32"
           style="fill:none;stroke:#000000;stroke-opacity:1;stroke-width:1.06000000000000005;stroke-linecap:butt;stroke-linejoin:round;stroke-miterlimit:10;stroke-dasharray:none"
           id="path4072" /><path
           d="m 263.52,37.28 0,560.32"
           style="fill:none;stroke:#000000;stroke-opacity:1;stroke-width:1.06000000000000005;stroke-linecap:butt;stroke-linejoin:round;stroke-miterlimit:10;stroke-dasharray:none"
           id="path4074" /><path
           d="m 456.81,37.28 0,560.32"
           style="fill:none;stroke:#000000;stroke-opacity:1;stroke-width:1.06000000000000005;stroke-linecap:butt;stroke-linejoin:round;stroke-miterlimit:10;stroke-dasharray:none"
           id="path4076" /><path
           d="m 650.11,37.28 0,560.32"
           style="fill:none;stroke:#ffffff;stroke-opacity:1;stroke-width:1.06;stroke-linecap:butt;stroke-linejoin:round;stroke-miterlimit:10;stroke-dasharray:none"
           id="path4078" /><path
           d="m 354.85,135.52 c 0,2.92 2.39,5.32 5.31,5.32 2.93,0 5.32,-2.4 5.32,-5.32 0,-2.92 -2.39,-5.31 -5.32,-5.31 -2.92,0 -5.31,2.39 -5.31,5.31"
           style="fill:#00a9ff;fill-opacity:1;fill-rule:nonzero;stroke:none"
           id="path4080" /><path
           d="m 161.55,171.9 c 0,2.93 2.39,5.32 5.32,5.32 2.92,0 5.31,-2.39 5.31,-5.32 0,-2.92 -2.39,-5.31 -5.31,-5.31 -2.93,0 -5.32,2.39 -5.32,5.31"
           style="fill:#f8766d;fill-opacity:1;fill-rule:nonzero;stroke:none"
           id="path4082" /><path
           d="m 451.5,181 c 0,2.92 2.39,5.32 5.31,5.32 2.93,0 5.32,-2.4 5.32,-5.32 0,-2.92 -2.39,-5.31 -5.32,-5.31 -2.92,0 -5.31,2.39 -5.31,5.31"
           style="fill:#00be67;fill-opacity:1;fill-rule:nonzero;stroke:none"
           id="path4084" /><path
           d="m 354.85,99.14 c 0,2.92 2.39,5.31 5.31,5.31 2.93,0 5.32,-2.39 5.32,-5.31 0,-2.93 -2.39,-5.32 -5.32,-5.32 -2.92,0 -5.31,2.39 -5.31,5.32"
           style="fill:#f8766d;fill-opacity:1;fill-rule:nonzero;stroke:none"
           id="path4086" /><path
           d="m 354.85,135.52 c 0,2.92 2.39,5.32 5.31,5.32 2.93,0 5.32,-2.4 5.32,-5.32 0,-2.92 -2.39,-5.31 -5.32,-5.31 -2.92,0 -5.31,2.39 -5.31,5.31"
           style="fill:#00a9ff;fill-opacity:1;fill-rule:nonzero;stroke:none"
           id="path4088" /><path
           d="m 354.85,147.65 c 0,2.92 2.39,5.31 5.31,5.31 2.93,0 5.32,-2.39 5.32,-5.31 0,-2.93 -2.39,-5.32 -5.32,-5.32 -2.92,0 -5.31,2.39 -5.31,5.32"
           style="fill:#c77cff;fill-opacity:1;fill-rule:nonzero;stroke:none"
           id="path4090" /><path
           d="m 451.5,99.14 c 0,2.92 2.39,5.31 5.31,5.31 2.93,0 5.32,-2.39 5.32,-5.31 0,-2.93 -2.39,-5.32 -5.32,-5.32 -2.92,0 -5.31,2.39 -5.31,5.32"
           style="fill:#cd9600;fill-opacity:1;fill-rule:nonzero;stroke:none"
           id="path4092" /><path
           d="m 258.2,499.36 c 0,2.93 2.39,5.32 5.32,5.32 2.92,0 5.31,-2.39 5.31,-5.32 0,-2.92 -2.39,-5.31 -5.31,-5.31 -2.93,0 -5.32,2.39 -5.32,5.31"
           style="fill:#ff61cc;fill-opacity:1;fill-rule:nonzero;stroke:none"
           id="path4094" /><path
           d="m 354.85,123.39 c 0,2.93 2.39,5.32 5.31,5.32 2.93,0 5.32,-2.39 5.32,-5.32 0,-2.92 -2.39,-5.31 -5.32,-5.31 -2.92,0 -5.31,2.39 -5.31,5.31"
           style="fill:#cd9600;fill-opacity:1;fill-rule:nonzero;stroke:none"
           id="path4096" /><path
           d="m 354.85,135.52 c 0,2.92 2.39,5.32 5.31,5.32 2.93,0 5.32,-2.4 5.32,-5.32 0,-2.92 -2.39,-5.31 -5.32,-5.31 -2.92,0 -5.31,2.39 -5.31,5.31"
           style="fill:#c77cff;fill-opacity:1;fill-rule:nonzero;stroke:none"
           id="path4098" /><path
           d="m 258.2,171.9 c 0,2.93 2.39,5.32 5.32,5.32 2.92,0 5.31,-2.39 5.31,-5.32 0,-2.92 -2.39,-5.31 -5.31,-5.31 -2.93,0 -5.32,2.39 -5.32,5.31"
           style="fill:#7cae00;fill-opacity:1;fill-rule:nonzero;stroke:none"
           id="path4100" /><path
           d="m 258.2,190.1 c 0,2.92 2.39,5.31 5.32,5.31 2.92,0 5.31,-2.39 5.31,-5.31 0,-2.93 -2.39,-5.32 -5.31,-5.32 -2.93,0 -5.32,2.39 -5.32,5.32"
           style="fill:#00bfc4;fill-opacity:1;fill-rule:nonzero;stroke:none"
           id="path4102" /><path
           d="m 161.55,244.67 c 0,2.93 2.39,5.32 5.32,5.32 2.92,0 5.31,-2.39 5.31,-5.32 0,-2.92 -2.39,-5.31 -5.31,-5.31 -2.93,0 -5.32,2.39 -5.32,5.31"
           style="fill:#ff61cc;fill-opacity:1;fill-rule:nonzero;stroke:none"
           id="path4104" /><path
           d="m 161.55,171.9 c 0,2.93 2.39,5.32 5.32,5.32 2.92,0 5.31,-2.39 5.31,-5.32 0,-2.92 -2.39,-5.31 -5.31,-5.31 -2.93,0 -5.32,2.39 -5.32,5.31"
           style="fill:#00bfc4;fill-opacity:1;fill-rule:nonzero;stroke:none"
           id="path4106" /><path
           d="m 354.85,99.14 c 0,2.92 2.39,5.31 5.31,5.31 2.93,0 5.32,-2.39 5.32,-5.31 0,-2.93 -2.39,-5.32 -5.32,-5.32 -2.92,0 -5.31,2.39 -5.31,5.32"
           style="fill:#cd9600;fill-opacity:1;fill-rule:nonzero;stroke:none"
           id="path4108" /><path
           d="m 161.55,171.9 c 0,2.93 2.39,5.32 5.32,5.32 2.92,0 5.31,-2.39 5.31,-5.32 0,-2.92 -2.39,-5.31 -5.31,-5.31 -2.93,0 -5.32,2.39 -5.32,5.31"
           style="fill:#00a9ff;fill-opacity:1;fill-rule:nonzero;stroke:none"
           id="path4110" /><path
           d="m 548.15,171.9 c 0,2.93 2.39,5.32 5.31,5.32 2.93,0 5.32,-2.39 5.32,-5.32 0,-2.92 -2.39,-5.31 -5.32,-5.31 -2.92,0 -5.31,2.39 -5.31,5.31"
           style="fill:#00a9ff;fill-opacity:1;fill-rule:nonzero;stroke:none"
           id="path4112" /><path
           d="m 258.2,190.1 c 0,2.92 2.39,5.31 5.32,5.31 2.92,0 5.31,-2.39 5.31,-5.31 0,-2.93 -2.39,-5.32 -5.31,-5.32 -2.93,0 -5.32,2.39 -5.32,5.32"
           style="fill:#ff61cc;fill-opacity:1;fill-rule:nonzero;stroke:none"
           id="path4114" /><text
           transform="matrix(1,0,0,-1,302.05,130.08)"
           id="text4116"><tspan
             style="fill:#000000;fill-opacity:1;fill-rule:nonzero;stroke:none;font-family:Helvetica;font-variant:normal;font-weight:normal;font-size:11;writing-mode:lr;-inkscape-font-specification:Helvetica"
             x="0 7.337 11.275 20.438 26.554 32.67 35.112"
             y="0"
             sodipodi:role="line"
             id="tspan4118">Armenia</tspan></text>
<text
           transform="scale(1,-1)"
           id="text4120"
           x="184.84013"
           y="-160.73997"><tspan
             style="font-size:11px;font-variant:normal;font-weight:normal;writing-mode:lr-tb;fill:#000000;fill-opacity:1;fill-rule:nonzero;stroke:none;font-family:Helvetica;-inkscape-font-specification:Helvetica"
             x="184.84013 192.78214 198.89815 205.01414 211.13014"
             y="-160.73997"
             sodipodi:role="line"
             id="tspan4122">Congo</tspan></text>
<text
           transform="scale(1,-1)"
           id="text4124"
           x="469.05997"
           y="-179.48"><tspan
             style="font-size:11px;font-variant:normal;font-weight:normal;writing-mode:lr-tb;fill:#000000;fill-opacity:1;fill-rule:nonzero;stroke:none;font-family:Helvetica;-inkscape-font-specification:Helvetica"
             x="469.05997 477.00195 483.11795 489.23398"
             y="-179.48"
             sodipodi:role="line"
             id="tspan4126">Cuba</tspan></text>
<text
           transform="scale(1,-1)"
           id="text4128"
           x="246.37"
           y="-72.570023"><tspan
             style="font-size:11px;font-variant:normal;font-weight:normal;writing-mode:lr-tb;fill:#000000;fill-opacity:1;fill-rule:nonzero;stroke:none;font-family:Helvetica;-inkscape-font-specification:Helvetica"
             x="246.37 254.312 260.42801 269.591 275.707 281.207 284.76001 290.87601 293.93399 296.37601 301.87601 304.93399 312.87601 318.992 325.108 331.224 337.12 339.56201 342.004 347.504 350.56201 356.67801 359.73599 362.79401 365.85199 371.96799 378.08401 381.142 389.08401 395.20001 401.31601 407.43201"
             y="-72.570023"
             sodipodi:role="line"
             id="tspan4130">Democratic Republic of the Congo</tspan></text>
<text
           transform="matrix(1,0,0,-1,346.85,129.27)"
           id="text4132"><tspan
             style="fill:#000000;fill-opacity:1;fill-rule:nonzero;stroke:none;font-family:Helvetica;font-variant:normal;font-weight:normal;font-size:11;writing-mode:lr;-inkscape-font-specification:Helvetica"
             x="0 8.558 14.674 20.79 24.453 30.569 33.011"
             y="0"
             sodipodi:role="line"
             id="tspan4134">Georgia</tspan></text>
<text
           transform="scale(1,-1)"
           id="text4136"
           x="331.34009"
           y="-162.07005"><tspan
             style="font-size:11px;font-variant:normal;font-weight:normal;writing-mode:lr-tb;fill:#000000;fill-opacity:1;fill-rule:nonzero;stroke:none;font-family:Helvetica;-inkscape-font-specification:Helvetica"
             x="331.34009 334.39807 340.51407 346.63007 352.74606 358.86206 364.97809 370.47809 372.92007"
             y="-162.07005"
             sodipodi:role="line"
             id="tspan4138">Indonesia</tspan></text>
<text
           transform="scale(1,-1)"
           id="text4140"
           x="479.08023"
           y="-82.090012"><tspan
             style="font-size:11px;font-variant:normal;font-weight:normal;writing-mode:lr-tb;fill:#000000;fill-opacity:1;fill-rule:nonzero;stroke:none;font-family:Helvetica;-inkscape-font-specification:Helvetica"
             x="479.08023 485.97723 492.09323 498.04425 503.32425"
             y="-82.090012"
             sodipodi:role="line"
             id="tspan4142">Kenya</tspan></text>
<text
           transform="scale(1,-1)"
           id="text4144"
           x="271.97006"
           y="-495.44998"><tspan
             style="font-size:11px;font-variant:normal;font-weight:normal;writing-mode:lr-tb;fill:#000000;fill-opacity:1;fill-rule:nonzero;stroke:none;font-family:Helvetica;-inkscape-font-specification:Helvetica"
             x="271.97006 279.30707 281.74908 285.57709 288.01907 294.13507 300.25107 303.30908"
             y="-495.44998"
             sodipodi:role="line"
             id="tspan4146">Kiribati</tspan></text>
<text
           transform="scale(1,-1)"
           id="text4148"
           x="280.93994"
           y="-119.87"><tspan
             style="font-size:11px;font-variant:normal;font-weight:normal;writing-mode:lr-tb;fill:#000000;fill-opacity:1;fill-rule:nonzero;stroke:none;font-family:Helvetica;-inkscape-font-specification:Helvetica"
             x="280.93994 290.10297 296.21896 301.71896 307.83496 316.99796 323.11395 325.55594 331.67194 337.78796"
             y="-119.87"
             sodipodi:role="line"
             id="tspan4150">Mozambique</tspan></text>
<text
           transform="scale(1,-1)"
           id="text4152"
           x="404.35019"
           y="-130.06"><tspan
             style="font-size:11px;font-variant:normal;font-weight:normal;writing-mode:lr-tb;fill:#000000;fill-opacity:1;fill-rule:nonzero;stroke:none;font-family:Helvetica;-inkscape-font-specification:Helvetica"
             x="404.35019 412.29218 418.40817 424.52417 430.6402"
             y="-130.06"
             sodipodi:role="line"
             id="tspan4154">Nepal</tspan></text>
<text
           transform="matrix(1,0,0,-1,240.14,164.96)"
           id="text4156"><tspan
             style="fill:#000000;fill-opacity:1;fill-rule:nonzero;stroke:none;font-family:Helvetica;font-variant:normal;font-weight:normal;font-size:11;writing-mode:lr;-inkscape-font-specification:Helvetica"
             x="0 7.942 10.384 16.5 22.616"
             y="0"
             sodipodi:role="line"
             id="tspan4158">Niger</tspan></text>
<text
           transform="scale(1,-1)"
           id="text4160"
           x="276.55005"
           y="-183.36"><tspan
             style="font-size:11px;font-variant:normal;font-weight:normal;writing-mode:lr-tb;fill:#000000;fill-opacity:1;fill-rule:nonzero;stroke:none;font-family:Helvetica;-inkscape-font-specification:Helvetica"
             x="276.55005 283.44705 289.56305 295.06305 297.50507 303.00507 306.06305 312.17905"
             y="-183.36"
             sodipodi:role="line"
             id="tspan4162">Pakistan</tspan></text>
<text
           transform="matrix(1,0,0,-1,119.69,237.73)"
           id="text4164"><tspan
             style="fill:#000000;fill-opacity:1;fill-rule:nonzero;stroke:none;font-family:Helvetica;font-variant:normal;font-weight:normal;font-size:11;writing-mode:lr;-inkscape-font-specification:Helvetica"
             x="0 6.897 13.013 19.129 25.245 31.361 34.419 42.361 48.257 56.199 59.257 67.815 73.931 76.373 82.489 88.605"
             y="0"
             sodipodi:role="line"
             id="tspan4166">Papua New Guinea</tspan></text>
<text
           transform="scale(1,-1)"
           id="text4168"
           x="159.41008"
           y="-122.22985"><tspan
             style="font-size:11px;font-variant:normal;font-weight:normal;writing-mode:lr-tb;fill:#000000;fill-opacity:1;fill-rule:nonzero;stroke:none;font-family:Helvetica;-inkscape-font-specification:Helvetica"
             x="159.41008 166.74707 172.86307 182.02608 188.14207 190.58408 193.02608"
             y="-122.22985"
             sodipodi:role="line"
             id="tspan4170">Somalia</tspan></text>
<text
           transform="matrix(1,0,0,-1,303.13,96.29)"
           id="text4172"><tspan
             style="fill:#000000;fill-opacity:1;fill-rule:nonzero;stroke:none;font-family:Helvetica;font-variant:normal;font-weight:normal;font-size:11;writing-mode:lr;-inkscape-font-specification:Helvetica"
             x="0 5.401 11.517 17.633 23.133 29.249 35.365 37.807"
             y="0"
             sodipodi:role="line"
             id="tspan4174">Tanzania</tspan></text>
<text
           transform="scale(1,-1)"
           id="text4176"
           x="109.62"
           y="-188.91008"><tspan
             style="font-size:11px;font-variant:normal;font-weight:normal;writing-mode:lr-tb;fill:#000000;fill-opacity:1;fill-rule:nonzero;stroke:none;font-family:Helvetica;-inkscape-font-specification:Helvetica"
             x="109.62 117.562 123.062 126.615 132.731 135.173 141.289"
             y="-188.91008"
             sodipodi:role="line"
             id="tspan4178">Ukraine</tspan></text>
<text
           transform="matrix(1,0,0,-1,560.85,165.55)"
           id="text4180"><tspan
             style="fill:#000000;fill-opacity:1;fill-rule:nonzero;stroke:none;font-family:Helvetica;font-variant:normal;font-weight:normal;font-size:11;writing-mode:lr;-inkscape-font-specification:Helvetica"
             x="0 7.942 13.442 19.558 25.674 31.174 33.616 39.116 42.174 48.29"
             y="0"
             sodipodi:role="line"
             id="tspan4182">Uzbekistan</tspan></text>
<text
           transform="scale(1,-1)"
           id="text4184"
           x="288.48007"
           y="-209.4301"><tspan
             style="font-size:11px;font-variant:normal;font-weight:normal;writing-mode:lr-tb;fill:#000000;fill-opacity:1;fill-rule:nonzero;stroke:none;font-family:Helvetica;-inkscape-font-specification:Helvetica"
             x="288.48007 295.81705 298.25906 304.37506 307.43307 310.49106 318.43307 324.54907"
             y="-209.4301"
             sodipodi:role="line"
             id="tspan4186">Viet Nam</tspan></text>
</g></g><g
       id="g4188" /><g
       id="g4190" /><g
       id="g4192"><text
         transform="matrix(1,0,0,-1,28.58,59.16)"
         id="text4194"><tspan
           style="fill:#7f7f7f;fill-opacity:1;fill-rule:nonzero;stroke:none;font-family:Helvetica;font-variant:normal;font-weight:normal;font-size:10;writing-mode:lr;-inkscape-font-specification:Helvetica"
           x="0"
           y="0"
           id="tspan4196">0</tspan></text>
<text
         transform="matrix(1,0,0,-1,28.58,241.08)"
         id="text4198"><tspan
           style="fill:#7f7f7f;fill-opacity:1;fill-rule:nonzero;stroke:none;font-family:Helvetica;font-variant:normal;font-weight:normal;font-size:10;writing-mode:lr;-inkscape-font-specification:Helvetica"
           x="0"
           y="0"
           id="tspan4200">5</tspan></text>
<text
         transform="matrix(1,0,0,-1,23.02,423)"
         id="text4202"><tspan
           style="fill:#7f7f7f;fill-opacity:1;fill-rule:nonzero;stroke:none;font-family:Helvetica;font-variant:normal;font-weight:normal;font-size:10;writing-mode:lr;-inkscape-font-specification:Helvetica"
           x="0 5.56"
           y="0"
           sodipodi:role="line"
           id="tspan4204">10</tspan></text>
</g><g
       id="g4206" /><g
       id="g4208"><path
         d="m 36.97,62.75 4.25,0"
         style="fill:none;stroke:#7f7f7f;stroke-opacity:1;stroke-width:1.06;stroke-linecap:butt;stroke-linejoin:round;stroke-miterlimit:10;stroke-dasharray:none"
         id="path4210" /><path
         d="m 36.97,244.67 4.25,0"
         style="fill:none;stroke:#7f7f7f;stroke-opacity:1;stroke-width:1.06;stroke-linecap:butt;stroke-linejoin:round;stroke-miterlimit:10;stroke-dasharray:none"
         id="path4212" /><path
         d="m 36.97,426.59 4.25,0"
         style="fill:none;stroke:#7f7f7f;stroke-opacity:1;stroke-width:1.06;stroke-linecap:butt;stroke-linejoin:round;stroke-miterlimit:10;stroke-dasharray:none"
         id="path4214" /></g><g
       id="g4216" /><g
       id="g4218" /><g
       id="g4220" /><g
       id="g4222" /><g
       id="g4224" /><g
       id="g4226"><path
         d="m 134.63332,30.128334 0,4.25"
         style="fill:none;stroke:#7f7f7f;stroke-width:1.05999994;stroke-linecap:butt;stroke-linejoin:round;stroke-miterlimit:10;stroke-opacity:1;stroke-dasharray:none"
         id="path4228"
         inkscape:connector-curvature="0" /><path
         d="m 263.51998,33.03 0,4.25"
         style="fill:none;stroke:#7f7f7f;stroke-width:1.05999994;stroke-linecap:butt;stroke-linejoin:round;stroke-miterlimit:10;stroke-opacity:1;stroke-dasharray:none"
         id="path4230"
         inkscape:connector-curvature="0" /><path
         d="m 456.81,33.03 0,4.25"
         style="fill:none;stroke:#7f7f7f;stroke-opacity:1;stroke-width:1.06;stroke-linecap:butt;stroke-linejoin:round;stroke-miterlimit:10;stroke-dasharray:none"
         id="path4232" /><path
         d="m 650.11,33.03 0,4.25"
         style="fill:none;stroke:#7f7f7f;stroke-opacity:1;stroke-width:1.06;stroke-linecap:butt;stroke-linejoin:round;stroke-miterlimit:10;stroke-dasharray:none"
         id="path4234" /><path
         id="path4496"
         style="fill:none;stroke:#7f7f7f;stroke-width:1.05999994;stroke-linecap:butt;stroke-linejoin:round;stroke-miterlimit:10;stroke-opacity:1;stroke-dasharray:none"
         d="m 199.07664,27.226667 0,4.25"
         inkscape:connector-curvature="0" /><path
         inkscape:connector-curvature="0"
         d="m 359.52,29.83 0,4.25"
         style="fill:none;stroke:#7f7f7f;stroke-width:1.05999994;stroke-linecap:butt;stroke-linejoin:round;stroke-miterlimit:10;stroke-opacity:1;stroke-dasharray:none"
         id="path4498" /><path
         id="path4500"
         style="fill:none;stroke:#7f7f7f;stroke-width:1.05999994;stroke-linecap:butt;stroke-linejoin:round;stroke-miterlimit:10;stroke-opacity:1;stroke-dasharray:none"
         d="m 549.92,29.83 0,4.25"
         inkscape:connector-curvature="0" /></g><g
       id="g4236" /><g
       id="g4238"><text
         transform="scale(1,-1)"
         id="text4240"
         x="67.440002"
         y="-23.02"><tspan
           style="font-size:10px;font-variant:normal;font-weight:normal;writing-mode:lr-tb;fill:#7f7f7f;fill-opacity:1;fill-rule:nonzero;stroke:none;font-family:Helvetica;-inkscape-font-specification:Helvetica"
           x="67.440002"
           y="-23.02"
           id="tspan4242">0</tspan></text>
<text
         transform="matrix(1,0,0,-1,260.74,23.02)"
         id="text4244"><tspan
           style="fill:#7f7f7f;fill-opacity:1;fill-rule:nonzero;stroke:none;font-family:Helvetica;font-variant:normal;font-weight:normal;font-size:10;writing-mode:lr;-inkscape-font-specification:Helvetica"
           x="0"
           y="0"
           id="tspan4246">2</tspan></text>
<text
         transform="matrix(1,0,0,-1,454.03,23.02)"
         id="text4248"><tspan
           style="fill:#7f7f7f;fill-opacity:1;fill-rule:nonzero;stroke:none;font-family:Helvetica;font-variant:normal;font-weight:normal;font-size:10;writing-mode:lr;-inkscape-font-specification:Helvetica"
           x="0"
           y="0"
           id="tspan4250">4</tspan></text>
<text
         transform="matrix(1,0,0,-1,647.33,23.02)"
         id="text4252"><tspan
           style="fill:#7f7f7f;fill-opacity:1;fill-rule:nonzero;stroke:none;font-family:Helvetica;font-variant:normal;font-weight:normal;font-size:10;writing-mode:lr;-inkscape-font-specification:Helvetica"
           x="0"
           y="0"
           id="tspan4254">6</tspan></text>
<text
         id="text4484"
         transform="scale(1,-1)"
         x="156.73962"
         y="-23.02"><tspan
           id="tspan4486"
           y="-23.02"
           x="156.73962"
           style="font-size:10px;font-variant:normal;font-weight:normal;writing-mode:lr-tb;fill:#7f7f7f;fill-opacity:1;fill-rule:nonzero;stroke:none;font-family:Helvetica;-inkscape-font-specification:Helvetica">2</tspan></text>
<text
         id="text4488"
         transform="scale(1,-1)"
         x="393.22977"
         y="-23.02"><tspan
           id="tspan4490"
           y="-23.02"
           x="393.22977"
           style="font-size:10px;font-variant:normal;font-weight:normal;writing-mode:lr-tb;fill:#7f7f7f;fill-opacity:1;fill-rule:nonzero;stroke:none;font-family:Helvetica;-inkscape-font-specification:Helvetica">4</tspan></text>
<text
         y="-23.02"
         x="553.22961"
         transform="scale(1,-1)"
         id="text4492"><tspan
           style="font-size:10px;font-variant:normal;font-weight:normal;writing-mode:lr-tb;fill:#7f7f7f;fill-opacity:1;fill-rule:nonzero;stroke:none;font-family:Helvetica;-inkscape-font-specification:Helvetica"
           x="553.22961"
           y="-23.02"
           id="tspan4494">4</tspan></text>
</g><g
       id="g4256" /><g
       id="g4258" /><g
       id="g4260" /><g
       id="g4262" /><g
       id="g4264"><text
         transform="matrix(1,0,0,-1,281.01,10.8)"
         id="text4266"><tspan
           style="fill:#000000;fill-opacity:1;fill-rule:nonzero;stroke:none;font-family:Helvetica;font-variant:normal;font-weight:normal;font-size:12;writing-mode:lr;-inkscape-font-specification:Helvetica"
           x="0 5.892 12.564 15.9 22.572 25.236 28.572 37.236 43.908 50.58 57.252 60.588 63.924 70.596 73.932 77.268 85.932 93.264 101.268 104.604 112.608 115.944 122.616 128.616 134.616 141.624 148.296 154.968"
           y="0"
           sodipodi:role="line"
           id="tspan4268">Total Count of DTP Stock−out</tspan></text>
</g><g
       id="g4270" /><g
       id="g4272"><text
         transform="matrix(0,1,1,0,19.42,212.41)"
         id="text4274"><tspan
           style="fill:#000000;fill-opacity:1;fill-rule:nonzero;stroke:none;font-family:Helvetica;font-variant:normal;font-weight:normal;font-size:12;writing-mode:lr;-inkscape-font-specification:Helvetica"
           x="0 7.524 13.224 19.896 23.772 30.444 37.116 43.788 47.124 55.788 62.46 66.336 73.008 76.344 79.008 85.68 92.352 95.688 102.36 105.696 109.032 117.036 120.372 127.044 133.044 139.044 146.052 152.724 159.396 162.732 166.728 176.724 183.396 190.068 193.404 200.076 206.076"
           y="0"
           sodipodi:role="line"
           id="tspan4276">Average Duration of Stock−out(months)</tspan></text>
</g><g
       id="g4278" /><g
       id="g4280" /><g
       id="g4282" /><g
       id="g4284" /><g
       id="g4286" /><g
       id="g4288"><path
         d="m 689.14,214.65 78.42,0 0,205.58 -78.42,0 0,-205.58 z"
         style="fill:#ffffff;fill-opacity:1;fill-rule:nonzero;stroke:none"
         id="path4290" /></g><g
       id="g4292" /><g
       id="g4294"><text
         transform="matrix(1,0,0,-1,693.39,408.89)"
         id="text4296"><tspan
           style="fill:#000000;fill-opacity:1;fill-rule:nonzero;stroke:none;font-family:Helvetica;font-variant:normal;font-weight:bold;font-size:10;writing-mode:lr;-inkscape-font-specification:Helvetica-Bold"
           x="0 7.22 12.78 18.89 21.67 27.78"
           y="0"
           sodipodi:role="line"
           id="tspan4298">Region</tspan></text>
</g><g
       id="g4300" /><g
       id="g4302"><path
         d="m 693.39,380.18 23.04,0 0,23.04 -23.04,0 0,-23.04 z"
         style="fill:#f2f2f2;fill-opacity:1;fill-rule:nonzero;stroke:#ffffff;stroke-opacity:1;stroke-width:1.06;stroke-linecap:round;stroke-linejoin:round;stroke-miterlimit:10;stroke-dasharray:none"
         id="path4304" /></g><g
       id="g4306" /><g
       id="g4308"><path
         d="m 699.6,391.7 c 0,2.92 2.39,5.32 5.31,5.32 2.93,0 5.32,-2.4 5.32,-5.32 0,-2.92 -2.39,-5.31 -5.32,-5.31 -2.92,0 -5.31,2.39 -5.31,5.31"
         style="fill:#f8766d;fill-opacity:1;fill-rule:nonzero;stroke:none"
         id="path4310" /></g><g
       id="g4312" /><g
       id="g4314"><path
         d="m 693.39,357.14 23.04,0 0,23.04 -23.04,0 0,-23.04 z"
         style="fill:#f2f2f2;fill-opacity:1;fill-rule:nonzero;stroke:#ffffff;stroke-opacity:1;stroke-width:1.06;stroke-linecap:round;stroke-linejoin:round;stroke-miterlimit:10;stroke-dasharray:none"
         id="path4316" /></g><g
       id="g4318" /><g
       id="g4320"><path
         d="m 699.6,368.66 c 0,2.92 2.39,5.32 5.31,5.32 2.93,0 5.32,-2.4 5.32,-5.32 0,-2.92 -2.39,-5.31 -5.32,-5.31 -2.92,0 -5.31,2.39 -5.31,5.31"
         style="fill:#cd9600;fill-opacity:1;fill-rule:nonzero;stroke:none"
         id="path4322" /></g><g
       id="g4324" /><g
       id="g4326"><path
         d="m 693.39,334.1 23.04,0 0,23.04 -23.04,0 0,-23.04 z"
         style="fill:#f2f2f2;fill-opacity:1;fill-rule:nonzero;stroke:#ffffff;stroke-opacity:1;stroke-width:1.06;stroke-linecap:round;stroke-linejoin:round;stroke-miterlimit:10;stroke-dasharray:none"
         id="path4328" /></g><g
       id="g4330" /><g
       id="g4332"><path
         d="m 699.6,345.62 c 0,2.92 2.39,5.32 5.31,5.32 2.93,0 5.32,-2.4 5.32,-5.32 0,-2.92 -2.39,-5.31 -5.32,-5.31 -2.92,0 -5.31,2.39 -5.31,5.31"
         style="fill:#7cae00;fill-opacity:1;fill-rule:nonzero;stroke:none"
         id="path4334" /></g><g
       id="g4336" /><g
       id="g4338"><path
         d="m 693.39,311.06 23.04,0 0,23.04 -23.04,0 0,-23.04 z"
         style="fill:#f2f2f2;fill-opacity:1;fill-rule:nonzero;stroke:#ffffff;stroke-opacity:1;stroke-width:1.06;stroke-linecap:round;stroke-linejoin:round;stroke-miterlimit:10;stroke-dasharray:none"
         id="path4340" /></g><g
       id="g4342" /><g
       id="g4344"><path
         d="m 699.6,322.58 c 0,2.92 2.39,5.32 5.31,5.32 2.93,0 5.32,-2.4 5.32,-5.32 0,-2.92 -2.39,-5.31 -5.32,-5.31 -2.92,0 -5.31,2.39 -5.31,5.31"
         style="fill:#00be67;fill-opacity:1;fill-rule:nonzero;stroke:none"
         id="path4346" /></g><g
       id="g4348" /><g
       id="g4350"><path
         d="m 693.39,288.02 23.04,0 0,23.04 -23.04,0 0,-23.04 z"
         style="fill:#f2f2f2;fill-opacity:1;fill-rule:nonzero;stroke:#ffffff;stroke-opacity:1;stroke-width:1.06;stroke-linecap:round;stroke-linejoin:round;stroke-miterlimit:10;stroke-dasharray:none"
         id="path4352" /></g><g
       id="g4354" /><g
       id="g4356"><path
         d="m 699.6,299.54 c 0,2.92 2.39,5.32 5.31,5.32 2.93,0 5.32,-2.4 5.32,-5.32 0,-2.92 -2.39,-5.31 -5.32,-5.31 -2.92,0 -5.31,2.39 -5.31,5.31"
         style="fill:#00bfc4;fill-opacity:1;fill-rule:nonzero;stroke:none"
         id="path4358" /></g><g
       id="g4360" /><g
       id="g4362"><path
         d="m 693.39,264.98 23.04,0 0,23.04 -23.04,0 0,-23.04 z"
         style="fill:#f2f2f2;fill-opacity:1;fill-rule:nonzero;stroke:#ffffff;stroke-opacity:1;stroke-width:1.06;stroke-linecap:round;stroke-linejoin:round;stroke-miterlimit:10;stroke-dasharray:none"
         id="path4364" /></g><g
       id="g4366" /><g
       id="g4368"><path
         d="m 699.6,276.5 c 0,2.92 2.39,5.32 5.31,5.32 2.93,0 5.32,-2.4 5.32,-5.32 0,-2.92 -2.39,-5.31 -5.32,-5.31 -2.92,0 -5.31,2.39 -5.31,5.31"
         style="fill:#00a9ff;fill-opacity:1;fill-rule:nonzero;stroke:none"
         id="path4370" /></g><g
       id="g4372" /><g
       id="g4374"><path
         d="m 693.39,241.94 23.04,0 0,23.04 -23.04,0 0,-23.04 z"
         style="fill:#f2f2f2;fill-opacity:1;fill-rule:nonzero;stroke:#ffffff;stroke-opacity:1;stroke-width:1.06;stroke-linecap:round;stroke-linejoin:round;stroke-miterlimit:10;stroke-dasharray:none"
         id="path4376" /></g><g
       id="g4378" /><g
       id="g4380"><path
         d="m 699.6,253.46 c 0,2.92 2.39,5.32 5.31,5.32 2.93,0 5.32,-2.4 5.32,-5.32 0,-2.92 -2.39,-5.31 -5.32,-5.31 -2.92,0 -5.31,2.39 -5.31,5.31"
         style="fill:#c77cff;fill-opacity:1;fill-rule:nonzero;stroke:none"
         id="path4382" /></g><g
       id="g4384" /><g
       id="g4386"><path
         d="m 693.39,218.9 23.04,0 0,23.04 -23.04,0 0,-23.04 z"
         style="fill:#f2f2f2;fill-opacity:1;fill-rule:nonzero;stroke:#ffffff;stroke-opacity:1;stroke-width:1.06;stroke-linecap:round;stroke-linejoin:round;stroke-miterlimit:10;stroke-dasharray:none"
         id="path4388" /></g><g
       id="g4390" /><g
       id="g4392"><path
         d="m 699.6,230.42 c 0,2.92 2.39,5.32 5.31,5.32 2.93,0 5.32,-2.4 5.32,-5.32 0,-2.92 -2.39,-5.31 -5.32,-5.31 -2.92,0 -5.31,2.39 -5.31,5.31"
         style="fill:#ff61cc;fill-opacity:1;fill-rule:nonzero;stroke:none"
         id="path4394" /></g><g
       id="g4396" /><g
       id="g4398"><text
         transform="matrix(1,0,0,-1,719.31,388.11)"
         id="text4400"><tspan
           style="fill:#000000;fill-opacity:1;fill-rule:nonzero;stroke:none;font-family:Helvetica;font-variant:normal;font-weight:normal;font-size:10;writing-mode:lr;-inkscape-font-specification:Helvetica"
           x="0 6.67 12.78 19.8 27.58"
           y="0"
           sodipodi:role="line"
           id="tspan4402">AFROC</tspan></text>
</g><g
       id="g4404" /><g
       id="g4406"><text
         transform="matrix(1,0,0,-1,719.31,365.07)"
         id="text4408"><tspan
           style="fill:#000000;fill-opacity:1;fill-rule:nonzero;stroke:none;font-family:Helvetica;font-variant:normal;font-weight:normal;font-size:10;writing-mode:lr;-inkscape-font-specification:Helvetica"
           x="0 6.67 12.78 19.8 27.58 34.25 40.92"
           y="0"
           sodipodi:role="line"
           id="tspan4410">AFROE&amp;S</tspan></text>
</g><g
       id="g4412" /><g
       id="g4414"><text
         transform="matrix(1,0,0,-1,719.31,342.03)"
         id="text4416"><tspan
           style="fill:#000000;fill-opacity:1;fill-rule:nonzero;stroke:none;font-family:Helvetica;font-variant:normal;font-weight:normal;font-size:10;writing-mode:lr;-inkscape-font-specification:Helvetica"
           x="0 6.67 12.78 19.8 27.28"
           y="0"
           sodipodi:role="line"
           id="tspan4418">AFROW</tspan></text>
</g><g
       id="g4420" /><g
       id="g4422"><text
         transform="matrix(1,0,0,-1,719.31,318.99)"
         id="text4424"><tspan
           style="fill:#000000;fill-opacity:1;fill-rule:nonzero;stroke:none;font-family:Helvetica;font-variant:normal;font-weight:normal;font-size:10;writing-mode:lr;-inkscape-font-specification:Helvetica"
           x="0 6.67 15 22.02"
           y="0"
           sodipodi:role="line"
           id="tspan4426">AMRO</tspan></text>
</g><g
       id="g4428" /><g
       id="g4430"><text
         transform="matrix(1,0,0,-1,719.31,295.95)"
         id="text4432"><tspan
           style="fill:#000000;fill-opacity:1;fill-rule:nonzero;stroke:none;font-family:Helvetica;font-variant:normal;font-weight:normal;font-size:10;writing-mode:lr;-inkscape-font-specification:Helvetica"
           x="0 6.67 15 22.02"
           y="0"
           sodipodi:role="line"
           id="tspan4434">EMRO</tspan></text>
</g><g
       id="g4436" /><g
       id="g4438"><text
         transform="matrix(1,0,0,-1,719.31,272.91)"
         id="text4440"><tspan
           style="fill:#000000;fill-opacity:1;fill-rule:nonzero;stroke:none;font-family:Helvetica;font-variant:normal;font-weight:normal;font-size:10;writing-mode:lr;-inkscape-font-specification:Helvetica"
           x="0 6.67 13.89 20.91"
           y="0"
           sodipodi:role="line"
           id="tspan4442">EURO</tspan></text>
</g><g
       id="g4444" /><g
       id="g4446"><text
         transform="matrix(1,0,0,-1,719.31,249.87)"
         id="text4448"><tspan
           style="fill:#000000;fill-opacity:1;fill-rule:nonzero;stroke:none;font-family:Helvetica;font-variant:normal;font-weight:normal;font-size:10;writing-mode:lr;-inkscape-font-specification:Helvetica"
           x="0 6.67 13.34 20.01 27.03"
           y="0"
           sodipodi:role="line"
           id="tspan4450">SEARO</tspan></text>
</g><g
       id="g4452" /><g
       id="g4454"><text
         transform="matrix(1,0,0,-1,719.31,226.83)"
         id="text4456"><tspan
           style="fill:#000000;fill-opacity:1;fill-rule:nonzero;stroke:none;font-family:Helvetica;font-variant:normal;font-weight:normal;font-size:10;writing-mode:lr;-inkscape-font-specification:Helvetica"
           x="0 9.44 16.11 23.13"
           y="0"
           sodipodi:role="line"
           id="tspan4458">WPRO</tspan></text>
</g><g
       id="g4460" /><g
       id="g4462" /><g
       id="g4464" /><g
       id="g4466" /><g
       id="g4468" /><g
       id="g4470" /><g
       id="g4472" /><g
       id="g4474" /><g
       id="g4476" /><g
       id="g4478" /><g
       id="g4480" /><g
       id="g4482" /></g></svg>