<?xml version="1.0" encoding="UTF-8" standalone="no"?>
<!-- Created with Inkscape (http://www.inkscape.org/) -->

<svg
   xmlns:dc="http://purl.org/dc/elements/1.1/"
   xmlns:cc="http://creativecommons.org/ns#"
   xmlns:rdf="http://www.w3.org/1999/02/22-rdf-syntax-ns#"
   xmlns:svg="http://www.w3.org/2000/svg"
   xmlns="http://www.w3.org/2000/svg"
   xmlns:sodipodi="http://sodipodi.sourceforge.net/DTD/sodipodi-0.dtd"
   xmlns:inkscape="http://www.inkscape.org/namespaces/inkscape"
   id="svg4146"
   version="1.1"
   inkscape:version="0.48.3.1 r9886"
   width="990"
   height="765"
   xml:space="preserve"
   sodipodi:docname="NSO_DTP_GAVI_Max3_SameSize_draft.pdf"><metadata
     id="metadata4152"><rdf:RDF><cc:Work
         rdf:about=""><dc:format>image/svg+xml</dc:format><dc:type
           rdf:resource="http://purl.org/dc/dcmitype/StillImage" /><dc:title></dc:title></cc:Work></rdf:RDF></metadata><defs
     id="defs4150"><clipPath
       clipPathUnits="userSpaceOnUse"
       id="clipPath4164"><path
         d="M 0,0 792,0 792,612 0,612 0,0 z"
         id="path4166" /></clipPath><clipPath
       clipPathUnits="userSpaceOnUse"
       id="clipPath4180"><path
         d="m 41.22,37.28 736.38,0 0,560.32 -736.38,0 0,-560.32 z"
         id="path4182" /></clipPath></defs><sodipodi:namedview
     pagecolor="#ffffff"
     bordercolor="#666666"
     borderopacity="1"
     objecttolerance="10"
     gridtolerance="10"
     guidetolerance="10"
     inkscape:pageopacity="0"
     inkscape:pageshadow="2"
     inkscape:window-width="1440"
     inkscape:window-height="876"
     id="namedview4148"
     showgrid="false"
     inkscape:zoom="0.92013239"
     inkscape:cx="495"
     inkscape:cy="429.72217"
     inkscape:window-x="0"
     inkscape:window-y="24"
     inkscape:window-maximized="1"
     inkscape:current-layer="g4154" /><g
     id="g4154"
     inkscape:groupmode="layer"
     inkscape:label="NSO_DTP_GAVI_Max3_SameSize_draft"
     transform="matrix(1.25,0,0,-1.25,0,765)"><g
       id="g4156" /><g
       id="g4158" /><g
       id="g4160"><g
         id="g4162"
         clip-path="url(#clipPath4164)"><path
           d="m 0,6.530249 792,0 0,612.000001 -792,0 L 0,6.530249 z"
           style="fill:#ffffff;fill-opacity:1;fill-rule:nonzero;stroke:#ffffff;stroke-width:1.05999994;stroke-linecap:round;stroke-linejoin:round;stroke-miterlimit:10;stroke-opacity:1;stroke-dasharray:none"
           id="path4168"
           inkscape:connector-curvature="0" /></g></g><g
       id="g4170" /><g
       id="g4172" /><g
       id="g4174" /><g
       id="g4176"><g
         id="g4178"
         clip-path="url(#clipPath4180)"><path
   d="m 186.27,63.656942 0,473.716268"
   style="fill:#4d4d4d;stroke:#4d4d4d;stroke-width:0.39647868;stroke-linecap:butt;stroke-linejoin:round;stroke-miterlimit:10;stroke-opacity:1;stroke-dasharray:0.79295736, 1.58591473;stroke-dashoffset:0.31718306"
   id="path4192"
   inkscape:connector-curvature="0" /><path
   d="m 409.41,62.338095 0,475.263185"
   style="fill:#000000;stroke:#000000;stroke-width:1.39024794;stroke-linecap:butt;stroke-linejoin:round;stroke-miterlimit:10;stroke-opacity:1;stroke-dasharray:2.78049595, 5.5609919;stroke-dashoffset:1.11219878"
   id="path4194"
   inkscape:connector-curvature="0" /><path
   d="m 632.56,63.217326 0,474.595494"
   style="fill:#4d4d4d;stroke:#4d4d4d;stroke-width:0.39684644;stroke-linecap:butt;stroke-linejoin:round;stroke-miterlimit:10;stroke-opacity:1;stroke-dasharray:0.79369289, 1.58738577;stroke-dashoffset:0.31747726"
   id="path4196"
   inkscape:connector-curvature="0" /><path
   d="M 74.176582,62.75 777.6,62.75"
   style="fill:#000000;stroke:#000000;stroke-width:1.1923871;stroke-linecap:butt;stroke-linejoin:round;stroke-miterlimit:10;stroke-opacity:1;stroke-dasharray:none"
   id="path4198"
   inkscape:connector-curvature="0" /><path
   d="m 74.194208,244.67 669.552502,0"
   style="fill:#4d4d4d;stroke:#4d4d4d;stroke-width:0.41116872;stroke-linecap:butt;stroke-linejoin:round;stroke-miterlimit:10;stroke-opacity:1;stroke-dasharray:0.82233746, 1.64467492;stroke-dashoffset:0.32893498"
   id="path4200"
   inkscape:connector-curvature="0" /><path
   d="m 75.07352,426.59 668.6732,0"
   style="fill:#4d4d4d;stroke:#4d4d4d;stroke-width:0.41089866;stroke-linecap:butt;stroke-linejoin:round;stroke-miterlimit:10;stroke-opacity:1;stroke-dasharray:0.82179731, 1.64359461;stroke-dashoffset:0.32871892"
   id="path4202"
   inkscape:connector-curvature="0" /><path
   d="m 74.69,62.320502 0,475.535238"
   style="fill:#000000;stroke:#000000;stroke-width:1.12391412;stroke-linecap:butt;stroke-linejoin:round;stroke-miterlimit:10;stroke-opacity:1;stroke-dasharray:none"
   id="path4204"
   inkscape:connector-curvature="0" /><path
   d="m 297.84,62.777711 0,475.035099"
   style="fill:#4d4d4d;stroke:#4d4d4d;stroke-width:0.39703017;stroke-linecap:butt;stroke-linejoin:round;stroke-miterlimit:10;stroke-opacity:1;stroke-dasharray:0.79406039, 1.58812079;stroke-dashoffset:0.31762414"
   id="path4206"
   inkscape:connector-curvature="0" /><path
   d="m 520.98,61.898479 0,476.353921"
   style="fill:#4d4d4d;stroke:#4d4d4d;stroke-width:0.39758095;stroke-linecap:butt;stroke-linejoin:round;stroke-miterlimit:10;stroke-opacity:1;stroke-dasharray:0.79516189, 1.59032377;stroke-dashoffset:0.31806474"
   id="path4208"
   inkscape:connector-curvature="0" /><path
   d="m 744.13,62.777711 0,474.595479"
   style="fill:#4d4d4d;stroke:#4d4d4d;stroke-width:0.39684644;stroke-linecap:butt;stroke-linejoin:round;stroke-miterlimit:10;stroke-opacity:1;stroke-dasharray:0.79369288, 1.58738577;stroke-dashoffset:0.31747714"
   id="path4210"
   inkscape:connector-curvature="0" /><path
   d="m 404.1,208.29 c 0,2.92 2.39,5.31 5.31,5.31 2.92,0 5.32,-2.39 5.32,-5.31 0,-2.92 -2.4,-5.32 -5.32,-5.32 -2.92,0 -5.31,2.4 -5.31,5.32"
   style="fill:#214478;fill-opacity:1;fill-rule:nonzero;stroke:none"
   id="path4212" /><path
   d="m 180.95,171.9 c 0,2.93 2.39,5.32 5.32,5.32 2.92,0 5.31,-2.39 5.31,-5.32 0,-2.92 -2.39,-5.31 -5.31,-5.31 -2.93,0 -5.32,2.39 -5.32,5.31"
   style="fill:#214478;fill-opacity:1;fill-rule:nonzero;stroke:none"
   id="path4214" /><path
   d="m 515.67,244.67 c 0,2.93 2.39,5.32 5.31,5.32 2.93,0 5.32,-2.39 5.32,-5.32 0,-2.92 -2.39,-5.31 -5.32,-5.31 -2.92,0 -5.31,2.39 -5.31,5.31"
   style="fill:#214478;fill-opacity:1;fill-rule:nonzero;stroke:none"
   id="path4216" /><path
   d="m 404.1,99.14 c 0,2.92 2.39,5.31 5.31,5.31 2.92,0 5.32,-2.39 5.32,-5.31 0,-2.93 -2.4,-5.32 -5.32,-5.32 -2.92,0 -5.31,2.39 -5.31,5.32"
   style="fill:#214478;fill-opacity:1;fill-rule:nonzero;stroke:none"
   id="path4218" /><path
   d="m 404.1,171.9 c 0,2.93 2.39,5.32 5.31,5.32 2.92,0 5.32,-2.39 5.32,-5.32 0,-2.92 -2.4,-5.31 -5.32,-5.31 -2.92,0 -5.31,2.39 -5.31,5.31"
   style="fill:#214478;fill-opacity:1;fill-rule:nonzero;stroke:none"
   id="path4220" /><path
   d="m 404.1,208.29 c 0,2.92 2.39,5.31 5.31,5.31 2.92,0 5.32,-2.39 5.32,-5.31 0,-2.92 -2.4,-5.32 -5.32,-5.32 -2.92,0 -5.31,2.4 -5.31,5.32"
   style="fill:#214478;fill-opacity:1;fill-rule:nonzero;stroke:none"
   id="path4222" /><path
   d="m 515.67,99.14 c 0,2.92 2.39,5.31 5.31,5.31 2.93,0 5.32,-2.39 5.32,-5.31 0,-2.93 -2.39,-5.32 -5.32,-5.32 -2.92,0 -5.31,2.39 -5.31,5.32"
   style="fill:#214478;fill-opacity:1;fill-rule:nonzero;stroke:none"
   id="path4224" /><path
   d="m 292.52,499.36 c 0,2.93 2.4,5.32 5.32,5.32 2.92,0 5.31,-2.39 5.31,-5.32 0,-2.92 -2.39,-5.31 -5.31,-5.31 -2.92,0 -5.32,2.39 -5.32,5.31"
   style="fill:#214478;fill-opacity:1;fill-rule:nonzero;stroke:none"
   id="path4226" /><path
   d="m 404.1,171.9 c 0,2.93 2.39,5.32 5.31,5.32 2.92,0 5.32,-2.39 5.32,-5.32 0,-2.92 -2.4,-5.31 -5.32,-5.31 -2.92,0 -5.31,2.39 -5.31,5.31"
   style="fill:#214478;fill-opacity:1;fill-rule:nonzero;stroke:none"
   id="path4228" /><path
   d="m 404.1,171.9 c 0,2.93 2.39,5.32 5.31,5.32 2.92,0 5.32,-2.39 5.32,-5.32 0,-2.92 -2.4,-5.31 -5.32,-5.31 -2.92,0 -5.31,2.39 -5.31,5.31"
   style="fill:#214478;fill-opacity:1;fill-rule:nonzero;stroke:none"
   id="path4230" /><path
   d="m 292.52,171.9 c 0,2.93 2.4,5.32 5.32,5.32 2.92,0 5.31,-2.39 5.31,-5.32 0,-2.92 -2.39,-5.31 -5.31,-5.31 -2.92,0 -5.32,2.39 -5.32,5.31"
   style="fill:#214478;fill-opacity:1;fill-rule:nonzero;stroke:none"
   id="path4232" /><path
   d="m 292.52,171.9 c 0,2.93 2.4,5.32 5.32,5.32 2.92,0 5.31,-2.39 5.31,-5.32 0,-2.92 -2.39,-5.31 -5.31,-5.31 -2.92,0 -5.32,2.39 -5.32,5.31"
   style="fill:#214478;fill-opacity:1;fill-rule:nonzero;stroke:none"
   id="path4234" /><path
   d="m 292.52,244.67 c 0,2.93 2.4,5.32 5.32,5.32 2.92,0 5.31,-2.39 5.31,-5.32 0,-2.92 -2.39,-5.31 -5.31,-5.31 -2.92,0 -5.32,2.39 -5.32,5.31"
   style="fill:#214478;fill-opacity:1;fill-rule:nonzero;stroke:none"
   id="path4236" /><path
   d="m 180.95,244.67 c 0,2.93 2.39,5.32 5.32,5.32 2.92,0 5.31,-2.39 5.31,-5.32 0,-2.92 -2.39,-5.31 -5.31,-5.31 -2.93,0 -5.32,2.39 -5.32,5.31"
   style="fill:#214478;fill-opacity:1;fill-rule:nonzero;stroke:none"
   id="path4238" /><path
   d="m 180.95,171.9 c 0,2.93 2.39,5.32 5.32,5.32 2.92,0 5.31,-2.39 5.31,-5.32 0,-2.92 -2.39,-5.31 -5.31,-5.31 -2.93,0 -5.32,2.39 -5.32,5.31"
   style="fill:#214478;fill-opacity:1;fill-rule:nonzero;stroke:none"
   id="path4240" /><path
   d="m 404.1,99.14 c 0,2.92 2.39,5.31 5.31,5.31 2.92,0 5.32,-2.39 5.32,-5.31 0,-2.93 -2.4,-5.32 -5.32,-5.32 -2.92,0 -5.31,2.39 -5.31,5.32"
   style="fill:#214478;fill-opacity:1;fill-rule:nonzero;stroke:none"
   id="path4242" /><path
   d="m 180.95,171.9 c 0,2.93 2.39,5.32 5.32,5.32 2.92,0 5.31,-2.39 5.31,-5.32 0,-2.92 -2.39,-5.31 -5.31,-5.31 -2.93,0 -5.32,2.39 -5.32,5.31"
   style="fill:#214478;fill-opacity:1;fill-rule:nonzero;stroke:none"
   id="path4244" /><path
   d="m 627.24,244.67 c 0,2.93 2.39,5.32 5.32,5.32 2.92,0 5.31,-2.39 5.31,-5.32 0,-2.92 -2.39,-5.31 -5.31,-5.31 -2.93,0 -5.32,2.39 -5.32,5.31"
   style="fill:#214478;fill-opacity:1;fill-rule:nonzero;stroke:none"
   id="path4246" /><path
   d="m 292.52,208.29 c 0,2.92 2.4,5.31 5.32,5.31 2.92,0 5.31,-2.39 5.31,-5.31 0,-2.92 -2.39,-5.32 -5.31,-5.32 -2.92,0 -5.32,2.4 -5.32,5.32"
   style="fill:#214478;fill-opacity:1;fill-rule:nonzero;stroke:none"
   id="path4248" /><text
   transform="scale(1,-1)"
   id="text4250"
   x="422.82016"
   y="-210.74002"><tspan
     style="font-size:11px;font-variant:normal;font-weight:normal;writing-mode:lr-tb;fill:#000000;fill-opacity:1;fill-rule:nonzero;stroke:none;font-family:Helvetica;-inkscape-font-specification:Helvetica"
     x="422.82016 430.15717 434.09515 443.25815 449.37415 455.49014 457.93216 464.04816 467.10617 473.22217 476.28015"
     y="-210.74002"
     sodipodi:role="line"
     id="tspan4252">Armenia,3,4</tspan></text>

<text
   transform="scale(1,-1)"
   id="text4254"
   x="199.51015"
   y="-198.36012"><tspan
     style="font-size:11px;font-variant:normal;font-weight:normal;writing-mode:lr-tb;fill:#000000;fill-opacity:1;fill-rule:nonzero;stroke:none;font-family:Helvetica;-inkscape-font-specification:Helvetica"
     x="199.51015 207.45213 213.56815 219.68414 225.80014 231.47614 234.53413 240.65015 243.70815"
     y="-198.36012"
     sodipodi:role="line"
     id="tspan4256">Congo,1,3</tspan></text>

<text
   transform="scale(1,-1)"
   id="text4258"
   x="530.65979"
   y="-245.52002"><tspan
     style="font-size:11px;font-variant:normal;font-weight:normal;writing-mode:lr-tb;fill:#000000;fill-opacity:1;fill-rule:nonzero;stroke:none;font-family:Helvetica;-inkscape-font-specification:Helvetica"
     x="530.65979 538.60162 544.71753 550.83356 556.94952 560.00751 566.12354 569.18152"
     y="-245.52002"
     sodipodi:role="line"
     id="tspan4260">Cuba,4,5</tspan></text>

<text
   transform="scale(1,-1)"
   id="text4262"
   x="424.0704"
   y="-79.19001"><tspan
     style="font-size:11px;font-variant:normal;font-weight:normal;writing-mode:lr-tb;fill:#000000;fill-opacity:1;fill-rule:nonzero;stroke:none;font-family:Helvetica;-inkscape-font-specification:Helvetica"
     x="424.0704 432.01242 438.12842 447.29141 453.40741 458.90741 462.46042 468.57642 471.6344 474.07642 479.57642 482.6344 490.57642 496.69241 502.80841 508.92441 514.82037 517.26233 519.70428 525.20416 528.26208 534.37799 537.43591 540.4939 543.55182 549.66766 555.78357 558.84149 566.78339 572.89923 579.01514 585.13104 590.80688 593.86487 599.98077 603.0387"
     y="-79.19001"
     sodipodi:role="line"
     id="tspan4264">Democratic Republic of the Congo,3,1</tspan></text>

<text
   transform="scale(1,-1)"
   id="text4266"
   x="419.07013"
   y="-175.96004"><tspan
     style="font-size:11px;font-variant:normal;font-weight:normal;writing-mode:lr-tb;fill:#000000;fill-opacity:1;fill-rule:nonzero;stroke:none;font-family:Helvetica;-inkscape-font-specification:Helvetica"
     x="419.07013 427.62814 433.74414 439.86014 443.52313 449.63913 452.08115 458.19714 461.25513 467.37112 470.42914"
     y="-175.96004"
     sodipodi:role="line"
     id="tspan4268">Georgia,3,3</tspan></text>

<text
   transform="scale(1,-1)"
   id="text4270"
   x="493.19043"
   y="-210.74002"><tspan
     style="font-size:11px;font-variant:normal;font-weight:normal;writing-mode:lr-tb;fill:#000000;fill-opacity:1;fill-rule:nonzero;stroke:none;font-family:Helvetica;-inkscape-font-specification:Helvetica"
     x="493.19043 496.24844 502.36441 508.48044 514.59637 520.71228 526.82812 532.32806 534.77002 540.88586 543.94385 550.05969 553.11768"
     y="-210.74002"
     sodipodi:role="line"
     id="tspan4272">Indonesia,3,4</tspan></text>

<text
   transform="scale(1,-1)"
   id="text4274"
   x="530.2298"
   y="-95.190002"><tspan
     style="font-size:11px;font-variant:normal;font-weight:normal;writing-mode:lr-tb;fill:#000000;fill-opacity:1;fill-rule:nonzero;stroke:none;font-family:Helvetica;-inkscape-font-specification:Helvetica"
     x="530.2298 537.12665 543.24255 549.19354 554.47351 560.58954 563.64752 569.76349 572.82153"
     y="-95.190002"
     sodipodi:role="line"
     id="tspan4276">Kenya,4,1</tspan></text>

<text
   transform="scale(1,-1)"
   id="text4278"
   x="305.52014"
   y="-501.81003"><tspan
     style="font-size:11px;font-variant:normal;font-weight:normal;writing-mode:lr-tb;fill:#000000;fill-opacity:1;fill-rule:nonzero;stroke:none;font-family:Helvetica;-inkscape-font-specification:Helvetica"
     x="305.52014 312.85715 315.29913 319.12714 321.56912 327.68515 333.80115 336.85913 339.30115 342.35913 348.47513 351.53314 357.64914"
     y="-501.81003"
     sodipodi:role="line"
     id="tspan4280">Kiribati,2,12</tspan></text>

<text
   transform="scale(1,-1)"
   id="text4282"
   x="549.63995"
   y="-174.36003"><tspan
     style="font-size:11px;font-variant:normal;font-weight:normal;writing-mode:lr-tb;fill:#000000;fill-opacity:1;fill-rule:nonzero;stroke:none;font-family:Helvetica;-inkscape-font-specification:Helvetica"
     x="549.63995 558.8028 564.91864 570.41858 576.53442 585.69727 591.81317 594.25513 600.37097 606.48688 612.43781 615.49573 621.61157 624.66956"
     y="-174.36003"
     sodipodi:role="line"
     id="tspan4284">Mozambique,3,3</tspan></text>

<text
   transform="scale(1,-1)"
   id="text4286"
   x="489.87039"
   y="-174.36003"><tspan
     style="font-size:11px;font-variant:normal;font-weight:normal;writing-mode:lr-tb;fill:#000000;fill-opacity:1;fill-rule:nonzero;stroke:none;font-family:Helvetica;-inkscape-font-specification:Helvetica"
     x="489.87039 497.81238 503.92838 510.0444 516.16034 518.60223 521.66022 527.77612 530.83405"
     y="-174.36003"
     sodipodi:role="line"
     id="tspan4288">Nepal,3,3</tspan></text>

<text
   transform="scale(1,-1)"
   id="text4290"
   x="309.40012"
   y="-187.16008"><tspan
     style="font-size:11px;font-variant:normal;font-weight:normal;writing-mode:lr-tb;fill:#000000;fill-opacity:1;fill-rule:nonzero;stroke:none;font-family:Helvetica;-inkscape-font-specification:Helvetica"
     x="309.40012 317.34213 319.78412 325.90012 332.01611 335.12912 338.18713 344.30313 347.36111"
     y="-187.16008"
     sodipodi:role="line"
     id="tspan4292">Niger,2,3</tspan></text>

<text
   transform="scale(1,-1)"
   id="text4294"
   x="309.56015"
   y="-175.96004"><tspan
     style="font-size:11px;font-variant:normal;font-weight:normal;writing-mode:lr-tb;fill:#000000;fill-opacity:1;fill-rule:nonzero;stroke:none;font-family:Helvetica;-inkscape-font-specification:Helvetica"
     x="309.56015 317.50214 319.94415 326.06015 332.17615 336.00415 338.44614 344.56213 347.62015 353.73615 356.79413"
     y="-175.96004"
     sodipodi:role="line"
     id="tspan4296">Nigeria,2,3</tspan></text>

<text
   transform="scale(1,-1)"
   id="text4298"
   x="309.39017"
   y="-247.12003"><tspan
     style="font-size:11px;font-variant:normal;font-weight:normal;writing-mode:lr-tb;fill:#000000;fill-opacity:1;fill-rule:nonzero;stroke:none;font-family:Helvetica;-inkscape-font-specification:Helvetica"
     x="309.39017 316.28714 322.40314 327.90317 330.34515 335.84515 338.90317 345.01917 351.13516 354.19315 360.30914 363.36716"
     y="-247.12003"
     sodipodi:role="line"
     id="tspan4300">Pakistan,2,5</tspan></text>

<text
   transform="scale(1,-1)"
   id="text4302"
   x="129.73"
   y="-256.72006"><tspan
     style="font-size:11px;font-variant:normal;font-weight:normal;writing-mode:lr-tb;fill:#000000;fill-opacity:1;fill-rule:nonzero;stroke:none;font-family:Helvetica;-inkscape-font-specification:Helvetica"
     x="129.73 136.627 142.743 148.85899 154.97501 161.091 164.149 172.091 177.987 185.929 188.987 197.545 203.661 206.103 212.21899 218.33501 224.451 227.509 233.625 236.683"
     y="-256.72006"
     sodipodi:role="line"
     id="tspan4304">Papua New Guinea,1,5</tspan></text>

<text
   transform="scale(1,-1)"
   id="text4306"
   x="198.83015"
   y="-185.56007"><tspan
     style="font-size:11px;font-variant:normal;font-weight:normal;writing-mode:lr-tb;fill:#000000;fill-opacity:1;fill-rule:nonzero;stroke:none;font-family:Helvetica;-inkscape-font-specification:Helvetica"
     x="198.83015 206.16716 212.28316 221.44615 227.56215 230.00415 232.44615 238.56215 241.62015 247.73615 250.79416"
     y="-185.56007"
     sodipodi:role="line"
     id="tspan4308">Somalia,1,3</tspan></text>

<text
   transform="scale(1,-1)"
   id="text4310"
   x="423.08017"
   y="-95.189995"><tspan
     style="font-size:11px;font-variant:normal;font-weight:normal;writing-mode:lr-tb;fill:#000000;fill-opacity:1;fill-rule:nonzero;stroke:none;font-family:Helvetica;-inkscape-font-specification:Helvetica"
     x="423.08017 428.48117 434.59717 440.71317 446.21317 452.32916 458.44516 460.88718 467.00317 470.06116 476.17719 479.23517"
     y="-95.189995"
     sodipodi:role="line"
     id="tspan4312">Tanzania,3,1</tspan></text>

<text
   transform="scale(1,-1)"
   id="text4314"
   x="198.28015"
   y="-174.36003"><tspan
     style="font-size:11px;font-variant:normal;font-weight:normal;writing-mode:lr-tb;fill:#000000;fill-opacity:1;fill-rule:nonzero;stroke:none;font-family:Helvetica;-inkscape-font-specification:Helvetica"
     x="198.28015 206.22215 211.72215 215.27515 221.39114 223.83315 229.94914 235.90015 238.95815 245.07414 248.13214"
     y="-174.36003"
     sodipodi:role="line"
     id="tspan4316">Ukraine,1,3</tspan></text>

<text
   transform="scale(1,-1)"
   id="text4318"
   x="640.97937"
   y="-245.52002"><tspan
     style="font-size:11px;font-variant:normal;font-weight:normal;writing-mode:lr-tb;fill:#000000;fill-opacity:1;fill-rule:nonzero;stroke:none;font-family:Helvetica;-inkscape-font-specification:Helvetica"
     x="640.97937 648.92133 654.42133 660.53735 666.65332 672.15332 674.59534 680.09534 683.15332 689.26935 695.38531 698.44336 704.55933 707.61737"
     y="-245.52002"
     sodipodi:role="line"
     id="tspan4320">Uzbekistan,5,5</tspan></text>

<text
   transform="scale(1,-1)"
   id="text4322"
   x="307.65015"
   y="-210.74002"><tspan
     style="font-size:11px;font-variant:normal;font-weight:normal;writing-mode:lr-tb;fill:#000000;fill-opacity:1;fill-rule:nonzero;stroke:none;font-family:Helvetica;-inkscape-font-specification:Helvetica"
     x="307.65015 314.98715 317.42914 323.54517 326.60315 329.66116 337.60315 343.71915 352.88214 355.94016 362.05615 365.11417"
     y="-210.74002"
     sodipodi:role="line"
     id="tspan4324">Viet Nam,2,4</tspan></text>

<path
   id="path5277"
   style="fill:#4d4d4d;stroke:#4d4d4d;stroke-width:0.41103372;stroke-linecap:butt;stroke-linejoin:round;stroke-miterlimit:10;stroke-opacity:1;stroke-dasharray:0.82206743, 1.64413485;stroke-dashoffset:0.32882697"
   d="m 74.633864,208.286 669.112846,0"
   inkscape:connector-curvature="0" /><path
   inkscape:connector-curvature="0"
   d="m 74.633864,171.902 669.112846,0"
   style="fill:#000000;stroke:#000000;stroke-width:1.3912;stroke-linecap:butt;stroke-linejoin:round;stroke-miterlimit:10;stroke-opacity:1;stroke-dasharray:2.7824,5.5648;stroke-dashoffset:1.11295998"
   id="path5279" /><path
   id="path5281"
   style="fill:#4d4d4d;stroke:#4d4d4d;stroke-width:0.41089866;stroke-linecap:butt;stroke-linejoin:round;stroke-miterlimit:10;stroke-opacity:1;stroke-dasharray:0.82179731, 1.64359461;stroke-dashoffset:0.32871892"
   d="m 74.633864,135.518 668.673196,0"
   inkscape:connector-curvature="0" /><path
   inkscape:connector-curvature="0"
   d="m 74.194208,99.133998 669.552502,0"
   style="fill:#4d4d4d;stroke:#4d4d4d;stroke-width:0.41116872;stroke-linecap:butt;stroke-linejoin:round;stroke-miterlimit:10;stroke-opacity:1;stroke-dasharray:0.82233746, 1.64467492;stroke-dashoffset:0.32893498"
   id="path5283" /><path
   id="path5285"
   style="fill:#4d4d4d;stroke:#4d4d4d;stroke-width:0.41089866;stroke-linecap:butt;stroke-linejoin:round;stroke-miterlimit:10;stroke-opacity:1;stroke-dasharray:0.82179731, 1.64359461;stroke-dashoffset:0.32871892"
   d="m 75.07352,390.206 668.6732,0"
   inkscape:connector-curvature="0" /><path
   inkscape:connector-curvature="0"
   d="m 75.07352,353.822 668.6732,0"
   style="fill:#4d4d4d;stroke:#4d4d4d;stroke-width:0.41089866;stroke-linecap:butt;stroke-linejoin:round;stroke-miterlimit:10;stroke-opacity:1;stroke-dasharray:0.82179731, 1.64359461;stroke-dashoffset:0.32871892"
   id="path5287" /><path
   id="path5289"
   style="fill:#4d4d4d;stroke:#4d4d4d;stroke-width:0.41089866;stroke-linecap:butt;stroke-linejoin:round;stroke-miterlimit:10;stroke-opacity:1;stroke-dasharray:0.82179731, 1.64359461;stroke-dashoffset:0.32871892"
   d="m 74.633864,317.438 668.673196,0"
   inkscape:connector-curvature="0" /><path
   inkscape:connector-curvature="0"
   d="m 74.194208,281.054 669.552502,0"
   style="fill:#4d4d4d;stroke:#4d4d4d;stroke-width:0.41116872;stroke-linecap:butt;stroke-linejoin:round;stroke-miterlimit:10;stroke-opacity:1;stroke-dasharray:0.82233746, 1.64467492;stroke-dashoffset:0.32893498"
   id="path5291" /><path
   inkscape:connector-curvature="0"
   id="path5293"
   style="fill:#4d4d4d;stroke:#4d4d4d;stroke-width:0.41116872;stroke-linecap:butt;stroke-linejoin:round;stroke-miterlimit:10;stroke-opacity:1;stroke-dasharray:0.82233746, 1.64467492;stroke-dashoffset:0.32893498"
   d="m 74.194208,463.39 669.552502,0" /><path
   d="m 75.07352,499.86546 668.6732,0"
   style="fill:#4d4d4d;stroke:#4d4d4d;stroke-width:0.41089866;stroke-linecap:butt;stroke-linejoin:round;stroke-miterlimit:10;stroke-opacity:1;stroke-dasharray:0.82179731, 1.64359461;stroke-dashoffset:0.32871892"
   id="path5297"
   inkscape:connector-curvature="0" /><path
   inkscape:connector-curvature="0"
   id="path5301"
   style="fill:#4d4d4d;stroke:#4d4d4d;stroke-width:0.41103372;stroke-linecap:butt;stroke-linejoin:round;stroke-miterlimit:10;stroke-opacity:1;stroke-dasharray:0.82206743, 1.64413485;stroke-dashoffset:0.32882697"
   d="m 74.633864,536.99 669.112846,0" /></g></g><g
       id="g4326" /><g
       id="g4328" /><g
       id="g4330"
       style="fill:#000000"
       transform="translate(27.2,0)"><text
   transform="matrix(1,0,0,-1,28.58,59.16)"
   id="text4332"
   style="font-size:10.39999962px;font-style:normal;font-variant:normal;font-weight:normal;font-stretch:normal;text-align:start;line-height:125%;writing-mode:lr-tb;text-anchor:start;fill:#000000;font-family:Sans;-inkscape-font-specification:Sans"
   sodipodi:linespacing="125%"><tspan
     style="font-size:10.39999962px;font-style:normal;font-variant:normal;font-weight:normal;font-stretch:normal;text-align:start;line-height:125%;writing-mode:lr-tb;text-anchor:start;fill:#000000;fill-opacity:1;fill-rule:nonzero;stroke:none;font-family:Sans;-inkscape-font-specification:Sans"
     x="0"
     y="0"
     id="tspan4334">0</tspan></text>

<text
   transform="scale(1,-1)"
   id="text4336"
   style="font-size:10.39999962px;font-style:normal;font-variant:normal;font-weight:normal;font-stretch:normal;text-align:start;line-height:125%;writing-mode:lr-tb;text-anchor:start;fill:#000000;font-family:Sans;-inkscape-font-specification:Sans"
   sodipodi:linespacing="125%"
   x="28.58"
   y="-277.91696"><tspan
     sodipodi:role="line"
     id="tspan5357"
     x="28.58"
     y="-277.91696">6</tspan></text>

<text
   transform="scale(1,-1)"
   id="text4340"
   style="font-size:10.39999962px;font-style:normal;font-variant:normal;font-weight:normal;font-stretch:normal;text-align:start;line-height:125%;writing-mode:lr-tb;text-anchor:start;fill:#000000;font-family:Sans;-inkscape-font-specification:Sans"
   sodipodi:linespacing="125%"
   x="23.02"
   y="-423.75494"><tspan
     style="font-size:10.39999962px;font-style:normal;font-variant:normal;font-weight:normal;font-stretch:normal;text-align:start;line-height:125%;writing-mode:lr-tb;text-anchor:start;fill:#000000;fill-opacity:1;fill-rule:nonzero;stroke:none;font-family:Sans;-inkscape-font-specification:Sans"
     x="23.02 28.58"
     y="-423.75494"
     sodipodi:role="line"
     id="tspan4342">10</tspan></text>

<text
   id="text5337"
   transform="scale(1,-1)"
   x="23.02"
   y="-496.60028"
   style="font-size:10.39999962px;font-style:normal;font-variant:normal;font-weight:normal;font-stretch:normal;text-align:start;line-height:125%;writing-mode:lr-tb;text-anchor:start;fill:#000000;font-family:Sans;-inkscape-font-specification:Sans"
   sodipodi:linespacing="125%"><tspan
     sodipodi:role="line"
     id="tspan5353"
     x="23.02"
     y="-496.60028">12</tspan></text>

<text
   y="-350.83594"
   x="26.220001"
   transform="scale(1,-1)"
   id="text5341"
   style="font-size:10.39999962px;font-style:normal;font-variant:normal;font-weight:normal;font-stretch:normal;text-align:start;line-height:125%;writing-mode:lr-tb;text-anchor:start;fill:#000000;font-family:Sans;-inkscape-font-specification:Sans"
   sodipodi:linespacing="125%"><tspan
     sodipodi:role="line"
     id="tspan5355"
     x="26.220001"
     y="-350.83594">8</tspan></text>

<text
   id="text5345"
   transform="scale(1,-1)"
   x="28.58"
   y="-132.00536"
   style="font-size:10.39999962px;font-style:normal;font-variant:normal;font-weight:normal;font-stretch:normal;text-align:start;line-height:125%;writing-mode:lr-tb;text-anchor:start;fill:#000000;font-family:Sans;-inkscape-font-specification:Sans"
   sodipodi:linespacing="125%"><tspan
     sodipodi:role="line"
     id="tspan5361"
     x="28.58"
     y="-132.00536">2</tspan></text>

<text
   y="-204.9929"
   x="28.58"
   transform="scale(1,-1)"
   id="text5349"
   style="font-size:10.39999962px;font-style:normal;font-variant:normal;font-weight:normal;font-stretch:normal;text-align:start;line-height:125%;writing-mode:lr-tb;text-anchor:start;fill:#000000;font-family:Sans;-inkscape-font-specification:Sans"
   sodipodi:linespacing="125%"><tspan
     sodipodi:role="line"
     id="tspan5359"
     x="28.58"
     y="-204.9929">4</tspan></text>

</g><g
       id="g4344" /><g
       id="g4346"
       transform="translate(32,0)"
       style="fill:#000000;stroke:#000000"><path
         d="m 36.97,62.75 4.25,0"
         style="fill:#000000;stroke:#000000;stroke-width:1.05999994;stroke-linecap:butt;stroke-linejoin:round;stroke-miterlimit:10;stroke-opacity:1;stroke-dasharray:none"
         id="path4348"
         inkscape:connector-curvature="0" /><path
         d="m 36.97,207.96152 4.25,0"
         style="fill:#000000;stroke:#000000;stroke-width:1.05999994;stroke-linecap:butt;stroke-linejoin:round;stroke-miterlimit:10;stroke-opacity:1;stroke-dasharray:none"
         id="path4350"
         inkscape:connector-curvature="0" /><path
         d="m 36.97,426.91455 4.25,0"
         style="fill:#000000;stroke:#000000;stroke-width:1.05999994;stroke-linecap:butt;stroke-linejoin:round;stroke-miterlimit:10;stroke-opacity:1;stroke-dasharray:none"
         id="path4352"
         inkscape:connector-curvature="0" /><path
         inkscape:connector-curvature="0"
         id="path5329"
         style="fill:#000000;stroke:#000000;stroke-width:1.05999994;stroke-linecap:butt;stroke-linejoin:round;stroke-miterlimit:10;stroke-opacity:1;stroke-dasharray:none"
         d="m 36.97,354.14655 4.25,0" /><path
         d="m 36.97,280.72958 4.25,0"
         style="fill:#000000;stroke:#000000;stroke-width:1.05999994;stroke-linecap:butt;stroke-linejoin:round;stroke-miterlimit:10;stroke-opacity:1;stroke-dasharray:none"
         id="path5331"
         inkscape:connector-curvature="0" /><path
         inkscape:connector-curvature="0"
         id="path5333"
         style="fill:#000000;stroke:#000000;stroke-width:1.05999994;stroke-linecap:butt;stroke-linejoin:round;stroke-miterlimit:10;stroke-opacity:1;stroke-dasharray:none"
         d="m 36.97,135.19345 4.25,0" /><path
         inkscape:connector-curvature="0"
         id="path5335"
         style="fill:#000000;stroke:#000000;stroke-width:1.05999994;stroke-linecap:butt;stroke-linejoin:round;stroke-miterlimit:10;stroke-opacity:1;stroke-dasharray:none"
         d="m 36.97,499.86546 4.25,0" /></g><g
       id="g4354" /><g
       id="g4356" /><g
       id="g4358" /><g
       id="g4360" /><g
       id="g4362" /><g
       id="g4364"
       transform="translate(0,24)"
       style="fill:#000000;stroke:#000000"><path
         d="m 74.69,33.03 0,4.25"
         style="fill:#000000;stroke:#000000;stroke-width:1.05999994;stroke-linecap:butt;stroke-linejoin:round;stroke-miterlimit:10;stroke-opacity:1;stroke-dasharray:none"
         id="path4366"
         inkscape:connector-curvature="0" /><path
         d="m 297.83667,33.03 0,4.25"
         style="fill:#000000;stroke:#000000;stroke-width:1.05999994;stroke-linecap:butt;stroke-linejoin:round;stroke-miterlimit:10;stroke-opacity:1;stroke-dasharray:none"
         id="path4368"
         inkscape:connector-curvature="0" /><path
         d="m 520.98329,33.03 0,4.25"
         style="fill:#000000;stroke:#000000;stroke-width:1.05999994;stroke-linecap:butt;stroke-linejoin:round;stroke-miterlimit:10;stroke-opacity:1;stroke-dasharray:none"
         id="path4370"
         inkscape:connector-curvature="0" /><path
         d="m 744.12998,33.03 0,4.25"
         style="fill:#000000;stroke:#000000;stroke-width:1.05999994;stroke-linecap:butt;stroke-linejoin:round;stroke-miterlimit:10;stroke-opacity:1;stroke-dasharray:none"
         id="path4372"
         inkscape:connector-curvature="0" /><path
         inkscape:connector-curvature="0"
         id="path5305"
         style="fill:#000000;stroke:#000000;stroke-width:1.05999994;stroke-linecap:butt;stroke-linejoin:round;stroke-miterlimit:10;stroke-opacity:1;stroke-dasharray:none"
         d="m 186.26334,33.03 0,4.25" /><path
         inkscape:connector-curvature="0"
         id="path5307"
         style="fill:#000000;stroke:#000000;stroke-width:1.05999994;stroke-linecap:butt;stroke-linejoin:round;stroke-miterlimit:10;stroke-opacity:1;stroke-dasharray:none"
         d="m 409.40998,33.03 0,4.25" /><path
         d="m 632.55663,33.03 0,4.25"
         style="fill:#000000;stroke:#000000;stroke-width:1.05999994;stroke-linecap:butt;stroke-linejoin:round;stroke-miterlimit:10;stroke-opacity:1;stroke-dasharray:none"
         id="path5309"
         inkscape:connector-curvature="0" /></g><g
       id="g4374" /><g
       id="g4376"
       transform="translate(0,22.4)"
       style="fill:#000000"><text
   transform="matrix(1,0,0,-1,71.91,23.02)"
   id="text4378"
   style="font-size:10.39999962px;font-style:normal;font-variant:normal;font-weight:normal;font-stretch:normal;text-align:start;line-height:125%;writing-mode:lr-tb;text-anchor:start;fill:#000000;font-family:Sans;-inkscape-font-specification:Sans"
   sodipodi:linespacing="125%"><tspan
     style="font-size:10.39999962px;font-style:normal;font-variant:normal;font-weight:normal;font-stretch:normal;text-align:start;line-height:125%;writing-mode:lr-tb;text-anchor:start;fill:#000000;fill-opacity:1;fill-rule:nonzero;stroke:none;font-family:Sans;-inkscape-font-specification:Sans"
     x="0"
     y="0"
     id="tspan4380">0</tspan></text>

<text
   transform="matrix(1,0,0,-1,295.06,23.02)"
   id="text4382"
   style="font-size:10.39999962px;font-style:normal;font-variant:normal;font-weight:normal;font-stretch:normal;text-align:start;line-height:125%;writing-mode:lr-tb;text-anchor:start;fill:#000000;font-family:Sans;-inkscape-font-specification:Sans"
   sodipodi:linespacing="125%"><tspan
     style="font-size:10.39999962px;font-style:normal;font-variant:normal;font-weight:normal;font-stretch:normal;text-align:start;line-height:125%;writing-mode:lr-tb;text-anchor:start;fill:#000000;fill-opacity:1;fill-rule:nonzero;stroke:none;font-family:Sans;-inkscape-font-specification:Sans"
     x="0"
     y="0"
     id="tspan4384">2</tspan></text>

<text
   transform="matrix(1,0,0,-1,518.2,23.02)"
   id="text4386"
   style="font-size:10.39999962px;font-style:normal;font-variant:normal;font-weight:normal;font-stretch:normal;text-align:start;line-height:125%;writing-mode:lr-tb;text-anchor:start;fill:#000000;font-family:Sans;-inkscape-font-specification:Sans"
   sodipodi:linespacing="125%"><tspan
     style="font-size:10.39999962px;font-style:normal;font-variant:normal;font-weight:normal;font-stretch:normal;text-align:start;line-height:125%;writing-mode:lr-tb;text-anchor:start;fill:#000000;fill-opacity:1;fill-rule:nonzero;stroke:none;font-family:Sans;-inkscape-font-specification:Sans"
     x="0"
     y="0"
     id="tspan4388">4</tspan></text>

<text
   transform="matrix(1,0,0,-1,741.35,23.02)"
   id="text4390"
   style="font-size:10.39999962px;font-style:normal;font-variant:normal;font-weight:normal;font-stretch:normal;text-align:start;line-height:125%;writing-mode:lr-tb;text-anchor:start;fill:#000000;font-family:Sans;-inkscape-font-specification:Sans"
   sodipodi:linespacing="125%"><tspan
     style="font-size:10.39999962px;font-style:normal;font-variant:normal;font-weight:normal;font-stretch:normal;text-align:start;line-height:125%;writing-mode:lr-tb;text-anchor:start;fill:#000000;fill-opacity:1;fill-rule:nonzero;stroke:none;font-family:Sans;-inkscape-font-specification:Sans"
     x="0"
     y="0"
     id="tspan4392">6</tspan></text>

<text
   id="text5311"
   transform="scale(1,-1)"
   x="184.59076"
   y="-23.02"
   style="font-size:10.39999962px;font-style:normal;font-variant:normal;font-weight:normal;font-stretch:normal;text-align:start;line-height:125%;writing-mode:lr-tb;text-anchor:start;fill:#000000;font-family:Sans;-inkscape-font-specification:Sans"
   sodipodi:linespacing="125%"><tspan
     sodipodi:role="line"
     id="tspan5327"
     x="184.59076"
     y="-23.02">1</tspan></text>

<text
   y="-23.02"
   x="408.0878"
   transform="scale(1,-1)"
   id="text5315"
   style="font-size:10.39999962px;font-style:normal;font-variant:normal;font-weight:normal;font-stretch:normal;text-align:start;line-height:125%;writing-mode:lr-tb;text-anchor:start;fill:#000000;font-family:Sans;-inkscape-font-specification:Sans"
   sodipodi:linespacing="125%"><tspan
     sodipodi:role="line"
     id="tspan5325"
     x="408.0878"
     y="-23.02">3</tspan></text>

<text
   id="text5319"
   transform="scale(1,-1)"
   x="631.2243"
   y="-23.02"
   style="font-size:10.39999962px;font-style:normal;font-variant:normal;font-weight:normal;font-stretch:normal;text-align:start;line-height:125%;writing-mode:lr-tb;text-anchor:start;fill:#000000;font-family:Sans;-inkscape-font-specification:Sans"
   sodipodi:linespacing="125%"><tspan
     sodipodi:role="line"
     id="tspan5323"
     x="631.2243"
     y="-23.02">5</tspan></text>

</g><g
       id="g4394" /><g
       id="g4396" /><g
       id="g4398" /><g
       id="g4400" /><g
       id="g4402"><text
   transform="scale(1,-1)"
   id="text4404"
   x="330.26001"
   y="-17.200001"><tspan
     style="font-size:12px;font-variant:normal;font-weight:normal;writing-mode:lr-tb;fill:#000000;fill-opacity:1;fill-rule:nonzero;stroke:none;font-family:Helvetica;-inkscape-font-specification:Helvetica"
     x="330.26001 336.15201 342.82401 346.16 352.832 355.496 358.832 367.496 374.168 380.84 387.51199 390.84799 394.18399 400.85599 404.19199 407.52798 416.19199 423.52399 431.52798 434.86398 442.86801 446.20401 452.87601 458.87601 464.87601 471.884 478.556 485.228"
     y="-17.200001"
     sodipodi:role="line"
     id="tspan4406">Total Count of DTP Stock−out</tspan></text>

</g><g
       id="g4408" /><g
       id="g4410"><text
   transform="matrix(0,1,1,0,0,0)"
   id="text4412"
   x="208.36"
   y="21.02"><tspan
     style="font-size:12px;font-variant:normal;font-weight:normal;writing-mode:lr-tb;fill:#000000;fill-opacity:1;fill-rule:nonzero;stroke:none;font-family:Helvetica;-inkscape-font-specification:Helvetica"
     x="208.36 218.356 225.028 231.028 233.692 243.56799 250.24001 260.23599 263.57199 272.23599 278.90799 282.784 289.45599 292.79199 295.45599 302.12799 308.79999 312.13599 318.80798 322.14398 325.48001 333.48401 336.82001 343.492 349.492 355.492 362.5 369.172 375.84399 379.17999 383.17599 393.172 399.84399 406.51599 409.85199 416.52399 422.52399"
     y="21.02"
     sodipodi:role="line"
     id="tspan4414">Maximum Duration of Stock−out(months)</tspan></text>

</g><g
       id="g4416" /><g
       id="g4418" /><g
       id="g4420" /><g
       id="g4422" /><flowRoot
       xml:space="preserve"
       id="flowRoot5353"
       style="font-size:40px;font-style:normal;font-weight:normal;line-height:125%;letter-spacing:0px;word-spacing:0px;fill:#000000;fill-opacity:1;stroke:none;font-family:Sans"
       transform="matrix(0.8,0,0,-0.8,20.155558,592.76977)"><flowRegion
         id="flowRegion5355"><rect
           id="rect5357"
           width="324.87805"
           height="46.097561"
           x="645.36584"
           y="705.73169" /></flowRegion><flowPara
         id="flowPara5359"
         style="font-size:10px;font-style:normal;font-variant:normal;font-weight:normal;font-stretch:normal;text-align:start;line-height:125%;writing-mode:lr-tb;text-anchor:start;font-family:Sans;-inkscape-font-specification:Sans">Authors: David S Opoku &amp; Benjamin Schreiber | Jan 2014</flowPara><flowPara
         style="font-size:10px;font-style:normal;font-variant:normal;font-weight:normal;font-stretch:normal;text-align:start;line-height:125%;writing-mode:lr-tb;text-anchor:start;font-family:Sans;-inkscape-font-specification:Sans"
         id="flowPara5363">Data source: 2012 WHO Joint Reporting Form | Patrick Lydon</flowPara><flowPara
         style="font-size:10px;font-style:normal;font-variant:normal;font-weight:normal;font-stretch:normal;text-align:start;line-height:125%;writing-mode:lr-tb;text-anchor:start;font-family:Sans;-inkscape-font-specification:Sans"
         id="flowPara5361" /></flowRoot><flowRoot
       xml:space="preserve"
       id="flowRoot5365"
       style="font-size:21.6355381px;font-style:normal;font-variant:normal;font-weight:normal;font-stretch:normal;text-align:start;line-height:125%;letter-spacing:0px;word-spacing:0px;writing-mode:lr-tb;text-anchor:start;fill:#000000;fill-opacity:1;stroke:none;font-family:Sans;-inkscape-font-specification:Sans"
       transform="matrix(0.83809045,0,0,-0.8,-8.9370474,635.22649)"><flowRegion
         id="flowRegion5367"><rect
           id="rect5369"
           width="830.85364"
           height="93.292679"
           x="98.780487"
           y="40.609756"
           style="font-size:21.6355381px;font-style:normal;font-variant:normal;font-weight:normal;font-stretch:normal;text-align:start;line-height:125%;writing-mode:lr-tb;text-anchor:start;font-family:Sans;-inkscape-font-specification:Sans" /></flowRegion><flowPara
         id="flowPara5371"
         style="font-size:21.6355381px;font-style:normal;font-variant:normal;font-weight:normal;font-stretch:normal;text-align:start;line-height:125%;writing-mode:lr-tb;text-anchor:start;font-family:Sans;-inkscape-font-specification:Sans">GAVI-eligible countries that had <flowSpan
   style="font-weight:bold"
   id="flowSpan5432">3 or more DTP stock-outs</flowSpan> or a maximum of <flowSpan
   style="font-weight:bold"
   id="flowSpan5381">3 or more months</flowSpan> stock-outs from <flowSpan
   style="font-weight:bold"
   id="flowSpan5383">2005 to 2012</flowSpan>. 19 countries out of 72 fit this profile.  </flowPara></flowRoot></g></svg>